<svg width="84" height="49" viewBox="0 0 84 49" fill="none" xmlns="http://www.w3.org/2000/svg">
<path d="M0.5 32.9999V7.49995C1.66667 6.49995 4.6 4.29995 7 3.49995C10 2.49995 17 0.999948 25.5 0.499948C34 -5.20647e-05 48 -0.500052 52 1.49995C56 3.49995 69 13.5 71 14C73 14.5 84 17 84 18V39.5C80.8333 40.5 73 42.7 67 43.5C59.5 44.5 47 47 43 46C39.8 45.2 13.3333 37 0.5 32.9999Z" fill="#F3E177"/>
<path d="M30 42.5C29.3798 41.5697 29.5 37 30 33.5C30.2916 31.4592 32.9 29.5 34.5 29.5H40.5C42 29.5 42.5 33 43 34C43.5 35 43.5 44 43.5 45C43.5 45.8 42.8333 46.6667 42.5 47L38 48C36.8 48.4 34.8333 47.5 34 47C32.5 46.5 31 44 30 42.5Z" fill="#996B38"/>
<path d="M2 28.5C2.33333 27.1667 3.3 24.5 4.5 24.5H8.5C9.5 24.5 10.5 26.4384 10.5 28.5V34C10.5 34.8 9.77734 36.8582 9.61068 36.7873H5.5C4.65095 36.867 3.7022 36.5533 3 35.5C2.2 34.3 2 33.6667 2 33.5V28.5Z" fill="#996B38"/>
<path d="M67.5 10.5L66.5 11.5V14H70.5C70.8333 13.6667 71.5 12.8 71.5 12C71.5 11.2 70.8333 10.6667 70.5 10.5H67.5Z" fill="#F09839"/>
<path d="M51 2H27.5L38.5 14.5H70L51 2Z" fill="white"/>
<path d="M57 20.5H42.5C42.1 24.5 45.3333 27.8333 47 29L57 28.5V20.5Z" fill="white"/>
<path d="M78.5 19.5L58.5 20.5V24C58.5 25.2 59.1667 27.1667 59.5 28L69.25 27.5L79 27C79.5 26.5 80 25.6 80 24C80 22.4 79.1667 20.1667 78.5 19.5Z" fill="#F09839"/>
<path d="M81.5 26V19.5H84V26H81.5Z" fill="white"/>
<path d="M46 43.5V38.5C52.1667 37.8333 65.7 36.4 70.5 36C75.3 35.6 80.5 34.5 82.5 34V38C81 38.6667 76.5 40.2 70.5 41C64.5 41.8 51.6667 43 46 43.5Z" fill="#996B38"/>
<path d="M66 36.5C66 34.5001 68.2395 31.5712 71 31.5C73.3827 31.4386 76 33 76 35C76 37 73.4957 38.8446 71 39C68.8211 39.1358 66 38.5 66 36.5Z" fill="white"/>
<path d="M47 36V34H49.5V36H47Z" fill="#996B38"/>
<path d="M81 32V30.5H82.5V32H81Z" fill="#996B38"/>
<path d="M14.5 16V5.00003C17.3 3.00003 22 2.83336 24 3.00003L33.5 13V16H14.5Z" fill="white"/>
<path d="M12 15.5001V5.00005C6.8 4.60005 4.16667 6.50005 3.5 7.50005V15.0001L12 15.5001Z" fill="white"/>
<path d="M14.5 19H17.5" stroke="#996B38" stroke-width="1.25" stroke-linecap="round"/>
<path d="M4 18H6" stroke="#996B38" stroke-width="1.25" stroke-linecap="round"/>
<path d="M34 45C32.4 44.2 32 40 32 38C32 31.6 34 31.3333 35 32C36.1424 32.7616 38 33.4 38 39C38 46 36 46 34 45Z" fill="#EDB95B"/>
<path d="M34 39C34 38 34.5 37 35 37C35.5 37 36 38 36 39C36 40 35.5 41 35 41C34.5 41 34 40 34 39Z" fill="#996B38"/>
<path d="M3 30.5C3 29 3.5 27 4.5 27C5.5 27 6 29 6 30.5C6 32 6 35 4.5 35C3 35 3 32 3 30.5Z" fill="#EDB95B"/>
<path d="M34 11.5H25C24.5 12 23.4 13.3 23 14.5C22.6 15.7 23.8333 17 24.5 17.5H33.5C33.8333 17 34.5 15.7 34.5 14.5C34.5 13.3 34.1667 12 34 11.5Z" fill="#F09839"/>
</svg>
