<svg width="151" height="147" viewBox="0 0 151 147" fill="none" xmlns="http://www.w3.org/2000/svg">
<path d="M60.5 0.5L72 50.5001H82.5L92 0.5H60.5Z" fill="url(#paint0_linear_14_452)"/>
<path d="M118.355 13L91.1317 56.4872L98.5563 63.9118L140.629 35.2739L118.355 13Z" fill="url(#paint1_linear_14_452)"/>
<path d="M150.427 62.7488L100.426 74.2488V84.7488L150.427 94.2488V62.7488Z" fill="url(#paint2_linear_14_452)"/>
<path d="M141.629 118.355L98.1421 91.1318L90.7175 98.5564L119.355 140.629L141.629 118.355Z" fill="url(#paint3_linear_14_452)"/>
<path d="M92.5 147L81 96.9999H70.5L61 147H92.5Z" fill="url(#paint4_linear_14_452)"/>
<path d="M35.2739 142.629L62.4976 99.1422L55.0729 91.7176L13 120.356L35.2739 142.629Z" fill="url(#paint5_linear_14_452)"/>
<path d="M0 92.5L50.0001 81V70.5L0 61V92.5Z" fill="url(#paint6_linear_14_452)"/>
<path d="M10.7513 32.571L54.2384 59.7947L61.663 52.3701L33.0251 10.2972L10.7513 32.571Z" fill="url(#paint7_linear_14_452)"/>
<rect x="14" y="57.0063" width="109.395" height="52.3877" rx="4" transform="rotate(-7.47238 14 57.0063)" fill="#FDF9ED"/>
<rect x="18.1392" y="61.5446" width="101.383" height="43.4178" rx="2.74625" transform="rotate(-7.47238 18.1392 61.5446)" stroke="#F0DDA2" stroke-width="2"/>
<path d="M27.5355 53.0029L24.3497 63.0821C23.0754 67.1138 25.5886 66.1059 27.0045 65.098L35.5 54.0109C34.2611 54.011 31.677 53.8095 31.2523 53.0029C30.8275 52.1964 28.5974 52.6669 27.5355 53.0029Z" fill="url(#paint8_linear_14_452)"/>
<path d="M15 73.4998C15.4 72.6997 19.5 68.9997 21 67.4998C22.1667 67.6665 24 68.1998 24 68.9998C24 69.7998 18.6667 77.3331 16 80.9998C15.8333 80.1664 15.4 78.1998 15 76.9998C14.5 75.4998 13.2748 75.7745 12 74.4998C11 73.4998 14.5 74.4999 15 73.4998Z" fill="url(#paint9_linear_14_452)"/>
<path d="M22 84.9996C21.2 83.3996 21.6667 75.9997 22 72.4997C22.8333 69.1663 24.7 63.6996 25.5 68.4996C25.8333 72.1663 26.5 80.0996 26.5 82.4997C26.5 84.8997 27.5 87.1663 28 87.9996C27.2 87.9996 25.6667 86.6663 25 85.9996L24.5 88.9996C24 88.333 22.8 86.5996 22 84.9996Z" fill="url(#paint10_linear_14_452)"/>
<path d="M42.4861 59C39.6861 58.9999 33.6528 60.3333 30.9861 61C25.9861 64.5001 18.1861 70.6002 26.9861 67.0002C35.7861 63.4002 43.6528 64.1669 46.4861 65.0002C46.4861 63.8002 44.4861 62.1669 43.4861 61.5002L45.9861 60.5002C45.9861 60.0002 45.2861 59.0001 42.4861 59Z" fill="url(#paint11_linear_14_452)"/>
<path d="M21 67.4994L23.5 63.4994C24 63.4994 25.2 63.1995 26 63.9995C26.8 64.7995 27 65.9994 27 66.4994L25 69.4994C24.3333 69.4994 22.8 69.8994 22 69.4994C21.2 69.0994 21 67.9994 21 67.4994Z" fill="url(#paint12_linear_14_452)"/>
<path d="M128 79.5C128.8 77.5 127.667 75 127 74C121 81.3333 109.1 96.2 109.5 97C109.9 97.8 113 97.6667 114.5 97.5C118.667 92.3333 127.2 81.5 128 79.5Z" fill="url(#paint13_linear_14_452)"/>
<path d="M61.7027 75.9487C61.4691 76.1599 61.243 76.349 61.0243 76.5161L61.3335 78.7447C61.5381 80.2202 61.8001 81.8428 62.1192 83.6126C62.1822 84.0666 61.9145 84.3351 61.316 84.4181C60.8827 84.4783 60.641 84.3278 60.5909 83.9666L60.2249 80.76L59.7589 77.4015C59.245 77.7147 58.7515 77.9856 58.2784 78.2142C58.274 78.2201 58.2666 78.2237 58.2563 78.2252C58.1944 78.2338 58.1577 78.1968 58.1463 78.1142C58.1427 78.0884 58.1479 78.0693 58.162 78.0568C59.3534 77.0555 60.3511 75.9654 61.155 74.7864C61.5751 74.176 61.9187 73.5447 62.1858 72.8924C63.4637 73.2725 64.1162 73.5606 64.1434 73.7566C64.1699 73.9475 63.9303 74.078 63.4248 74.1481C63.0117 74.6576 62.5334 75.1709 61.99 75.688C62.3343 76.5026 62.7082 77.2079 63.1117 77.804C63.4984 77.256 63.8482 76.6317 64.1611 75.931C64.3709 75.434 64.5244 74.9868 64.6218 74.5894C65.374 74.8952 65.8696 75.113 66.1085 75.2429C66.3363 75.369 66.4574 75.4837 66.4717 75.5868C66.4917 75.7313 66.3521 75.8243 66.0529 75.8658C65.9755 75.8765 65.8845 75.8839 65.7799 75.8879C65.068 76.707 64.2456 77.4495 63.3126 78.1152C63.6284 78.5342 63.9224 78.872 64.1946 79.1287C65.1228 80.02 66.3388 80.6742 67.8427 81.0913C67.8809 81.1017 67.9026 81.125 67.9076 81.1612C67.914 81.2076 67.8951 81.2418 67.8508 81.2637C67.6463 81.3814 67.5083 81.5241 67.437 81.6918C67.3693 81.8484 67.317 82.1159 67.2801 82.4944C67.2473 82.7882 67.1664 82.944 67.0374 82.9619C66.929 82.9769 66.6963 82.8909 66.339 82.7038C65.1188 82.0949 64.1246 81.1444 63.3564 79.8523C62.7411 78.8281 62.1899 77.527 61.7027 75.9487ZM59.4726 73.0637C59.022 73.9465 58.4568 74.7243 57.7772 75.397C57.7683 75.4087 57.7535 75.416 57.7329 75.4189C57.6504 75.4304 57.6048 75.4051 57.5962 75.3432C57.5948 75.3329 57.5959 75.3222 57.5996 75.3112C58.1274 74.302 58.4804 73.0752 58.6586 71.6308C58.7387 70.9571 58.7598 70.3705 58.7221 69.871C59.6146 69.9365 60.2017 69.9996 60.4836 70.0604C60.7176 70.1173 60.8421 70.2 60.8571 70.3083C60.8807 70.4785 60.706 70.6211 60.3328 70.736C60.1828 71.3983 59.9644 72.0412 59.6775 72.6646L63.5777 72.1235C64.0766 71.3234 64.3906 70.9144 64.5196 70.8965C64.6228 70.8822 64.9976 71.0826 65.6441 71.4977C65.9754 71.7252 66.1475 71.8853 66.1603 71.9782C66.1747 72.0814 66.1122 72.1426 65.9729 72.1619L59.4726 73.0637ZM54.7378 74.0125C54.8608 75.0891 54.9431 75.8901 54.9844 76.4154L56.1606 76.2522C56.4685 75.7047 56.6818 75.4228 56.8004 75.4063C56.9243 75.3891 57.2275 75.5469 57.71 75.8795C57.9584 76.0396 58.0904 76.1764 58.1061 76.2899C58.1176 76.3725 58.0076 76.5271 57.7761 76.7538C57.9269 78.2577 58.0051 79.6929 58.0106 81.0593C58.0147 82.226 57.963 82.9904 57.8555 83.3523C57.7345 83.7687 57.5236 84.0872 57.223 84.3077C56.9769 84.5048 56.6733 84.6284 56.3122 84.6785C56.1419 84.7022 56.0398 84.6296 56.0059 84.4608C55.9092 84.1429 55.7396 83.9061 55.4972 83.7505C55.3135 83.6393 55.009 83.529 54.5837 83.4197C54.5506 83.4086 54.5308 83.3798 54.5244 83.3333C54.5137 83.2559 54.5348 83.2188 54.5878 83.222C55.3952 83.2046 55.8711 83.1859 56.0155 83.1659C56.2786 83.1294 56.4447 83.0564 56.5136 82.9469C56.5737 82.8492 56.6095 82.6523 56.621 82.3563C56.679 80.7655 56.5836 78.8463 56.3349 76.5988L55.0039 76.7834C55.1542 78.9658 55.0403 80.722 54.6622 82.0522C54.3409 83.1853 53.7642 84.2591 52.9322 85.2737C52.9226 85.2802 52.91 85.2846 52.8946 85.2868C52.8069 85.2989 52.7573 85.2637 52.7458 85.1812C52.7444 85.1709 52.7456 85.1602 52.7493 85.1492C53.3149 84.0716 53.649 82.5951 53.7516 80.7194C53.8445 79.0765 53.7527 77.2593 53.4765 75.268C53.4221 74.8759 53.3653 74.5236 53.3062 74.2111L52.8496 74.2744C52.5865 74.3109 52.2529 74.3887 51.8488 74.5079L51.5903 73.9522C52.0247 73.9761 52.4225 73.9629 52.7837 73.9128L53.751 73.7787L53.4847 71.8595C53.4568 71.6583 53.377 71.2724 53.2452 70.7018C54.5573 70.6459 55.228 70.7238 55.2574 70.9353C55.2717 71.0385 55.1377 71.1911 54.8555 71.3933L55.1594 73.5833L55.763 73.4995C56.1338 72.8749 56.3837 72.5537 56.5126 72.5358C56.621 72.5208 56.9249 72.6837 57.4244 73.0245C57.6748 73.2001 57.8062 73.3317 57.8183 73.4194C57.8334 73.5278 57.7712 73.5916 57.6319 73.6109L54.7378 74.0125ZM69.858 76.1424C69.2633 76.7455 68.6498 77.2696 68.0175 77.7149C68.0183 77.7201 68.0135 77.7234 68.0031 77.7248C67.9103 77.7377 67.8567 77.6925 67.8424 77.5893C67.8402 77.5739 67.8436 77.5603 67.8525 77.5485C68.8326 76.3504 69.6271 75.0465 70.236 73.637C70.5514 72.8781 70.747 72.241 70.8227 71.7257C71.7305 72.0152 72.288 72.206 72.4954 72.2982C72.6858 72.3822 72.7878 72.4732 72.8014 72.5712C72.8322 72.7931 72.6257 72.9348 72.1821 72.9963C71.7564 73.7179 71.3528 74.3339 70.9714 74.8443C71.358 74.8642 71.5603 74.9387 71.5782 75.0677C71.5961 75.1967 71.4717 75.3427 71.2052 75.5059L72.1284 82.1609C72.19 82.6046 71.9473 82.8644 71.4005 82.9402C70.9465 83.0032 70.6916 82.8335 70.6358 82.4311C70.5431 81.3082 70.3815 79.9161 70.1511 78.255L69.858 76.1424ZM78.843 72.7979L79.3572 76.5045L79.8857 79.9726C79.9515 80.4473 79.8712 80.8344 79.6445 81.134C79.3447 81.5121 78.8775 81.7452 78.243 81.8332C78.0727 81.8568 77.9667 81.8505 77.9248 81.8142C77.8889 81.7824 77.844 81.6861 77.7901 81.5253C77.6876 81.203 77.4701 80.9808 77.1376 80.8587C76.8611 80.7603 76.3495 80.6735 75.6029 80.5983C75.5654 80.593 75.5419 80.5568 75.5326 80.4898C75.5198 80.3969 75.5365 80.3473 75.583 80.3408C76.7287 80.2608 77.513 80.1914 77.9361 80.1327C78.0857 80.1119 78.1798 80.07 78.2183 80.0068C78.248 79.9553 78.2542 79.8677 78.2371 79.7439L77.303 73.0115L73.8517 73.4903C73.5835 73.5275 73.2473 73.6057 72.8431 73.7249L72.5924 73.1681C73.0269 73.192 73.4298 73.1781 73.8013 73.1266L79.3342 72.359C79.8426 71.5891 80.1587 71.1956 80.2825 71.1784C80.3857 71.1641 80.772 71.3524 81.4415 71.7433C81.7854 71.948 81.9645 72.1019 81.9788 72.2051C81.9931 72.3082 81.9306 72.3695 81.7913 72.3888L78.843 72.7979ZM80.6359 68.495C80.6502 68.5982 80.5877 68.6595 80.4484 68.6788L73.9172 69.5849C73.6438 69.6228 73.305 69.7014 72.9009 69.8205L72.6502 69.2638C73.0846 69.2876 73.4902 69.2734 73.8668 69.2212L77.9759 68.6511C78.4857 67.8915 78.8025 67.5032 78.9263 67.486C79.0295 67.4717 79.4236 67.6589 80.1085 68.0476C80.4472 68.253 80.623 68.4022 80.6359 68.495ZM72.1328 69.0595C72.1579 69.24 71.9227 69.3647 71.4275 69.4334C70.4091 71.1889 69.1024 72.5533 67.5075 73.5265C67.5023 73.5272 67.4946 73.5283 67.4842 73.5297C67.412 73.5398 67.3698 73.5009 67.3577 73.4132C67.3548 73.3926 67.3604 73.376 67.3744 73.3636C68.1967 72.3924 68.8976 71.2856 69.4772 70.0431C69.8375 69.2675 70.0478 68.6415 70.1079 68.1652C71.4292 68.555 72.1042 68.8531 72.1328 69.0595ZM88.4621 72.7411C88.0197 73.5702 87.4339 74.3508 86.7047 75.0829C87.112 75.1001 87.4858 75.085 87.8263 75.0378L92.6473 74.3689C92.8949 73.9928 93.0754 73.7969 93.1889 73.7811C93.3127 73.7639 93.6394 73.9395 94.169 74.3077C94.4408 74.4856 94.5846 74.6313 94.6003 74.7448C94.6125 74.8325 94.4963 74.9616 94.2518 75.1323C94.2705 76.7071 94.2235 77.7706 94.1108 78.3225C93.9886 78.8443 93.7592 79.1995 93.4225 79.3881C93.1995 79.5242 92.8327 79.6277 92.3219 79.6986C92.1259 79.7258 91.9982 79.7146 91.9387 79.665C91.8961 79.6236 91.8315 79.4985 91.7447 79.2897C91.6425 79.0462 91.4598 78.8664 91.1966 78.7505C90.9613 78.6464 90.5812 78.5598 90.0563 78.4906C90.0136 78.4861 89.9866 78.4425 89.9751 78.3599C89.9629 78.2722 89.9782 78.2307 90.0209 78.2353C90.927 78.2095 91.6251 78.1626 92.1152 78.0946C92.3628 78.0602 92.5278 77.9795 92.61 77.8524C92.6841 77.7422 92.7414 77.5292 92.7817 77.2134C92.8447 76.5684 92.8425 75.7379 92.7752 74.7219L90.1132 75.0912C89.9931 76.7274 89.4395 78.0241 88.4523 78.9813C87.5849 79.8168 86.2577 80.5215 84.4707 81.0954C84.4006 81.1209 84.357 81.0718 84.3398 80.9479C84.3355 80.917 84.3429 80.8949 84.3621 80.8817C85.9026 80.0844 86.9829 79.2299 87.6031 78.3183C88.1492 77.5169 88.4571 76.5146 88.5268 75.3113L87.9232 75.395C87.5879 75.4415 87.2299 75.5333 86.8493 75.6702L86.6282 75.1567C85.7556 75.9928 84.7078 76.7403 83.4846 77.399C83.4794 77.3997 83.4743 77.4004 83.4691 77.4011C83.3917 77.4119 83.3452 77.3605 83.3294 77.247C83.3259 77.2212 83.3311 77.2021 83.3451 77.1896C84.9198 75.9563 86.1069 74.5454 86.9067 72.9569L84.2911 73.3198C83.9815 73.3627 83.6015 73.447 83.1509 73.5726L82.8924 73.0169C83.3734 73.0343 83.8124 73.0155 84.2097 72.9604L87.0961 72.5599C87.3934 71.8982 87.6416 71.1671 87.8408 70.3665L84.9079 70.7733C84.5984 70.8163 84.2184 70.9006 83.7678 71.0262L83.5093 70.4705C83.9696 70.4908 84.4035 70.4726 84.8111 70.4161L87.9296 69.9834C88.0337 69.5589 88.1196 69.079 88.1874 68.5437C88.305 67.4968 88.3186 66.5905 88.2282 65.8248C89.176 65.8721 89.7846 65.9191 90.054 65.9659C90.2865 66.0125 90.4096 66.0848 90.4232 66.1828C90.4461 66.3479 90.2775 66.5159 89.9174 66.6868C89.8622 67.7672 89.7335 68.792 89.5315 69.7612L91.1024 69.5433C91.3194 69.061 91.571 68.3162 91.8572 67.309C91.9998 66.8212 92.1009 66.3366 92.1603 65.8551C93.0137 66.0943 93.5743 66.2689 93.842 66.379C94.0707 66.4734 94.1914 66.5671 94.2043 66.66C94.2322 66.8612 94.0037 66.9954 93.5188 67.0627C92.8855 68.1075 92.2374 68.9126 91.5744 69.4778L93.6406 69.1911C94.1444 68.464 94.4582 68.0918 94.582 68.0746C94.6852 68.0603 95.0539 68.2353 95.6881 68.5995C96.0172 68.8115 96.1878 68.9613 96.2 69.049C96.2143 69.1522 96.1544 69.2131 96.0203 69.2317L91.029 69.9242C91.4425 70.5924 91.9964 71.2123 92.6909 71.7837L94.7339 71.5003C95.2969 70.7071 95.6377 70.3022 95.7564 70.2858C95.8595 70.2715 96.2521 70.4668 96.934 70.8717C97.2845 71.086 97.4661 71.2396 97.479 71.3324C97.4933 71.4356 97.436 71.4961 97.307 71.514L93.1206 72.0948C93.3262 72.2503 93.5793 72.4072 93.8799 72.5653C95.1631 73.2864 96.5739 73.677 98.1123 73.737C98.144 73.7378 98.1627 73.7589 98.1684 73.8002C98.1784 73.8724 98.1584 73.9172 98.1082 73.9347C97.8493 74.039 97.6748 74.1841 97.585 74.3701C97.5033 74.5392 97.4402 74.824 97.3959 75.2245C97.3759 75.4218 97.3118 75.528 97.2035 75.543C97.1106 75.5559 96.9079 75.4973 96.5954 75.3671C95.4076 74.9167 94.2954 74.2717 93.2588 73.4323C92.8771 73.1066 92.488 72.7084 92.0914 72.2376L88.4621 72.7411ZM88.667 72.342L91.832 71.9029C91.4906 71.4507 91.0991 70.8083 90.6576 69.9757L89.4426 70.1442C89.2138 70.9963 88.9552 71.7288 88.667 72.342ZM86.8207 68.5283C86.9145 69.2041 86.6724 69.5821 86.0946 69.6622C85.7748 69.7066 85.5315 69.488 85.3648 69.0063C85.0333 68.0953 84.6786 67.4715 84.3006 67.1348C84.2882 67.1207 84.2809 67.106 84.2787 67.0905C84.2651 66.9925 84.3062 66.9473 84.4019 66.9551C85.8906 67.1114 86.6969 67.6358 86.8207 68.5283Z" fill="#81A2B4"/>
<defs>
<linearGradient id="paint0_linear_14_452" x1="76.25" y1="0.5" x2="76.25" y2="50.5001" gradientUnits="userSpaceOnUse">
<stop stop-color="#F3E177" stop-opacity="0"/>
<stop offset="1" stop-color="#F3E177"/>
</linearGradient>
<linearGradient id="paint1_linear_14_452" x1="129.492" y1="24.1369" x2="94.1369" y2="59.4924" gradientUnits="userSpaceOnUse">
<stop stop-color="#F3E177" stop-opacity="0"/>
<stop offset="1" stop-color="#F3E177"/>
</linearGradient>
<linearGradient id="paint2_linear_14_452" x1="150.427" y1="78.4988" x2="100.426" y2="78.4988" gradientUnits="userSpaceOnUse">
<stop stop-color="#F3E177" stop-opacity="0"/>
<stop offset="1" stop-color="#F3E177"/>
</linearGradient>
<linearGradient id="paint3_linear_14_452" x1="130.492" y1="129.492" x2="95.1369" y2="94.137" gradientUnits="userSpaceOnUse">
<stop stop-color="#F3E177" stop-opacity="0"/>
<stop offset="1" stop-color="#F3E177"/>
</linearGradient>
<linearGradient id="paint4_linear_14_452" x1="76.75" y1="147" x2="76.75" y2="96.9999" gradientUnits="userSpaceOnUse">
<stop stop-color="#F3E177" stop-opacity="0"/>
<stop offset="1" stop-color="#F3E177"/>
</linearGradient>
<linearGradient id="paint5_linear_14_452" x1="24.1369" y1="131.492" x2="59.4924" y2="96.137" gradientUnits="userSpaceOnUse">
<stop stop-color="#F3E177" stop-opacity="0"/>
<stop offset="1" stop-color="#F3E177"/>
</linearGradient>
<linearGradient id="paint6_linear_14_452" x1="0" y1="76.75" x2="50.0001" y2="76.75" gradientUnits="userSpaceOnUse">
<stop stop-color="#F3E177" stop-opacity="0"/>
<stop offset="1" stop-color="#F3E177"/>
</linearGradient>
<linearGradient id="paint7_linear_14_452" x1="21.8882" y1="21.4341" x2="57.2436" y2="56.7895" gradientUnits="userSpaceOnUse">
<stop stop-color="#F3E177" stop-opacity="0"/>
<stop offset="1" stop-color="#F3E177"/>
</linearGradient>
<linearGradient id="paint8_linear_14_452" x1="30" y1="53" x2="25.5" y2="63.5" gradientUnits="userSpaceOnUse">
<stop stop-color="#C1433F"/>
<stop offset="0.298077" stop-color="#F2886D"/>
<stop offset="1" stop-color="#C1433F"/>
</linearGradient>
<linearGradient id="paint9_linear_14_452" x1="22.5" y1="68" x2="15" y2="77" gradientUnits="userSpaceOnUse">
<stop stop-color="#C1433F"/>
<stop offset="0.701923" stop-color="#F2886D"/>
<stop offset="1" stop-color="#C1433F"/>
</linearGradient>
<linearGradient id="paint10_linear_14_452" x1="24.7791" y1="88.9996" x2="24.7791" y2="66.6101" gradientUnits="userSpaceOnUse">
<stop stop-color="#C1433F"/>
<stop offset="0.298077" stop-color="#F2886D"/>
<stop offset="1" stop-color="#C1433F"/>
</linearGradient>
<linearGradient id="paint11_linear_14_452" x1="46.4861" y1="63.5497" x2="23" y2="63.5497" gradientUnits="userSpaceOnUse">
<stop stop-color="#C1433F"/>
<stop offset="0.298077" stop-color="#F2886D"/>
<stop offset="1" stop-color="#C1433F"/>
</linearGradient>
<linearGradient id="paint12_linear_14_452" x1="27" y1="68" x2="22" y2="64.5" gradientUnits="userSpaceOnUse">
<stop stop-color="#C1433F"/>
<stop offset="0.701923" stop-color="#F2886D"/>
<stop offset="1" stop-color="#C1433F"/>
</linearGradient>
<linearGradient id="paint13_linear_14_452" x1="128" y1="76" x2="112" y2="97.5" gradientUnits="userSpaceOnUse">
<stop stop-color="#C1433F"/>
<stop offset="0.298077" stop-color="#F2886D"/>
<stop offset="1" stop-color="#C1433F"/>
</linearGradient>
</defs>
</svg>
