<svg width="69" height="75" viewBox="0 0 69 75" fill="none" xmlns="http://www.w3.org/2000/svg">
<path d="M61.3874 44.2226C61.7914 44.6083 61.8276 44.9749 61.4959 45.3225C61.388 45.4355 61.1003 45.6605 60.633 45.9974C60.1195 46.3713 59.784 46.6181 59.6266 46.7378C58.7769 47.3848 58.0944 47.9781 57.5793 48.5178C57.3905 48.7156 57.2331 48.8975 57.1071 49.0634C57.0127 49.1623 56.8793 49.1295 56.707 48.965C56.6476 48.9083 56.649 48.8475 56.711 48.7825C56.8655 48.6546 57.0385 48.4903 57.23 48.2897C57.7802 47.7133 58.3356 47.0041 58.8962 46.1622C58.9203 46.1312 59.1872 45.7271 59.6968 44.9499C59.9744 44.5291 60.1657 44.2635 60.2709 44.1533C60.6027 43.8057 60.9748 43.8288 61.3874 44.2226ZM56.1679 49.6655C56.3375 49.8273 56.4195 50.0271 56.414 50.2648C56.4078 50.475 56.3346 50.6535 56.1944 50.8004C56.0379 50.9643 55.8381 51.0436 55.5948 51.0382C55.382 51.0348 55.2035 50.9644 55.0594 50.8269C54.8899 50.665 54.8092 50.4611 54.8172 50.215C54.8262 50.0076 54.8981 49.8332 55.033 49.6919C55.1975 49.5196 55.3987 49.4361 55.6364 49.4416C55.841 49.4479 56.0182 49.5225 56.1679 49.6655Z" fill="#EB5018"/>
<path d="M49.1666 40.88C49.4645 41.3465 49.7305 41.8073 49.9647 42.2626C50.1929 42.6993 50.3678 43.1201 50.4894 43.525C50.7434 44.3329 50.7572 44.8984 50.5307 45.2214C50.4163 45.3845 50.2737 45.4825 50.1028 45.5153C49.9536 45.5443 49.8215 45.5184 49.7063 45.4377C49.4473 45.256 49.3227 45.0017 49.3325 44.6746C49.352 43.6196 49.3134 42.865 49.2168 42.4108C49.1013 41.8814 48.9523 41.4 48.7696 40.9665C47.5793 41.2149 46.3257 41.2948 45.0089 41.2064C44.1696 41.1379 43.4282 41.0045 42.7848 40.8062C42.6729 40.7754 42.5881 40.7398 42.5305 40.6994C42.4665 40.6546 42.4548 40.6033 42.4951 40.5458C42.531 40.4946 42.5792 40.4735 42.6397 40.4825C43.4902 40.5827 44.2985 40.6104 45.0646 40.5656C45.7364 40.5261 46.5098 40.4268 47.3848 40.2675C48.4788 40.0613 49.7529 39.6594 51.2072 39.0619C51.286 39.0312 51.3321 39.0063 51.3455 38.9871C51.3612 38.9647 51.3467 38.9378 51.3019 38.9064C51.2859 38.8952 51.264 38.8822 51.2362 38.8675C50.4423 38.4348 49.5678 38.0149 48.6129 37.6077C48.3682 37.5077 48.1809 37.455 48.051 37.4498C47.8737 37.4305 47.7339 37.3849 47.6315 37.3131C47.4396 37.1786 47.3282 36.8714 47.2972 36.3917C47.283 36.1194 47.3623 35.8601 47.535 35.6138C47.6538 35.4443 47.7564 35.3898 47.8428 35.4504C47.8652 35.4661 47.8819 35.5374 47.893 35.6645C47.929 35.933 47.9744 36.1199 48.0294 36.2253C48.0802 36.3229 48.1743 36.4199 48.3119 36.5164C48.4238 36.5949 48.6851 36.7495 49.0958 36.9802C49.7849 37.3584 50.5711 37.7714 51.4546 38.2191C51.6603 38.3204 51.8251 38.3644 51.9489 38.3511C52.0805 38.3336 52.2006 38.3629 52.3094 38.4392C52.4501 38.5379 52.5627 38.7481 52.6473 39.0697C52.7541 39.5025 52.7627 39.7828 52.673 39.9107C52.5855 40.0355 52.4084 40.0568 52.1416 39.9746C52.0651 39.9544 51.9307 39.9794 51.7383 40.0497C50.6832 40.4453 49.826 40.7221 49.1666 40.88Z" fill="#EB5018"/>
<path d="M35.5187 35.739C35.6348 35.795 35.8526 35.8111 36.172 35.7872C37.6081 35.6686 38.9484 35.443 40.1927 35.1105C41.5324 34.7242 42.8027 34.2525 44.0037 33.6952C44.087 33.6573 44.148 33.6477 44.1867 33.6664C44.2606 33.702 44.2823 33.7515 44.2517 33.8148C44.228 33.8641 44.1772 33.9155 44.0993 33.969C42.904 34.7935 41.6677 35.4421 40.3905 35.9148C39.073 36.3899 37.7044 36.7688 36.2846 37.0514C36.1382 37.0762 36.0034 37.1175 35.8802 37.1752C35.6669 37.2848 35.4811 37.3015 35.3227 37.2252C35.1362 37.1353 34.9824 36.892 34.8614 36.4955C34.6637 35.8711 34.6225 35.4393 34.7378 35.2C34.8701 34.9255 34.9943 34.8163 35.1104 34.8723C35.1421 34.8875 35.1755 34.9622 35.2106 35.0962C35.3386 35.4874 35.4413 35.7017 35.5187 35.739ZM36.9829 30.259C36.9472 30.2071 36.9404 30.1583 36.9625 30.1125C36.9896 30.0562 37.0383 30.045 37.1087 30.079C37.1756 30.1112 37.2425 30.1478 37.3095 30.1887C37.7857 30.4963 38.1753 30.8619 38.4785 31.2856C38.844 31.7957 38.9182 32.276 38.7011 32.7264C38.6078 32.9199 38.4699 33.0442 38.2872 33.0992C38.1323 33.1417 37.9775 33.1256 37.8227 33.0509C37.5799 32.9339 37.4684 32.7154 37.4882 32.3954C37.5031 32.0947 37.4764 31.7631 37.4083 31.4007C37.3122 30.9164 37.1704 30.5358 36.9829 30.259Z" fill="#EB5018"/>
<path d="M27.5228 30.2143C27.9274 30.2166 28.374 30.2062 28.8626 30.183C29.4167 30.1577 29.698 30.1442 29.7066 30.1425C29.8772 30.141 30.0164 30.1065 30.1242 30.039C30.2443 29.9708 30.3608 29.9524 30.4738 29.9835C30.6508 30.0324 30.8836 30.2385 31.1723 30.6019C31.3655 30.8416 31.4402 31.0406 31.3966 31.1987C31.3519 31.3606 31.2132 31.4298 30.9807 31.4061C30.8673 31.391 30.7684 31.4042 30.684 31.4457C29.9582 31.8289 29.2465 32.1389 28.5489 32.3759C28.3473 32.4458 28.2144 32.472 28.1504 32.4543C28.0977 32.4397 28.0776 32.4099 28.0901 32.3647C28.1046 32.312 28.1778 32.2451 28.3096 32.1639C28.8539 31.7631 29.4013 31.2922 29.9518 30.7512C29.9635 30.7382 29.9709 30.7261 29.9741 30.7148C29.9782 30.6997 29.969 30.6891 29.9464 30.6829C29.9389 30.6808 29.9308 30.6806 29.9223 30.6823C29.8294 30.6809 29.0319 30.6999 27.5299 30.739C27.4918 31.5228 27.4727 31.9369 27.4725 31.9814C27.4692 32.1548 27.4669 32.4054 27.4655 32.7333C27.4593 33.4164 27.4539 33.9275 27.4494 34.2667C27.4554 34.6412 27.4403 34.8943 27.4039 35.0261C27.3737 35.1353 27.2923 35.2101 27.1596 35.2504C27.0536 35.282 26.9441 35.2821 26.8312 35.2509C26.594 35.1854 26.4791 35.0585 26.4865 34.8701L26.6637 31.8067C26.6719 31.5861 26.6872 31.2297 26.7097 30.7375C25.9411 30.7765 25.3736 30.8285 25.0071 30.8935C24.8384 30.932 24.7392 30.9613 24.7093 30.9815C24.6036 31.0414 24.4983 31.063 24.3936 31.0462C24.2135 31.0087 24.0424 30.8358 23.8803 30.5276C23.6993 30.2143 23.639 29.9484 23.6993 29.73C23.7398 29.5832 23.7978 29.5201 23.8731 29.5409C23.8919 29.5461 23.9334 29.5941 23.9975 29.6847C24.1396 29.9185 24.303 30.0608 24.4875 30.1117C24.6418 30.1544 24.7891 30.1788 24.9292 30.1851C25.4369 30.1956 26.0339 30.1983 26.7201 30.1933C26.7297 29.8798 26.7389 29.4427 26.7479 28.8819C26.7492 28.789 26.7408 28.6652 26.7228 28.5102C26.7095 28.3971 26.658 28.312 26.5684 28.2549C26.4864 28.1998 26.3644 28.1499 26.2025 28.1052C26.1234 28.0834 26.0901 28.0499 26.1026 28.0047C26.1244 27.9256 26.2062 27.857 26.3478 27.7988C26.4964 27.7305 26.6422 27.716 26.7853 27.7555C26.9832 27.802 27.2363 27.9347 27.5446 28.1536C27.8157 28.346 27.9315 28.5137 27.892 28.6568C27.8681 28.7434 27.825 28.8186 27.7628 28.8825C27.7219 28.9279 27.6851 28.9806 27.6524 29.0404C27.6423 29.062 27.6347 29.0822 27.6295 29.101C27.6192 29.1386 27.6102 29.1929 27.6028 29.2638C27.5827 29.469 27.556 29.7858 27.5228 30.2143Z" fill="#EB5018"/>
<path d="M17.4737 23.4043C17.7833 23.4465 18.1229 23.6308 18.4923 23.9571C18.8301 24.2555 18.9847 24.5092 18.9562 24.7182C18.9256 24.9427 18.765 25.0509 18.4744 25.0428C18.3639 25.0435 18.2504 25.0517 18.1339 25.0673C17.0903 25.2325 16.1972 25.3492 15.4546 25.4175C14.3438 25.5262 13.4468 25.5418 12.7634 25.4644C12.6202 25.4449 12.5534 25.4003 12.5629 25.3306C12.5692 25.2842 12.643 25.2489 12.7843 25.2248C13.7818 25.1085 14.617 24.9681 15.29 24.8037C15.9735 24.6485 16.6221 24.4452 17.2359 24.1938C17.415 24.1236 17.5096 24.0518 17.5196 23.9782C17.5286 23.9124 17.4259 23.7979 17.2117 23.6346C17.1395 23.5854 17.1056 23.5453 17.1098 23.5143C17.1146 23.4795 17.1602 23.4482 17.2468 23.4206C17.3245 23.3997 17.4002 23.3942 17.4737 23.4043ZM16.9577 27.231C17.8066 27.2797 18.3829 27.3031 18.6868 27.3012C18.8089 27.3021 18.968 27.2627 19.1641 27.183C19.2848 27.1364 19.44 27.126 19.6296 27.1518C19.8812 27.1862 20.1663 27.3216 20.4849 27.5583C20.6969 27.7094 20.7889 27.8875 20.7609 28.0926C20.7298 28.321 20.5923 28.4186 20.3485 28.3853C20.1975 28.3647 20.0327 28.3304 19.8539 28.2824C19.3559 28.1474 18.9482 28.0583 18.6308 28.015C18.116 27.9448 17.5224 27.8895 16.8498 27.849C16.5765 29.1009 16.1072 30.1427 15.4419 30.9745C14.6871 31.9124 13.7127 32.5384 12.5187 32.8526C12.3516 32.8929 12.2486 32.9104 12.2099 32.9051C12.1209 32.893 12.0801 32.8598 12.0875 32.8056C12.0938 32.7592 12.206 32.6739 12.424 32.5499C13.3173 32.041 14.0555 31.3689 14.6386 30.5338C15.1685 29.7703 15.5372 28.8448 15.7446 27.7574C14.4032 27.7361 13.5254 27.7544 13.1115 27.8123C12.9023 27.8429 12.7594 27.8786 12.6829 27.9194C12.5751 27.9875 12.4515 28.012 12.3121 27.993C12.0915 27.9629 11.8333 27.7463 11.5374 27.3433C11.3618 27.0986 11.2906 26.8543 11.3239 26.6105C11.3445 26.4595 11.3896 26.3888 11.4593 26.3983C11.4941 26.403 11.563 26.4617 11.6659 26.5743C11.9106 26.8324 12.1491 26.9773 12.3813 27.009C12.5826 27.0364 12.8072 27.0513 13.0553 27.0536C13.2083 27.0587 13.4537 27.0665 13.7913 27.0771C14.6118 27.1022 15.3033 27.1197 15.8657 27.1293C15.8983 26.9485 15.9307 26.74 15.9629 26.5039C15.9919 26.2911 15.9548 26.1441 15.8515 26.063C15.7405 25.9808 15.6123 25.9239 15.4668 25.8922C15.3716 25.8674 15.3266 25.8356 15.3319 25.7969C15.3393 25.7428 15.3917 25.6908 15.4892 25.641C15.6379 25.5627 15.8148 25.5375 16.0199 25.5655C16.4843 25.6289 16.8398 25.7542 17.0863 25.9416C17.2478 26.0582 17.3177 26.1959 17.2961 26.3546C17.285 26.4359 17.2394 26.5243 17.1594 26.6198C17.1029 26.687 17.0606 26.766 17.0324 26.8568C17.0243 26.8872 16.9994 27.0119 16.9577 27.231Z" fill="#EB5018"/>
<path d="M53.5234 56.6543L66.9216 49.9099L68.7201 53.4828L66.8061 54.4463L54.0372 57.6751L53.5234 56.6543Z" fill="#EB5018"/>
<path d="M6.95537 35.3137L0.210983 21.9154L3.78385 20.1169L4.74734 22.0309L7.97619 34.7998L6.95537 35.3137Z" fill="#EB5018"/>
</svg>
