<svg width="59" height="47" viewBox="0 0 59 47" fill="none" xmlns="http://www.w3.org/2000/svg">
<path d="M47.4316 2.38611C47.9578 2.19859 48.3016 2.33113 48.4628 2.78372C48.5153 2.9309 48.5869 3.28897 48.6777 3.85791C48.7808 4.48467 48.8504 4.89528 48.8865 5.08975C49.0824 6.13963 49.3055 7.01596 49.556 7.71876C49.6477 7.97633 49.7394 8.19869 49.831 8.38584C49.8769 8.51463 49.7876 8.61902 49.5632 8.699C49.4859 8.72654 49.4322 8.69799 49.402 8.61336C49.3572 8.41784 49.2883 8.18945 49.1952 7.9282C48.9277 7.17756 48.5439 6.3626 48.044 5.48332C48.0272 5.44783 47.7863 5.02777 47.3212 4.22314C47.07 3.78599 46.9189 3.49567 46.8677 3.35216C46.7065 2.89957 46.8944 2.57755 47.4316 2.38611ZM49.9465 9.49544C50.1673 9.41676 50.3826 9.43333 50.5925 9.54515C50.7774 9.64513 50.904 9.79078 50.9721 9.98212C51.0482 10.1955 51.0291 10.4097 50.9149 10.6245C50.8163 10.8131 50.6731 10.9409 50.4855 11.0077C50.2647 11.0864 50.0462 11.0668 49.83 10.949C49.6488 10.8477 49.5254 10.705 49.4598 10.5211C49.3798 10.2966 49.3958 10.0794 49.5076 9.86957C49.6052 9.68965 49.7515 9.56494 49.9465 9.49544Z" fill="#EB5018"/>
<path d="M38.9512 11.799C39.5019 11.7427 40.0331 11.7123 40.5451 11.7078C41.0377 11.7003 41.4922 11.7334 41.9085 11.8068C42.7444 11.9431 43.2557 12.185 43.4424 12.5326C43.5367 12.7081 43.5601 12.8796 43.5125 13.047C43.4714 13.1933 43.3888 13.2997 43.265 13.3662C42.9862 13.5159 42.703 13.5129 42.4153 13.357C41.4816 12.8653 40.7903 12.5605 40.3411 12.4425C39.8164 12.3076 39.3194 12.2243 38.85 12.1926C38.5367 13.3675 38.0444 14.5231 37.3734 15.6595C36.9348 16.3784 36.4823 16.9806 36.0159 17.4662C35.9381 17.5523 35.8681 17.612 35.8062 17.6453C35.7374 17.6823 35.6863 17.6698 35.6531 17.6079C35.6235 17.5528 35.6263 17.5003 35.6616 17.4503C36.1335 16.7357 36.5217 16.0261 36.8261 15.3216C37.0929 14.7039 37.3519 13.9684 37.603 13.1152C37.9107 12.0453 38.1247 10.7265 38.2448 9.15886C38.2528 9.07473 38.2513 9.02235 38.2402 9.0017C38.2272 8.97761 38.1967 8.97851 38.1485 9.00438C38.1313 9.01363 38.1099 9.02736 38.0842 9.04559C37.3408 9.5602 36.5725 10.1524 35.7795 10.8223C35.5801 10.9959 35.4488 11.1396 35.3857 11.2533C35.2888 11.4029 35.1852 11.5073 35.0751 11.5665C34.8686 11.6774 34.5442 11.6388 34.1017 11.4508C33.8521 11.341 33.6561 11.1536 33.5138 10.8886C33.4158 10.7062 33.4133 10.5901 33.5062 10.5402C33.5303 10.5273 33.6016 10.5444 33.7201 10.5916C33.9761 10.6802 34.1635 10.7237 34.2823 10.7219C34.3923 10.7205 34.5213 10.68 34.6693 10.6005C34.7897 10.5358 35.0454 10.3719 35.4361 10.1088C36.0837 9.66342 36.8061 9.1468 37.6033 8.55896C37.7863 8.42078 37.8996 8.29338 37.9434 8.17675C37.9869 8.05139 38.0672 7.95729 38.1842 7.89444C38.3356 7.81311 38.574 7.807 38.8993 7.87612C39.3339 7.97525 39.5881 8.09364 39.6621 8.23129C39.7342 8.3655 39.6735 8.5333 39.4802 8.7347C39.4278 8.79391 39.3897 8.92523 39.3659 9.12865C39.2449 10.249 39.1067 11.1391 38.9512 11.799Z" fill="#EB5018"/>
<path d="M28.2228 21.678C28.325 21.5995 28.4372 21.4122 28.5595 21.1162C29.0993 19.7801 29.5004 18.4815 29.7629 17.2205C30.0203 15.8502 30.17 14.5034 30.2122 13.1802C30.2159 13.0887 30.2347 13.0299 30.2688 13.0037C30.3338 12.9537 30.3877 12.9566 30.4306 13.0124C30.4639 13.0557 30.487 13.1242 30.4998 13.2178C30.6988 14.6562 30.7223 16.0521 30.5703 17.4056C30.4023 18.7959 30.1253 20.1887 29.7394 21.584C29.6957 21.7259 29.672 21.8649 29.6681 22.0009C29.6701 22.2407 29.6015 22.4142 29.4621 22.5213C29.2979 22.6475 29.0115 22.6755 28.6029 22.6053C27.9563 22.5012 27.5521 22.3438 27.3902 22.1332C27.2045 21.8916 27.1628 21.7315 27.265 21.653C27.2929 21.6316 27.3746 21.6353 27.5101 21.6642C27.9171 21.7258 28.1546 21.7304 28.2228 21.678ZM23.9862 17.9062C23.9238 17.9148 23.8772 17.8989 23.8462 17.8586C23.8081 17.8091 23.8201 17.7605 23.882 17.7129C23.9409 17.6677 24.0036 17.6243 24.0703 17.5829C24.5592 17.2959 25.061 17.1122 25.5757 17.032C26.1957 16.9348 26.658 17.0844 26.9627 17.4809C27.0936 17.6512 27.1426 17.8303 27.1097 18.0182C27.0779 18.1757 26.9939 18.3067 26.8576 18.4115C26.6439 18.5757 26.3986 18.577 26.1217 18.4155C25.8598 18.267 25.5516 18.1417 25.1973 18.0396C24.7215 17.9077 24.3178 17.8632 23.9862 17.9062Z" fill="#EB5018"/>
<path d="M19.6928 26.3361C19.8768 25.9757 20.0683 25.5721 20.2673 25.1253C20.4938 24.619 20.6083 24.3616 20.6106 24.3532C20.686 24.2001 20.7177 24.0603 20.7059 23.9337C20.6991 23.7957 20.735 23.6833 20.8136 23.5964C20.9368 23.4603 21.2256 23.345 21.68 23.2505C21.981 23.1858 22.1923 23.2085 22.3139 23.3186C22.4385 23.4313 22.4379 23.5862 22.3121 23.7833C22.2477 23.8778 22.215 23.972 22.2142 24.0661C22.2301 24.8867 22.187 25.6618 22.085 26.3914C22.0568 26.603 22.0204 26.7334 21.9759 26.7827C21.9392 26.8232 21.9034 26.8277 21.8687 26.7963C21.8281 26.7596 21.8013 26.6641 21.7881 26.5099C21.6748 25.8435 21.5003 25.1428 21.2646 24.4078C21.2583 24.3916 21.2508 24.3795 21.2421 24.3716C21.2305 24.3611 21.2168 24.3646 21.2011 24.3819C21.1959 24.3877 21.1921 24.3948 21.1897 24.4033C21.1468 24.4856 20.8051 25.2064 20.1647 26.5657C20.8476 26.9521 21.209 27.1554 21.2487 27.1755C21.4021 27.2564 21.6249 27.3712 21.9171 27.5198C22.5245 27.8326 22.9786 28.0672 23.2795 28.2237C23.6167 28.3867 23.836 28.5141 23.9374 28.6058C24.0214 28.6819 24.0515 28.7882 24.0279 28.9249C24.0084 29.0337 23.9594 29.1316 23.8807 29.2184C23.7156 29.4009 23.5505 29.4464 23.3856 29.3551L20.729 27.8195C20.5356 27.7129 20.2242 27.539 19.7946 27.2976C19.4839 28.0017 19.2751 28.532 19.1684 28.8885C19.127 29.0565 19.1085 29.1583 19.1131 29.1941C19.1191 29.3155 19.0911 29.4192 19.029 29.5052C18.9145 29.6492 18.6831 29.7243 18.335 29.7305C17.9737 29.7513 17.7091 29.6856 17.5412 29.5336C17.4282 29.4313 17.398 29.3512 17.4504 29.2933C17.4635 29.2788 17.525 29.2633 17.6348 29.2468C17.9075 29.225 18.108 29.1431 18.2365 29.0012C18.344 28.8825 18.432 28.7619 18.5006 28.6396C18.7383 28.1908 19.0091 27.6588 19.3132 27.0436C19.0375 26.8941 18.6512 26.6893 18.1543 26.4292C18.072 26.3862 17.9576 26.338 17.8111 26.2844C17.7041 26.2455 17.6049 26.2532 17.5135 26.3075C17.4275 26.3561 17.3281 26.4426 17.2153 26.5671C17.1603 26.6279 17.1154 26.6426 17.0806 26.6111C17.0198 26.5561 16.9953 26.4522 17.0071 26.2995C17.0128 26.1361 17.0654 25.9993 17.165 25.8893C17.2956 25.7335 17.5279 25.567 17.862 25.39C18.1557 25.2344 18.3576 25.2064 18.4677 25.306C18.5343 25.3663 18.5821 25.4386 18.6112 25.5229C18.6334 25.5798 18.6638 25.6364 18.7026 25.6926C18.7173 25.7112 18.732 25.727 18.7464 25.7402C18.7754 25.7664 18.8199 25.7987 18.8799 25.8372C19.054 25.9475 19.325 26.1138 19.6928 26.3361Z" fill="#EB5018"/>
<path d="M9.09162 32.2501C9.26856 31.9925 9.58584 31.7721 10.0435 31.5888C10.4618 31.4212 10.758 31.3972 10.9318 31.5166C11.1186 31.6449 11.143 31.837 11.0051 32.093C10.9561 32.192 10.9123 32.297 10.874 32.4081C10.5523 33.4145 10.2549 34.2647 9.98202 34.9587C9.57966 35.9998 9.19029 36.8081 8.8139 37.3836C8.73207 37.5028 8.66218 37.5424 8.60422 37.5026C8.56558 37.4761 8.56726 37.3943 8.60925 37.2573C8.95391 36.314 9.20406 35.5048 9.35971 34.8298C9.52843 34.1495 9.63852 33.4788 9.68996 32.8175C9.70779 32.6259 9.68611 32.5091 9.62494 32.4671C9.5702 32.4295 9.42175 32.4697 9.17957 32.5877C9.10314 32.63 9.05204 32.6423 9.02628 32.6246C8.9973 32.6047 8.98994 32.5499 9.00419 32.4601C9.02045 32.3813 9.0496 32.3112 9.09162 32.2501ZM12.2777 34.4315C12.7029 33.6952 12.983 33.191 13.1178 32.9187C13.1735 32.81 13.2099 32.6502 13.2269 32.4391C13.2395 32.3104 13.3 32.1671 13.4084 32.0093C13.5522 31.8001 13.8013 31.6063 14.156 31.4281C14.3863 31.3067 14.5867 31.3046 14.7574 31.4219C14.9474 31.5524 14.9727 31.719 14.8333 31.9219C14.7471 32.0474 14.6423 32.1793 14.519 32.3173C14.1746 32.7015 13.9116 33.0256 13.7303 33.2896C13.4361 33.7179 13.1198 34.2233 12.7812 34.8058C13.7766 35.6128 14.4961 36.5004 14.9399 37.4687C15.4383 38.5646 15.5594 39.7164 15.3031 40.9242C15.264 41.0916 15.2333 41.1914 15.2112 41.2236C15.1603 41.2976 15.1124 41.3192 15.0673 41.2882C15.0286 41.2617 15.0029 41.1232 14.9902 40.8727C14.9373 39.8459 14.6689 38.8843 14.1851 37.9881C13.7414 37.1714 13.0805 36.426 12.2025 35.7518C11.5803 36.9404 11.202 37.7326 11.0675 38.1284C11.0008 38.329 10.9685 38.4727 10.9705 38.5594C10.9829 38.6863 10.9492 38.8078 10.8696 38.9237C10.7435 39.1072 10.434 39.2405 9.94089 39.3236C9.64336 39.3704 9.39317 39.3241 9.19032 39.1848C9.06475 39.0985 9.02187 39.0264 9.06168 38.9684C9.08159 38.9395 9.16496 38.9043 9.31181 38.863C9.65237 38.7605 9.889 38.6126 10.0217 38.4194C10.1367 38.252 10.251 38.058 10.3646 37.8375C10.438 37.7031 10.5553 37.4875 10.7165 37.1906C11.1079 36.4691 11.4344 35.8592 11.6959 35.3612C11.549 35.2508 11.3774 35.1282 11.181 34.9933C11.0039 34.8716 10.8559 34.8387 10.737 34.8944C10.6137 34.9567 10.5052 35.0456 10.4115 35.1613C10.3466 35.2352 10.298 35.2611 10.2658 35.239C10.2207 35.208 10.1979 35.1378 10.1972 35.0283C10.1941 34.8604 10.2512 34.691 10.3684 34.5204C10.6338 34.134 10.9056 33.8729 11.1838 33.737C11.3606 33.6452 11.515 33.6446 11.647 33.7353C11.7146 33.7817 11.7731 33.8622 11.8224 33.9766C11.8571 34.0573 11.9086 34.1306 11.977 34.1966C12.0006 34.2175 12.1008 34.2958 12.2777 34.4315Z" fill="#EB5018"/>
<path d="M55 15V0H59V2.14286L56.1429 15H55Z" fill="#EB5018"/>
<path d="M15 47L0 47L5.56284e-07 43L2.14286 43L15 45.8571L15 47Z" fill="#EB5018"/>
</svg>
