<svg width="343" height="127" viewBox="0 0 343 127" fill="none" xmlns="http://www.w3.org/2000/svg">
<rect width="343" height="127" rx="6" fill="#ECDBAE"/>
<rect x="7" y="6" width="330" height="118" fill="#F3EED9"/>
<path d="M128.276 93.8965C128.3 94.6436 128.376 95.5054 128.503 96.4819C128.508 96.5015 128.51 96.521 128.51 96.5405C128.51 96.6089 128.464 96.6602 128.371 96.6943C128.332 96.7041 128.3 96.709 128.276 96.709C128.212 96.709 128.159 96.6626 128.115 96.5698C127.7 95.7349 127.26 95.1294 126.796 94.7534C126.215 94.2554 125.495 94.0063 124.636 94.0063C123.459 94.0063 122.49 94.5605 121.728 95.6689C121.069 96.6357 120.739 97.8076 120.739 99.1846C120.739 100.815 121.169 102.119 122.028 103.096C122.78 103.955 123.72 104.385 124.848 104.385C125.688 104.385 126.455 104.089 127.148 103.499C127.197 103.152 127.221 102.808 127.221 102.466C127.221 101.611 127.214 101.111 127.199 100.964C127.185 100.769 127.138 100.593 127.06 100.437C126.987 100.295 126.843 100.2 126.628 100.151C126.53 100.127 126.293 100.098 125.917 100.063C125.83 100.054 125.786 99.9902 125.786 99.873C125.786 99.751 125.83 99.6899 125.917 99.6899C126.855 99.729 127.556 99.7485 128.02 99.7485C128.371 99.7485 129.016 99.729 129.953 99.6899C130.031 99.6899 130.07 99.751 130.07 99.873C130.07 99.9902 130.031 100.054 129.953 100.063C129.611 100.103 129.399 100.137 129.316 100.166C129.199 100.21 129.101 100.3 129.023 100.437C128.911 100.706 128.854 101.311 128.854 102.253C128.854 103.254 128.886 103.997 128.95 104.48C128.95 104.548 128.894 104.583 128.781 104.583C128.503 104.543 128.195 104.524 127.858 104.524C127.614 104.524 127.187 104.587 126.577 104.714C125.854 104.856 125.195 104.927 124.599 104.927C122.69 104.927 121.196 104.331 120.117 103.14C119.184 102.114 118.718 100.803 118.718 99.2065C118.718 97.4146 119.345 95.9766 120.6 94.8926C121.689 93.96 123.037 93.4937 124.643 93.4937C125.214 93.4937 125.859 93.5889 126.577 93.7793C126.982 93.8818 127.353 93.9331 127.69 93.9331C127.866 93.9331 128.061 93.9209 128.276 93.8965ZM135.076 97.6025C136.16 97.6025 137.039 97.998 137.712 98.7891C138.293 99.4727 138.584 100.298 138.584 101.265C138.584 102.368 138.223 103.271 137.5 103.975C136.851 104.6 136.042 104.912 135.076 104.912C133.982 104.912 133.101 104.519 132.432 103.733C131.865 103.069 131.582 102.256 131.582 101.294C131.582 100.19 131.948 99.2798 132.681 98.562C133.33 97.9224 134.128 97.6025 135.076 97.6025ZM135.076 98.0493C134.485 98.0493 134.033 98.3984 133.721 99.0967C133.467 99.668 133.34 100.391 133.34 101.265C133.34 102.31 133.501 103.115 133.823 103.682C134.126 104.204 134.543 104.465 135.076 104.465C135.667 104.465 136.121 104.114 136.438 103.411C136.697 102.839 136.826 102.124 136.826 101.265C136.826 100.205 136.665 99.3945 136.343 98.833C136.04 98.3105 135.618 98.0493 135.076 98.0493ZM147.405 93.75C147.405 93.9795 147.457 94.8267 147.559 96.2915C147.559 96.3745 147.508 96.4258 147.405 96.4453C147.371 96.4502 147.342 96.4526 147.317 96.4526C147.254 96.4526 147.21 96.4185 147.186 96.3501C146.517 94.7681 145.611 93.9771 144.468 93.9771C143.912 93.9771 143.462 94.1699 143.121 94.5557C142.818 94.9023 142.667 95.3394 142.667 95.8667C142.667 96.604 143.226 97.2437 144.344 97.7856L145.149 98.1738C146.326 98.75 147.1 99.2749 147.471 99.7485C147.842 100.217 148.028 100.857 148.028 101.667C148.028 102.756 147.627 103.586 146.827 104.158C146.128 104.661 145.193 104.912 144.021 104.912C143.084 104.912 142.125 104.736 141.143 104.385C140.914 103.525 140.74 102.688 140.623 101.873C140.618 101.843 140.616 101.821 140.616 101.807C140.616 101.709 140.672 101.65 140.784 101.631C140.823 101.626 140.855 101.624 140.879 101.624C140.962 101.624 141.016 101.658 141.041 101.726C141.421 102.581 141.905 103.254 142.491 103.748C143.038 104.207 143.604 104.436 144.19 104.436C144.874 104.436 145.42 104.207 145.831 103.748C146.187 103.352 146.365 102.861 146.365 102.275C146.365 101.694 146.165 101.206 145.765 100.811C145.452 100.498 144.922 100.149 144.175 99.7632L143.428 99.375C142.466 98.8916 141.819 98.4082 141.487 97.9248C141.185 97.4805 141.033 96.9043 141.033 96.1963C141.033 95.3613 141.382 94.6875 142.081 94.1748C142.701 93.7207 143.472 93.4937 144.395 93.4937C144.844 93.4937 145.35 93.562 145.911 93.6987C146.165 93.7622 146.441 93.7939 146.739 93.7939C146.954 93.7939 147.176 93.7793 147.405 93.75ZM152.425 99.0161C152.977 98.0835 153.731 97.6172 154.688 97.6172C155.24 97.6172 155.714 97.7515 156.109 98.02C156.661 98.3862 156.937 98.9624 156.937 99.7485L156.908 101.448V102.466C156.908 103.374 156.942 103.899 157.01 104.041C157.054 104.153 157.157 104.226 157.318 104.26C157.376 104.275 157.55 104.297 157.838 104.326C157.916 104.341 157.955 104.399 157.955 104.502C157.955 104.614 157.911 104.67 157.823 104.67C157.804 104.67 157.499 104.661 156.908 104.641C156.595 104.631 156.344 104.626 156.153 104.626C155.929 104.626 155.631 104.631 155.26 104.641C154.815 104.661 154.554 104.67 154.476 104.67C154.378 104.67 154.33 104.614 154.33 104.502C154.33 104.395 154.374 104.336 154.461 104.326C154.754 104.297 154.935 104.27 155.003 104.246C155.116 104.211 155.194 104.143 155.238 104.041C155.311 103.904 155.348 103.606 155.348 103.147V102.466V100.422V100.085C155.348 99.7241 155.301 99.4116 155.208 99.1479C154.989 98.6353 154.61 98.3789 154.073 98.3789C153.512 98.3789 153.067 98.6646 152.74 99.2358C152.53 99.6167 152.425 100.017 152.425 100.437V102.466C152.425 103.379 152.455 103.904 152.513 104.041C152.557 104.143 152.652 104.214 152.799 104.253C152.896 104.277 153.077 104.302 153.341 104.326C153.438 104.336 153.487 104.39 153.487 104.487C153.487 104.609 153.438 104.67 153.341 104.67C153.307 104.67 153.016 104.661 152.469 104.641C152.176 104.631 151.937 104.626 151.751 104.626C151.527 104.626 151.214 104.631 150.814 104.641C150.326 104.661 150.042 104.67 149.964 104.67C149.886 104.67 149.847 104.609 149.847 104.487C149.847 104.395 149.886 104.341 149.964 104.326C150.267 104.297 150.453 104.27 150.521 104.246C150.638 104.211 150.719 104.143 150.763 104.041C150.841 103.87 150.88 103.345 150.88 102.466V95.6836C150.88 95.1123 150.86 94.707 150.821 94.4678C150.782 94.2285 150.633 94.1089 150.375 94.1089H150.323L149.906 94.1382C149.872 94.1382 149.85 94.1382 149.84 94.1382C149.776 94.1382 149.74 94.0771 149.73 93.9551C149.725 93.9111 149.723 93.8843 149.723 93.8745C149.723 93.811 149.774 93.7671 149.876 93.7427C150.643 93.6011 151.468 93.3838 152.352 93.0908C152.45 93.0908 152.499 93.1299 152.499 93.208C152.45 94.4385 152.425 95.6592 152.425 96.8701V99.0161ZM164.718 104.897C164.596 104.897 164.535 104.836 164.535 104.714C164.564 104.275 164.579 103.884 164.579 103.542C164.066 104.456 163.317 104.912 162.331 104.912C161.779 104.912 161.303 104.775 160.902 104.502C160.355 104.136 160.082 103.562 160.082 102.781L160.111 101.177V99.9902C160.111 99.3994 160.092 99.0137 160.053 98.833C159.989 98.5596 159.833 98.4302 159.584 98.4448L159.196 98.4595C159.113 98.4595 159.062 98.4521 159.042 98.4375C159.022 98.418 159.01 98.3691 159.005 98.291C159 98.252 158.998 98.2251 158.998 98.2104C158.998 98.1274 159.049 98.0811 159.152 98.0713C160.065 97.9492 160.871 97.8076 161.569 97.6465C161.686 97.6465 161.745 97.6978 161.745 97.8003C161.706 98.7524 161.686 99.6265 161.686 100.422V101.997C161.686 102.729 161.742 103.21 161.854 103.44C162.045 103.923 162.409 104.165 162.946 104.165C163.483 104.165 163.922 103.875 164.264 103.293C164.474 102.947 164.579 102.551 164.579 102.107V99.9902C164.579 99.5166 164.55 99.1357 164.491 98.8477C164.428 98.5645 164.271 98.4302 164.022 98.4448L163.62 98.4741H163.568C163.495 98.4741 163.454 98.4131 163.444 98.291C163.439 98.2422 163.437 98.2153 163.437 98.2104C163.437 98.1372 163.493 98.0933 163.605 98.0786C164.225 98.0054 165.011 97.8613 165.963 97.6465C166.071 97.6465 166.125 97.6929 166.125 97.7856C166.095 98.5132 166.081 99.3921 166.081 100.422V102.495C166.081 103.306 166.11 103.801 166.168 103.982C166.237 104.163 166.422 104.263 166.725 104.282L167.011 104.297C167.108 104.307 167.157 104.365 167.157 104.473C167.157 104.585 167.113 104.641 167.025 104.641C166.317 104.68 165.548 104.766 164.718 104.897ZM169.592 100.291C169.592 99.6802 169.567 99.2578 169.519 99.0234C169.455 98.8184 169.309 98.7158 169.079 98.7158C169.03 98.7158 168.991 98.7158 168.962 98.7158L168.574 98.7451C168.535 98.7451 168.505 98.7451 168.486 98.7451C168.427 98.7451 168.393 98.689 168.383 98.5767C168.378 98.5327 168.376 98.5034 168.376 98.4888C168.376 98.4155 168.432 98.3691 168.544 98.3496C169.375 98.1592 170.185 97.9297 170.976 97.6611C171.093 97.6611 171.152 97.7124 171.152 97.8149C171.113 98.7915 171.093 99.6777 171.093 100.474V102.437C171.093 103.345 171.127 103.879 171.196 104.041C171.254 104.148 171.362 104.216 171.518 104.246C171.591 104.26 171.77 104.277 172.053 104.297C172.121 104.307 172.155 104.37 172.155 104.487C172.155 104.609 172.121 104.67 172.053 104.67C171.931 104.666 171.745 104.661 171.496 104.656C170.983 104.636 170.615 104.626 170.39 104.626C170.327 104.626 169.76 104.641 168.691 104.67C168.593 104.67 168.544 104.609 168.544 104.487C168.544 104.36 168.588 104.297 168.676 104.297C168.95 104.277 169.13 104.255 169.218 104.231C169.335 104.192 169.418 104.128 169.467 104.041C169.55 103.904 169.592 103.586 169.592 103.088V102.437V100.291ZM170.244 93.4863C170.512 93.4863 170.751 93.6011 170.961 93.8306C171.147 94.0308 171.24 94.2529 171.24 94.4971C171.24 94.7705 171.123 95.0146 170.888 95.2295C170.688 95.415 170.473 95.5078 170.244 95.5078C169.965 95.5078 169.716 95.3906 169.497 95.1562C169.311 94.9561 169.218 94.7363 169.218 94.4971C169.218 94.2139 169.338 93.9673 169.577 93.7573C169.777 93.5767 170 93.4863 170.244 93.4863ZM176.201 99.0308C176.753 98.0786 177.527 97.6025 178.523 97.6025C179.021 97.6025 179.475 97.7441 179.885 98.0273C180.437 98.4033 180.713 98.9771 180.713 99.7485L180.698 101.418V102.451C180.698 103.34 180.737 103.87 180.815 104.041C180.869 104.148 180.967 104.221 181.108 104.26C181.182 104.28 181.345 104.302 181.599 104.326C181.677 104.341 181.716 104.399 181.716 104.502C181.716 104.614 181.677 104.67 181.599 104.67C181.594 104.67 181.296 104.661 180.706 104.641C180.403 104.631 180.156 104.626 179.966 104.626C179.751 104.626 179.451 104.631 179.065 104.641C178.611 104.661 178.34 104.67 178.252 104.67C178.174 104.67 178.135 104.614 178.135 104.502C178.135 104.385 178.174 104.326 178.252 104.326C178.511 104.307 178.682 104.282 178.765 104.253C178.882 104.214 178.967 104.143 179.021 104.041C179.099 103.879 179.138 103.35 179.138 102.451V100.408C179.138 99.812 179.077 99.3823 178.955 99.1187C178.74 98.6157 178.376 98.3643 177.864 98.3643C177.585 98.3643 177.314 98.457 177.051 98.6426C176.831 98.7988 176.653 98.9917 176.516 99.2212C176.306 99.5728 176.201 99.9731 176.201 100.422V102.451C176.201 103.384 176.23 103.914 176.289 104.041C176.348 104.153 176.453 104.226 176.604 104.26C176.663 104.275 176.833 104.297 177.117 104.326C177.205 104.336 177.249 104.395 177.249 104.502C177.249 104.614 177.205 104.67 177.117 104.67C176.995 104.666 176.814 104.661 176.575 104.656C176.082 104.636 175.728 104.626 175.513 104.626C175.288 104.626 174.985 104.631 174.604 104.641C174.141 104.661 173.867 104.67 173.784 104.67C173.716 104.67 173.682 104.614 173.682 104.502C173.682 104.399 173.716 104.341 173.784 104.326C174.082 104.297 174.263 104.27 174.326 104.246C174.443 104.211 174.529 104.143 174.583 104.041C174.651 103.899 174.685 103.369 174.685 102.451V100.232C174.685 99.5728 174.651 99.1528 174.583 98.9722C174.504 98.7622 174.368 98.6572 174.172 98.6572C174.148 98.6572 174.128 98.6572 174.114 98.6572L173.711 98.6865C173.677 98.6865 173.652 98.6865 173.638 98.6865C173.555 98.6865 173.508 98.6304 173.499 98.5181C173.499 98.4937 173.499 98.4717 173.499 98.4521C173.499 98.3691 173.56 98.3154 173.682 98.291C174.443 98.1445 175.234 97.9248 176.055 97.6318C176.172 97.6318 176.23 97.6733 176.23 97.7563C176.211 98.0347 176.201 98.4595 176.201 99.0308ZM191.119 98.7744C191.368 98.3594 191.703 98.0444 192.123 97.8296C192.455 97.6587 192.787 97.5732 193.119 97.5732C194.149 97.5732 194.967 97.9541 195.572 98.7158C196.095 99.375 196.356 100.205 196.356 101.206C196.356 102.358 196.012 103.281 195.323 103.975C194.698 104.6 193.897 104.912 192.921 104.912C192.423 104.912 191.998 104.81 191.646 104.604C191.529 104.536 191.292 104.358 190.936 104.07C190.887 104.031 190.829 104.011 190.76 104.011C190.697 104.011 190.641 104.031 190.592 104.07L189.933 104.656C189.85 104.714 189.752 104.744 189.64 104.744C189.518 104.744 189.457 104.712 189.457 104.648C189.457 104.639 189.457 104.626 189.457 104.612C189.535 103.459 189.574 102.354 189.574 101.294V95.7129C189.574 95.1172 189.549 94.6875 189.5 94.4238C189.452 94.2236 189.31 94.1235 189.076 94.1235H189.002L188.629 94.1528C188.595 94.1528 188.573 94.1528 188.563 94.1528C188.49 94.1528 188.448 94.0918 188.438 93.9697C188.434 93.9502 188.431 93.9282 188.431 93.9038C188.431 93.8354 188.478 93.7842 188.57 93.75C189.435 93.5889 190.255 93.374 191.031 93.1055C191.139 93.1055 191.192 93.1445 191.192 93.2227C191.144 94.3701 191.119 95.5957 191.119 96.8994V98.7744ZM191.119 102.18C191.119 102.551 191.129 102.8 191.148 102.927C191.178 103.132 191.244 103.323 191.346 103.499C191.703 104.109 192.157 104.414 192.708 104.414C193.299 104.414 193.766 104.08 194.107 103.411C194.405 102.83 194.554 102.097 194.554 101.213C194.554 100.247 194.352 99.4971 193.946 98.9648C193.614 98.5254 193.202 98.3057 192.708 98.3057C192.181 98.3057 191.737 98.562 191.375 99.0747C191.249 99.2651 191.17 99.4629 191.141 99.668C191.126 99.7656 191.119 99.9585 191.119 100.247V102.18ZM201.837 97.6025C202.921 97.6025 203.8 97.998 204.474 98.7891C205.055 99.4727 205.346 100.298 205.346 101.265C205.346 102.368 204.984 103.271 204.262 103.975C203.612 104.6 202.804 104.912 201.837 104.912C200.744 104.912 199.862 104.519 199.193 103.733C198.627 103.069 198.344 102.256 198.344 101.294C198.344 100.19 198.71 99.2798 199.442 98.562C200.092 97.9224 200.89 97.6025 201.837 97.6025ZM201.837 98.0493C201.247 98.0493 200.795 98.3984 200.482 99.0967C200.229 99.668 200.102 100.391 200.102 101.265C200.102 102.31 200.263 103.115 200.585 103.682C200.888 104.204 201.305 104.465 201.837 104.465C202.428 104.465 202.882 104.114 203.2 103.411C203.458 102.839 203.588 102.124 203.588 101.265C203.588 100.205 203.427 99.3945 203.104 98.833C202.802 98.3105 202.379 98.0493 201.837 98.0493ZM210.82 97.6025C211.904 97.6025 212.783 97.998 213.457 98.7891C214.038 99.4727 214.328 100.298 214.328 101.265C214.328 102.368 213.967 103.271 213.244 103.975C212.595 104.6 211.787 104.912 210.82 104.912C209.726 104.912 208.845 104.519 208.176 103.733C207.609 103.069 207.326 102.256 207.326 101.294C207.326 100.19 207.692 99.2798 208.425 98.562C209.074 97.9224 209.873 97.6025 210.82 97.6025ZM210.82 98.0493C210.229 98.0493 209.777 98.3984 209.465 99.0967C209.211 99.668 209.084 100.391 209.084 101.265C209.084 102.31 209.245 103.115 209.567 103.682C209.87 104.204 210.288 104.465 210.82 104.465C211.411 104.465 211.865 104.114 212.182 103.411C212.441 102.839 212.57 102.124 212.57 101.265C212.57 100.205 212.409 99.3945 212.087 98.833C211.784 98.3105 211.362 98.0493 210.82 98.0493ZM218.557 101.008C218.738 100.847 219.004 100.593 219.355 100.247L220.132 99.4336C220.532 99.0088 220.732 98.7109 220.732 98.54C220.732 98.5059 220.728 98.4741 220.718 98.4448C220.679 98.3228 220.457 98.252 220.051 98.2324C219.973 98.2324 219.934 98.1689 219.934 98.042C219.934 97.9297 219.973 97.8735 220.051 97.8735C220.374 97.8833 220.874 97.8882 221.553 97.8882C221.65 97.8882 222.112 97.8735 222.937 97.8442C223.015 97.8442 223.054 97.9053 223.054 98.0273C223.054 98.1543 223.02 98.2178 222.952 98.2178C222.708 98.2422 222.397 98.3423 222.021 98.5181C221.704 98.6694 221.304 98.9746 220.82 99.4336L220.146 100.063C220.049 100.166 219.954 100.256 219.861 100.334C220.72 101.57 221.475 102.61 222.124 103.455C222.432 103.835 222.646 104.07 222.769 104.158C222.891 104.236 223.127 104.292 223.479 104.326C223.557 104.336 223.596 104.395 223.596 104.502C223.596 104.614 223.547 104.67 223.45 104.67L222.249 104.626C221.687 104.626 221.282 104.631 221.033 104.641C220.92 104.441 220.781 104.207 220.615 103.938C219.688 102.571 219.087 101.694 218.813 101.309L218.557 101.536V102.466C218.557 103.345 218.591 103.87 218.66 104.041C218.704 104.148 218.801 104.221 218.953 104.26C219.031 104.28 219.204 104.302 219.473 104.326C219.561 104.336 219.604 104.395 219.604 104.502C219.604 104.614 219.561 104.67 219.473 104.67C218.896 104.641 218.362 104.626 217.869 104.626C217.263 104.626 216.687 104.641 216.14 104.67C216.042 104.67 215.994 104.614 215.994 104.502C215.994 104.395 216.038 104.336 216.125 104.326C216.418 104.297 216.599 104.27 216.667 104.246C216.785 104.211 216.865 104.143 216.909 104.041C216.978 103.889 217.012 103.369 217.012 102.48V95.6836C217.012 95.0488 216.982 94.624 216.924 94.4092C216.855 94.1992 216.707 94.0942 216.477 94.0942H216.426L216.082 94.1235H216.008C215.93 94.1235 215.886 94.0674 215.876 93.9551C215.872 93.916 215.869 93.8892 215.869 93.8745C215.869 93.8013 215.925 93.7524 216.038 93.728C216.687 93.6206 217.498 93.4033 218.469 93.0762C218.586 93.0762 218.645 93.1152 218.645 93.1934C218.586 94.6729 218.557 95.8984 218.557 96.8701V101.008Z" fill="black"/>
<path d="M82.5 27.5L83.5 26C83.5 26 85 26 85 27C85 28 87 26 88.5 25C89.5525 24.2984 89.1667 23.1667 88.5 22.5C88.5 22.1667 88.8 21.5 90 21.5C91.5 21.5 92 23.5 92 25C92 26.5 90 28.5 90.5 29.5C91 30.5 94 28.5 96.5 28.5C98.1 28.5 98.1667 30.1667 98 31C97.8333 31.1667 96.7 31.4 93.5 31C91.372 30.734 88.9786 31.7062 86.4376 32.8286C85.1575 33.394 83.84 33.9975 82.5 34.5L78.5 36C77.1667 35.1667 74.9 33.6 76.5 34C78.5 34.5 87.3675 31.2649 88 30C88.5 29 88.1667 28.5 88 28L85.5 28.5V29.5C85.3333 30 84.7 30.9 83.5 30.5C82.3 30.1 82.3333 28.3333 82.5 27.5Z" fill="black"/>
<path d="M86 35.5C86 34.7 86.6667 32.8333 87 32C87.2097 32.5244 87.5119 33.5371 87.6074 34.6146C89.1045 33.7514 90.546 33 91 33C92 33 94.5 34 94.5 35.5C94.5 37 95 40 92.5 42.5C90 45 87 45.5 85 45.5C83 45.5 83 45 82 43.5C81 42 78.5 38 80 37.5C81.5 37 82 37.5 82.5 38.5C83 39.5 84 43.5 84.5 43.5C84.9 43.5 88.6667 42.5 90.5 42L90.5 42C90.8333 40.6666 91.8 36.8 91 36C90.552 35.552 89.09 35.7103 87.5975 35.9656C87.5753 36.1478 87.5433 36.3266 87.5 36.5C87.3811 36.9757 87.4319 37.3947 87.5649 37.7774C88.3091 37.4648 88.993 37.3206 89.5 37.5C91.4413 38.1869 91 39.5 90.5 39.5C90.3524 39.5 89.6168 39.6134 88.6383 39.765C88.7854 40.1588 88.7949 40.5577 88.5 41C87.5 42.5 88 42.5 86.5 42C85.979 41.8263 85.7596 41.1098 85.6952 40.2066C84.7611 40.3378 83.8702 40.4495 83.2137 40.5C83.8343 40.0662 84.7374 39.3947 85.6946 38.7894C85.7425 37.8679 85.8609 36.9357 85.9355 36.271C85.3787 36.3745 84.8784 36.4622 84.5 36.5C84.9151 36.2359 85.4344 35.9119 85.9987 35.5688C85.9996 35.5441 86 35.5212 86 35.5Z" fill="black"/>
<path d="M80.5 47.5C80.5 46.7 81.1667 46 81.5 46L82 47.5C82.3333 48 82.7 49.1 81.5 49.5C80 50 80.5 48.5 80.5 47.5Z" fill="black"/>
<path d="M94.5 48C94.1 46.8 93.6667 45.1667 93.5 44.5C93.8333 44.6667 94.6 45.1 95 45.5C95.5 46 97 47 97 47.5C97 48 97 48.5 96.5 49C96 49.5 95 49.5 94.5 48Z" fill="black"/>
<path d="M111 30C111 28.4 114 24.5 115.5 22.5C115.667 22.5 116.1 22.6 116.5 23C117 23.5 117.5 25.5 117.5 26.5C117.5 26.75 117.469 26.9062 117.406 27C120.073 29.5 125.8 34.6 127 35C128.2 35.4 130.167 36.5 131 37C130.667 37.3333 129.7 38 128.5 38C127.3 38 126.333 37.6667 126 37.5L121.5 33L117.5 29L117.406 27C117.219 27.2812 116.75 27 116 27C115 27 114.5 28 113.5 29.5C112.5 31 112.5 33.5 112 34.5C111.6 35.3 107.5 38.8333 105.5 40.5C105 40.6667 103.7 41 102.5 41C101 41 103 41 104 40C105 39 109 35 109.5 34C110 33 111 32 111 30Z" fill="black"/>
<path d="M112.5 33.5C113.833 33.1667 116.5 32.3 116.5 31.5C116.5 30.7 117.5 31.1667 118 31.5C118.333 32 118.8 33.1 118 33.5C117.577 33.7116 117.064 33.9231 116.5 34.0968L116.611 36.7504C117.135 36.2864 117.611 35.8566 118 35.5C118.5 35.6667 119.2 36.1 118 36.5C117.676 36.6079 117.199 37.0096 116.646 37.5812L116.937 44.5C117.291 44 118.2 42.7 119 41.5C119.8 40.3 119.667 38.3333 119.5 37.5C119.833 37.5 120.6 37.4 121 37C121.5 36.5 122 39 121.5 40.5C121.1 41.7 118.291 43.6667 116.937 44.5L117 46C117.5 45.8333 118.6 45.5 119 45.5C119.5 45.5 120.5 44.5 121.5 44.5C122.5 44.5 123.5 45 124.5 46.5C125.3 47.7 123.5 48 122.5 48L118.5 47C116.9 46.6 113.167 47.8333 111.5 48.5L108.5 48C109.167 48 110.7 47.9 111.5 47.5C112.5 47 113 46.5 114 45.5C114.463 45.0375 114.724 42.4358 114.863 39.6466C113.781 40.9993 112.696 42.494 112 43.5C112 44.1667 111.9 45.6 111.5 46C111 46.5 111 45 110.5 44C110.1 43.2 108.333 42.6667 107.5 42.5L110.5 41.5C111.231 41.2563 113.112 39.7633 114.924 38.219C114.972 36.8441 114.994 35.5041 114.999 34.4308C114.67 34.4751 114.335 34.5 114 34.5C112.8 34.5 112.5 33.8333 112.5 33.5Z" fill="black"/>
<path d="M140 30.5C139.6 28.9 138.167 27.5 137.5 27C137.667 26.8333 138.2 26.5 139 26.5C140 26.5 140.5 27 141.5 28.5C142.5 30 142.5 35 142.5 36C142.5 37 148.5 32.5 149 31.5C149.5 30.5 148.5 31 148 30C147.5 29 149 28.5 150 28.5C151 28.5 152.5 30 152.5 31.5C152.5 33 145.5 37 143.5 38.5C141.5 40 141.5 41 141.5 42.5C141.5 44 147.5 44 147.5 44C147.5 44 148.5 43.5 149.5 43.5C150.5 43.5 151 44.5 150.5 45.5C150 46.5 143 46.5 140.5 45.5C138 44.5 138.5 40.5 139.5 39.5C140.3 38.7 140.5 37.1667 140.5 36.5C140.5 35.1667 140.4 32.1 140 30.5Z" fill="black"/>
<path d="M168 31C167.2 31 167 30 167 29.5C167.249 29.7487 168.487 29.5026 169.792 29.1309C169.028 28.1294 168.25 27.001 168 26.5L168.5 25.5C168.833 25.5 169.7 25.6 170.5 26C170.984 26.2421 171.351 27.4218 171.544 28.5745C172.189 28.349 172.726 28.137 173 28C173.289 27.8555 173.745 27.5859 174.247 27.2754C174.492 26.6188 174.749 25.9829 175 25.5C175.8 23.9584 175 23.5243 174.5 23.5C175 23.1667 176.2 22.5 177 22.5C178 22.5 178 24 178 24.5C178 24.6205 177.712 25.1073 177.261 25.7605L178.5 27C178.715 27.2154 176.983 27.9873 174.86 28.7965C174.201 29.5241 173.542 30.1549 173 30.5C173.117 30.3743 173.3 29.9096 173.523 29.2928C172.907 29.516 172.285 29.7339 171.691 29.9352C171.708 30.3795 171.683 30.7319 171.611 30.8973C171.86 31.0878 172.149 31.3247 172.5 31.5C172.926 31.713 173.08 31.8353 173 32.0214L175 32.5C175.087 32.5936 175.179 32.6908 175.273 32.7913C175.435 32.4414 175.672 31.9975 176 31.5C176.64 30.529 176.6 29.4287 176.5 29C177 29.1667 178 29.7 178 30.5C178 31.167 176.61 32.3436 175.568 33.1028C176.054 33.6138 176.613 34.1907 177.208 34.7916L178 34C178.8 33.2 178.667 32 178.5 31.5C178.833 31.5 179.6 31.8 180 33C180.307 33.9196 178.871 34.7021 177.583 35.1677C179.992 37.5735 182.866 40.2166 184 40.5C185.6 40.9 186.333 41 186.5 41L182.5 41.5C180.667 40.1667 176.8 37.2 176 36C175.2 34.8 173.667 32.8476 173 32.0214C172.892 32.2722 172.361 32.639 171.5 33.5C170.512 34.4885 169.74 36.3455 169.186 37.7833C169.791 37.8555 171.2 37.8 172 37C173 36 172.5 35.5 173.5 35.5C174.5 35.5 175 35 175 36C175 37 174 37.2167 173.5 37.5C173.282 37.6235 172.934 37.9466 172.501 38.2669C172.506 38.9585 172.529 39.9157 172.585 40.8703C172.935 40.7126 173.249 40.5837 173.5 40.5C174.7 40.1 174.667 39 174.5 38.5L176 39.5C176 40 175.8 41 175 41C174.642 41 173.735 41.5352 172.693 42.2459C172.767 42.9675 172.867 43.6003 173 44C173.4 45.2 177.5 47.5 179.5 48.5L183.5 51C183.167 51.1667 182.2 51.5 181 51.5C179.5 51.5 179.5 51.5 178 50.5C176.5 49.5 172 45 171.5 45C171 45 170.5 46 169.5 47.5C168.7 48.7 166.5 49.3333 165.5 49.5C166.5 48.6667 168.8 46.6 170 45C170.257 44.6568 170.473 44.2156 170.654 43.7176C170.027 44.1895 169.447 44.6426 169 45C168.833 45 168.3 44.9 167.5 44.5C166.5 44 167 43.5 167.5 43C167.9 42.6 168.333 42.8333 168.5 43C169.126 42.6423 170.174 42.0638 171.197 41.5426C171.357 40.595 171.442 39.6421 171.478 38.8689C171.167 38.9962 170.838 39.0731 170.5 39.0582C169.449 39.0116 169.186 38.1888 169.186 37.7833C168.899 38.5273 168.671 39.159 168.5 39.5C168 40.5 166.5 42.5 165.5 43.5C164.7 44.3 161.833 44.8333 160.5 45C161.167 44.5 163 43.2 165 42C165.648 41.6114 166.243 40.8977 166.769 40.0423C166.137 40.2874 165.452 40.5 165 40.5C164.2 40.5 163.457 39.5388 163.185 39.0582C163.775 39.2337 164.927 39.5 166 39.5H167.083C168.018 37.7944 168.695 35.7196 169 34.5C168.667 34.6667 167.8 35.2 167 36C166.2 36.8 165.333 35.6667 165 35C164.833 34.8333 164.6 34.4 165 34C165.5 33.5 166 34 167.5 33.5C169 33 170 32 170.5 31C170.654 30.6914 170.809 30.5732 170.978 30.5721C170.892 30.4806 170.8 30.3769 170.702 30.2635C169.356 30.7002 168.293 31 168 31Z" fill="black"/>
<path fill-rule="evenodd" clip-rule="evenodd" d="M194.5 36.5C195.3 34.1 197.833 31.5 199 30.5C199.667 30 201.3 29 202.5 29C204 29 207 31.5 207.5 32.5C207.577 32.6547 207.667 32.8214 207.762 33C208.285 33.9761 209 35.3094 209 37C209 39 204.5 44.5 203.5 44.5L202.5 45L204.5 42.5C205.333 41.1667 207 38.3 207 37.5C207 36.7 205.333 33.8333 204.5 32.5C204.5 33.5 204.3 35.7 203.5 36.5C202.5 37.5 197.5 42.5 197 42.5C196.86 42.5 196.64 42.5788 196.387 42.6701C195.737 42.9039 194.86 43.2192 194.5 42.5C194.1 41.7 194 39.8333 194 39C194 38.2 194.333 37 194.5 36.5ZM196.5 37.5C196.1 35.5 200.167 32.6667 202 31.5C202.167 31.8333 202.5 32.5 202.5 34C202.5 35.2649 199.333 38.1667 197.5 39.5C197.333 39.6667 196.9 39.5 196.5 37.5Z" fill="black"/>
<path fill-rule="evenodd" clip-rule="evenodd" d="M180.5 68.5C181.3 66.1 183.833 63.5 185 62.5C185.667 62 187.3 61 188.5 61C190 61 193 63.5 193.5 64.5C193.577 64.6547 193.667 64.8214 193.762 65C194.285 65.9761 195 67.3094 195 69C195 71 190.5 76.5 189.5 76.5L188.5 77L190.5 74.5C191.333 73.1667 193 70.3 193 69.5C193 68.7 191.333 65.8333 190.5 64.5C190.5 65.5 190.3 67.7 189.5 68.5C188.5 69.5 183.5 74.5 183 74.5C182.86 74.5 182.64 74.5788 182.387 74.6701C181.737 74.9039 180.86 75.2192 180.5 74.5C180.1 73.7 180 71.8333 180 71C180 70.2 180.333 69 180.5 68.5ZM182.5 69.5C182.1 67.5 186.167 64.6667 188 63.5C188.167 63.8333 188.5 64.5 188.5 66C188.5 67.2649 185.333 70.1667 183.5 71.5C183.333 71.6667 182.9 71.5 182.5 69.5Z" fill="black"/>
<path d="M218.5 32.5C219.7 32.1 221.667 26.3333 222.5 23.5L223.5 24.5C223.9 24.9 223.667 28 223.5 29.5C223.167 30.6667 222.3 33.3 221.5 34.5C220.5 36 222.5 36.5 223 37.5C223.5 38.5 221.5 42 221.5 43C221.5 43.8 222.833 44.6667 223.5 45L225.5 42.5C225.333 43.1667 224.9 44.8 224.5 46C224 47.5 222.5 48 222 46.5C221.6 45.3 220.833 44.3333 220.5 44C219.833 44.3333 218.6 44.8 219 44C219.5 43 220 41.5 220.5 40C221 38.5 220.5 37 219.5 36.5C218.5 36 217 33 218.5 32.5Z" fill="black"/>
<path fill-rule="evenodd" clip-rule="evenodd" d="M231.5 23.5C230 25.1667 226.9 28.5 226.5 28.5C226.1 28.5 227.667 29.1667 228.5 29.5C228.833 29.8333 229.3 30.7 228.5 31.5C228 32 227.25 33.375 226.5 34.75C225.75 36.125 225 37.5 224.5 38C224 38.5 224.25 38.5 224.688 38.5C225.125 38.5 225.75 38.5 226 39C226.5 40 228.5 43.5 229 43.5C229.5 43.5 233 38.5 233.5 37.5C233.705 37.0906 233.918 36.4017 234.1 35.715C234.273 41.2846 234.5 48.67 234.5 49C234.5 49.5 235.5 51 236 51C236.5 51 236.5 47 236.5 45C236.5 44.0943 236.397 42.0607 236.239 40.0136C236.391 40.6234 236.5 41.1763 236.5 41.5C236.5 42.5 239 42.5 239.5 42.5C240 42.5 243.5 34.5 243.5 33.5C243.5 32.5 239.5 25.5 238.5 25.5C237.7 25.5 235.167 30.1667 234 32.5L234.066 34.623C232.471 36.9011 229.865 40.5 229.5 40.5C229 40.5 227.5 39.5 227.5 38.5C227.5 37.5 233 29.5 233.5 29.5C234 29.5 233 28 232.5 28C232 28 231 28 231.5 27C231.9 26.2 231.667 24.3333 231.5 23.5ZM237.5 39.5C237.222 39.5 236.604 38.8542 236.086 38.2367C235.914 36.4444 235.707 34.9143 235.5 34.5C235 33.5 238 29 238.5 28.5C238.849 28.1514 239.44 29.7473 239.936 31.0845C240.151 31.6653 240.349 32.1972 240.5 32.5C240.904 33.3074 240.33 35.4187 239.83 37.2547C239.711 37.6926 239.596 38.1148 239.5 38.5C239.112 40.0505 238.424 39.798 237.902 39.6061C237.75 39.5505 237.612 39.5 237.5 39.5Z" fill="black"/>
<path d="M251 27C251 26.6 253.167 23.8333 254.5 22.5C254.667 22.8333 255.1 23.6 255.5 24C256 24.5 252.5 30 251.5 32.5C250.7 34.5 253.167 31.3333 254.5 29.5C255.333 28.6667 257.1 27.1 257.5 27.5C258 28 253.5 34.5 252.5 36.5C251.5 38.5 254 36 255.5 35C257 34 255.5 33 256.5 33C257.5 33 257.5 35 257.5 35.5C257.5 36 256.5 36.5 255.5 37.5C255.171 37.8289 254.41 38.3741 253.5 38.9577V44C253.333 45.1667 252.8 47.5 252 47.5C251 47.5 246 42 246.5 42.5C246.9 42.9 250 44 251.5 44.5V40.162C250.178 40.9078 248.944 41.5 248.5 41.5C247.7 41.5 247.5 40.5 247.5 40C248.333 39.1667 250.1 37.3 250.5 36.5C250.9 35.7 250.667 34.1667 250.5 33.5C249.5 34 247.4 35.1 247 35.5C246.6 35.9 245.167 35.6667 244.5 35.5C245.333 34.8333 247.3 33.3 248.5 32.5C250 31.5 251 27.5 251 27Z" fill="black"/>
<path d="M257.5 41.5C257.1 40.7 256 40.5 255.5 40.5C255.5 41 256 42.5 256.5 43C257 43.5 258 42.5 257.5 41.5Z" fill="black"/>
<path d="M265.5 25C264.7 24.6 262.5 23.8333 261.5 23.5C260.5 23.1667 260 24 260 24C260.667 24.3333 262.1 25.1 262.5 25.5C263 26 263.5 26.5 263.5 28.5C263.5 30.1 260.5 31.1667 259 31.5C259.333 31.6667 260.1 32.1 260.5 32.5C261 33 262.5 33 263.5 32.5C264.5 32 269.5 26.5 269.5 25.5C269.5 24.7 268.5 24.8333 268 25C267.5 25.1667 266.3 25.4 265.5 25Z" fill="black"/>
<path d="M264.5 37.5C264.5 36.3 262.5 34.3333 261.5 33.5C260.211 32.2898 261.5 35.5 261.5 37C261.5 38.5 259.5 37.5 258.5 38C257.5 38.5 261.5 40 261.5 41.5C261.5 42.7 256.833 45.3333 254.5 46.5C255.167 47 256.7 47.9 257.5 47.5C258.5 47 262.5 43.5 263.5 43.5C264.5 43.5 269 49 270 49.5C270.8 49.9 272.667 49 273.5 48.5C272.833 48.3333 271.3 47.9 270.5 47.5C269.5 47 267 43.5 265.5 42C264 40.5 264.5 39 264.5 37.5Z" fill="black"/>
<path d="M119.5 59.5C119.9 58.7 121.667 56.5 122.5 55.5C122.833 55.3333 123.7 55.1 124.5 55.5C125.5 56 124 57 122.5 58.5C121 60 121.5 63 121.5 66C121.5 68.4 122.8 69.5 124 71.5C125.5 74 125.5 74.5 127 76C129 78 136 78 136 78C136 78 142.667 77 143 76.5C143 76.6666 142.9 77.2 142.5 78C142 79 136 80.5 134.5 80.5C133 80.5 129 79 127 78C125.4 77.2 121.833 78 121 78.5C120 78.8333 118.5 79.3 118.5 78.5C118.5 77.5 121.5 76.5 122.5 75C123.5 73.5 120.5 70 119.5 68.5C118.5 67 119 60.5 119.5 59.5Z" fill="black"/>
<path d="M127.5 64.5C128.3 63.3 128.5 60.6667 128.5 59.5H129.5C130 59.5 130.5 60.5 130.5 62.5C130.5 64.5 129.5 64.5 128.5 66.5C127.5 68.5 127.5 68 127.5 69.5C127.5 71 128.5 71.5 129.5 72.5C130.5 73.5 130.5 74 130 74.5C129.5 75 129 74.5 127 72C125 69.5 125.5 69 125.5 68C125.5 67 126.5 66 127.5 64.5Z" fill="black"/>
<path d="M133.5 62C134.3 60 133 58.5 133.5 57.5C134 56.5 135 57 136 58.5C137 60 136.5 61.5 136.5 62.5C136.5 63.5 132.5 67 132.5 68.5C132.5 69.9999 133.5 70 134.5 71.5C135.5 73 135.5 74 134.5 74.5C133.5 75 133 73 131.5 71.5C130 70 130.5 68 130.5 67C130.5 66 132.5 64.5 133.5 62Z" fill="black"/>
<path d="M138.5 62.5C139.3 61.3 138 59.5 138.5 57.5C139 55.5 141.5 58.5 142.5 60C143.5 61.5 139 65.5 137.5 67.5C136 69.5 138.5 69.5 139.5 70.5C140.5 71.5 139 73.5 138.5 73.5C138 73.5 137 72 135.5 70C134 68 134.5 68 134.5 67.5C134.5 67 137.5 64 138.5 62.5Z" fill="black"/>
<path d="M153.5 61C154 59.5 153 60 150.5 58C150 55.5 153.5 56.5 154.5 56.5C155.5 56.5 157.5 59.5 157.5 60.5C157.5 61.3 153.833 62.8334 152 63.5C152.333 63.1667 153.1 62.2 153.5 61Z" fill="black"/>
<path d="M150 67.5C148.4 69.5 145.333 71 144 71.5C143.833 71.6667 143.5 72.2 143.5 73C143.5 74 145 74 146 73.5C147 73 152 68.5 153 68.5C154 68.5 147.5 75.5 147 76.5C146.5 77.5 147.5 77.5 148.5 78C149.5 78.5 150.5 75 151.5 73.5C152.5 72 151.5 75 151.5 77.5C151.5 79.5 152.833 80.6667 153.5 81C153.5 81 155 80.5 154.5 78C154 75.5 154.5 72.5 154.5 70.5C154.5 68.5 158 65 156.5 63.5C155 62 152 65 150 67.5Z" fill="black"/>
<path d="M159.5 62.5C158.7 61.3 159.167 60.6667 159.5 60.5C159.667 60.3333 160.1 60 160.5 60C161 60 163 62 163.5 64C164 66 161 71 160.5 73C160 75 162.5 77 162.5 77C162.5 77 166.5 77.5 169 76.5C171 75.7 172.167 70.8333 172.5 68.5C172.667 69.8333 172.9 72.9 172.5 74.5C172 76.5 171 78.5 169.5 79.5C168 80.5 164 80 162.5 79.5C161 79 159 75.5 159 73.5C159 71.5 160 68.5 160.5 66.5C161 64.5 160.5 64 159.5 62.5Z" fill="black"/>
<path d="M209.5 60.5C210.5 59.5 208 59.5 207 57.5C207 57 208 57 209 57C210 57 210.5 58 211.5 59C212.5 60 212.5 59.5 213.5 59.5C214.5 59.5 214 61 212.5 61.5C211.739 61.7537 211.449 62.1737 210.5 63C210.41 63.8838 209.6 65.7 210 66.5C210.5 67.5 212 67 213 66.5C214 66 214.5 67.5 213.5 69.5C212.5 71.5 213 75.5 212.5 77.5C212 79.5 209.5 80 208.5 79.5C207.7 79.1 207.5 76 207.5 74.5C208 75.1667 209.2 76.5 210 76.5C211 76.5 210.5 71.5 210.5 70C210.5 68.5 210.5 69.5 209.5 69.5C208.5 69.5 208.297 72.5 207.5 73.5C206.703 74.5 203.5 79 202.5 79.5C201.5 80 206.5 71 207.5 68.5C208.3 66.5 208.234 65.4293 208 65C207.684 65.3066 207.708 65.2919 207.5 65.5L205.5 67.5C205 68 202.5 66.5 203.5 66C204.5 65.5 208.5 61.5 209.5 60.5L209.5 60.5Z" fill="black"/>
<path d="M217.5 61.5C218 60.5 217.5 59.5 216.5 57.5C216.5 57 217 56.5 217.5 56.5C218 56.5 219.5 58 219.5 60C219.5 62 221 60 222.5 58C224 56 225.5 57.5 225.5 58C225.5 58.3342 222.373 61.7958 220 63.9054C220.5 64.3107 220.5 66 220.5 66.5C220.5 66.6457 220.203 67.3002 219.758 68.1796C220.396 68.7777 221.255 69.5536 222.205 70.3673C222.97 69.6631 224.5 67.9037 224.5 66.5C224.5 64.7455 225 64.5 225.5 64.5C226 64.5 227 67 226.5 68C226.1 68.8 223.894 70.2709 222.84 70.9063C225.104 72.8034 227.692 74.7384 229 75L231.5 75.5C231.333 76.1667 230.6 77.4 229 77C227 76.5 223 74 222 72.5C221.2 71.3 220 69.4542 219.5 68.6813C218.792 70.044 217.834 71.7614 217.062 73C217.041 74.1667 217.2 76.5 218 76.5C218.8 76.5 220 74.5 220.5 73.5C220 75.1667 218.7 78.7 217.5 79.5C216.3 80.3 215.667 76.7212 215.5 74.8317C214.763 75.1249 213.904 74.769 213.5 74.5C214.167 73.8333 215.6 72.3 216 71.5C216.4 70.7 218.167 66.6637 219 64.7455C218.286 65.3021 217.732 65.6159 217.5 65.5C216.5 65 216.45 63.5992 217.5 61.5Z" fill="black"/>
</svg>
