<svg width="22" height="22" viewBox="0 0 22 22" fill="none" xmlns="http://www.w3.org/2000/svg">
<path d="M13 20V22H2V20H13Z" fill="white"/>
<path d="M13 20V22L13.2041 21.9893C14.1457 21.8938 14.8938 21.1457 14.9893 20.2041L15 16C15 15.6667 14.8 15 14 15C13.2 15 13 15.6667 13 16V20Z" fill="white"/>
<path d="M2 22V20V9H5.5C5.83333 9 6.5 8.8 6.5 8C6.5 7.2 5.83333 7 5.5 7L1.7959 7.01074C0.787223 7.113 0 7.96435 0 9V20L0.0107422 20.2041C0.1062 21.1457 0.854346 21.8938 1.7959 21.9893L2 22Z" fill="white"/>
<path d="M18 4.14643L18 11L15 9.5L7.53032 16.5305C7.04216 17.0186 6.25071 17.0186 5.76255 16.5305C5.2744 16.0423 5.2744 15.2509 5.76255 14.7627L12.5 7.5L10.6806 4.14619L18 4.14643Z" fill="white"/>
</svg>
