<svg width="41" height="34" viewBox="0 0 41 34" fill="none" xmlns="http://www.w3.org/2000/svg">
<path d="M20 11C17.5 10.3333 10 10 2 1.5C2.16667 3.66667 2.5 8.3 2.5 9.5C2.5 10.7 4.5 12.6667 5.5 13.5L2 13C2 16.6 5.66667 19.8333 7.5 21L5 21.5C6 24 10 26 11.5 27C12.7 27.8 4.33333 29 0 29.5C0.166667 29.6667 1 30.4 3 32C5 33.6 13.8333 33.6667 18 33.5C24 33.5 29.5 28.5 32 24.5C34.0987 21.1421 36.8333 12.3333 37.5 8C38.7 8 40.3333 5.66667 41 4.5H38L40 0.5C38.6667 1.16667 35.7 2.5 34.5 2.5C33 2.5 33 0.5 28.5 0.5C22.5 0.5 20.3333 7.5 20 11Z" fill="#A88200"/>
</svg>
