<svg width="105" height="45" viewBox="0 0 105 45" fill="none" xmlns="http://www.w3.org/2000/svg">
<path d="M31 4.5V6.5H39V0.5C38.1667 1.16667 36.1 2.7 34.5 3.5C32.9 4.3 31.5 4.5 31 4.5Z" fill="#F3E177"/>
<path d="M12 39.5L0.5 16.5C6.5 16.5 19.1211 16.6828 21.5 17C29 18 44.0412 20.2132 48.5 21C57 22.5 74.5 27 77 27.5C79 27.9 97.5 33.5 105 36L101.5 40.5C101.167 41 100.2 42 99 42C97.5 42 95.5 40.5 92 40.5C88.5 40.5 85.5 44 82.5 44C79.5 44 77 43 73 39.5C69 36 63.5 40.5 61.5 42C59.5 43.5 56.5 44 53 44C49.5 44 44.5 40 39 39.5C33.5 39 32.5 41 29 43C25.5 45 20.5 43 19.5 41.5C18.7 40.3 14.5 40 12 39.5Z" fill="#F3E177"/>
<path d="M90 19.5V23.5V26.5H95.5V21.9999C95.3333 21.4999 94.8 20.2999 94 19.4999C93.2 18.6999 91 19 90 19.5Z" fill="#F3E177"/>
<path d="M12 40.0002L8 31.5C14 31.5 27.5 31.4169 34.5 32.0002C46.5 33.0002 55.5 33.5002 65.5 34.5002C85.3897 36.4892 88.9609 37.4891 101.294 40.9425L101.5 41.0002C101.167 41.5002 100.2 42.5002 99 42.5002C97.5 42.5002 95.5 41.0002 92 41.0002C88.5 41.0002 85.5 44.5002 82.5 44.5002C79.5 44.5002 77 43.5002 73 40.0002C69 36.5002 63.5 41.0002 61.5 42.5002C59.5 44.0002 56.5 44.5002 53 44.5002C49.5 44.5002 44.5 40.5002 39 40.0002C33.5 39.5002 32.5 41.5002 29 43.5002C25.5 45.5002 20.5 43.5002 19.5 42.0002C18.7 40.8002 14.5 40.5002 12 40.0002Z" fill="#996B38"/>
<path d="M18 9.99997C16.8 10.8 15.8333 15 15.5 17L102 35C101 32.5 98.7 28.1 97.5 26.5C96 24.5 43.5 6.49997 41 5.49997C38.5 4.49997 19.5 8.99997 18 9.99997Z" fill="#EDB95B"/>
<path d="M28 10.4999C25 10.7499 23 11.5 18.5 12.9999V10.4999C20.6667 9.99993 25.5 7.99998 32 7.99998C35.5 8.00001 36.8333 7.83332 38.5 7.99999V10.4999C37.8333 10.4999 31.5876 10.201 28 10.4999Z" fill="white"/>
<path d="M26.5 14.574C23.5 14.824 21.5 15.5741 17 17.074V14.574C19.1667 14.074 24 12.0741 30.5 12.0741C34 12.0741 35.3333 11.9074 37 12.0741V14.574C36.3333 14.574 30.0876 14.2751 26.5 14.574Z" fill="white"/>
<path d="M44 12.5V9H46.5V12.5H44Z" fill="white"/>
<path d="M44 17.5V14H46.5V17.5H44Z" fill="white"/>
<path d="M52 15.2941V12H54.3529V15.2941H52Z" fill="white"/>
<path d="M59 18.0882V15H61.2059V18.0882H59Z" fill="white"/>
<path d="M66 20.0882V17H68.2059V20.0882H66Z" fill="white"/>
<path d="M73 22.0882V19H75.2059V22.0882H73Z" fill="white"/>
<path d="M80 23.8V21H82V23.8H80Z" fill="white"/>
<path d="M87 26.6765V24H88.9118V26.6765H87Z" fill="white"/>
<path d="M93 28.3882V26H94.7059V28.3882H93Z" fill="white"/>
<path d="M52 20.0001V16.7059H54.3529V20.0001H52Z" fill="white"/>
<path d="M59 22.5V19.4117H61.2059V22.5H59Z" fill="white"/>
<path d="M66 24.5V21.4117H68.2059V24.5H66Z" fill="white"/>
<path d="M73 26.5V23.4117H75.2059V26.5H73Z" fill="white"/>
<path d="M80 27.8V25H82V27.8H80Z" fill="white"/>
<path d="M87 30.5V27.8235H88.9118V30.5H87Z" fill="white"/>
<path d="M93 31.8V29.4117H94.7059V31.8H93Z" fill="white"/>
<path d="M94 19.4938C93.2 18.6938 91 18.9939 90 19.4938C90 19.4938 91.5 21 92.5 21.5C93.5 22 95.5 21.9938 95.5 21.9938C95.3333 21.4938 94.8 20.2938 94 19.4938Z" fill="#996B38"/>
</svg>
