<svg width="51" height="67" viewBox="0 0 51 67" fill="none" xmlns="http://www.w3.org/2000/svg">
<path d="M8 23C6.8 23.4 4.66667 27 3.5 28.5" stroke="#F3E177"/>
<path d="M9.5 58.5C9.1 57.7 9.33333 41.3333 9.5 33.5H15.5C17.5 33.5 20.3333 32.1667 21.5 31.5C21.6667 37.3333 22 49.2 22 50C22 51 23 56.5 23.5 57C24 57.5 22.5 59 21 59.5C19.8 59.9 14.1667 60 11.5 60C11 59.8333 9.9 59.3 9.5 58.5Z" fill="#EDB95B"/>
<path d="M13.5 7.5C13.5 8 12 9 12.5 10.5C12.5983 11.2307 15.5 14.5 16 15C16.5 15.5 19 15 19.5 15C20 15 21.5 13.5 21.5 12.5C21.5 11.5 20.5 9.5 20.5 9C20.5 8.5 19 8 18.5 7C18 6 16 6 15.5 6C15 6 13.5 7 13.5 7.5Z" fill="#996B38"/>
<path d="M14.5 14C14 14 13.5 11 13.5 9.99999C13.5 9.83333 13.6 9.39999 14 8.99999C14.5 8.5 15 8.5 16.5 8.5H16.5C18 8.5 18.5 11 18.5 12C18.5 12.8 17.8334 13.3333 17.5 13.5L18 15H15.5C15.785 14.43 15.5826 14.1037 15.8305 13.7085C15.5749 13.8545 15.1463 14 14.5 14Z" fill="#F4D8BD"/>
<path d="M18 14.5H15L12.5 18.5V33.5H18V14.5Z" fill="white"/>
<path d="M20.5 15.5C19.5 14.5 19 14.5 17.5 14.5V21.5C17.5 23 16.5 26 16 26.5C15.5 27 15.5 29 16 30.5C16.5 32 17.5 33.5 18.5 33.5C19.5 33.5 23.5 29.5 24.5 29C25.5 28.5 25 26 25 24.5C25 23 21.5 16.5 20.5 15.5Z" fill="#F09839"/>
<path d="M12.5 15C12.9 14.6 14.3334 14.5 15 14.5C14.8334 16 14.4 19.5 14 21.5C13.5 24 13.5 23.5 13 25.5C12.5 27.5 13 32.5 13 33.5C13 34.5 11 34.5 10.5 34.5C10 34.5 8.50002 33 9.50002 31.5C10.5 30 10 19.5 10 19C10 18.5 12 15.5 12.5 15Z" fill="#F09839"/>
<path d="M5.50003 18.5C7.00003 17 7.00003 22 8.00003 23.5C9.00003 25 9.00003 22.5 10 19.5C10.3334 20.8334 11 23.9 11 25.5C11 27.1 10.3334 28.1667 10 28.5C9.33336 28.8333 7.80003 29.4 7.00003 29C6.00003 28.5 3.00003 22 2.50003 21C2.00003 20 4.00003 20 5.50003 18.5Z" fill="#F09839"/>
<path d="M2.50003 17C1.50003 17 2.00003 18.5 2.00003 19C2.00003 19.4 2.6667 19.8333 3.00003 20C3.83336 19.6667 5.50003 18.9 5.50003 18.5C5.50003 18 5.00003 17.5 5.00003 17C5.00003 16.5 3.50003 17 2.50003 17Z" fill="#F4D8BD"/>
<path d="M24 34.5C24.4 34.5 24.1667 30.1667 24 28.5L22.5 30.5V32C22.5 32.5 22.5 32.5 22.0001 33.4998L22 33.5C21.5 34.5 23.5 34.5 24 34.5Z" fill="#F4D8BD"/>
<path d="M0.047133 34.4C-0.351153 33.5467 1.87263 29.6 3.0343 28H9.00859C9.50644 29.6 11 33.3333 11 34.4C11 35.4667 11 34.4 10.0043 36H1.54072C0.132569 36 0.544991 35.4667 0.047133 34.4Z" fill="#F3E177"/>
<path d="M0.0456315 34.4C-0.339967 33.5467 1.81298 29.6 2.93764 28H3.90163C4.38363 29.6 2.93762 33.3333 2.93762 34.4C2.93762 35.4667 2.93764 34.4 1.97364 36H1.49164C0.128346 36 0.52763 35.4667 0.0456315 34.4Z" fill="#EDB95B"/>
<path d="M8.5 28.5C8.66667 26.6667 9.2 22.6 8 23" stroke="#F3E177"/>
<path d="M9.00001 64C9.66668 63.6667 11.3 63.1 12.5 63.5L14.5 63.5C15.5 63.5 15.5 65 15.5 65.5C15.5 66 13.5 66 12.5 66C11.5 66 10 66 9.00001 65.5C8.20001 65.1 8.66668 64.3333 9.00001 64Z" fill="#996B38"/>
<path d="M20 63L18 59.5L21 59C21.1667 59.6667 21.5 61.3 21.5 62.5C21.5 63.7 20.5 63.3333 20 63Z" fill="#F4D8BD"/>
<path d="M18.5 64.5C19.3 64.1 19.8333 63.3333 20 63L21.5 62.5C21.8333 62.3333 22.5 62.3 22.5 63.5C22.5 65 21 65.5 19.5 66C18 66.5 17.5 66 17.5 65.5C17.5 65 17.5 65 18.5 64.5Z" fill="#996B38"/>
<path d="M16.5 10.5C16.1 10.5 15.6667 9.16667 15.5 8.5C15.6667 8.33333 16.2 8 17 8C18 8 18.5 10 18.5 10.5C18.5 11 17 10.5 16.5 10.5Z" fill="#996B38"/>
<path d="M12.5 63.5C12.1 63.1 12 60.6667 12 59.5H14.5V63C14.5 63.5 14 64 13.5 64C13 64 13 64 12.5 63.5Z" fill="#F4D8BD"/>
<path d="M41.5 64C41.9 64 42.6667 62.6667 43 62H45.5C46 62 46 63 46 63.5C46 64 44.5 65.5 43 66C41.5 66.5 40 65.5 40 65C40 64.5 41 64 41.5 64Z" fill="#996B38"/>
<path d="M28 63C28.4 62.6 30.8333 62.8333 32 63C32.5 63 33.6 63.1 34 63.5C34.5 64 34 64.5 34 65C34 65.5 30.5 65 29.5 65C28.5 65 27.5 63.5 28 63Z" fill="#996B38"/>
<path d="M36.5 2C36.1 2.8 36.3333 3.66667 36.5 4C38.5 4.5 42.6 5.5 43 5.5C43.5 5.5 43.5 4.5 43.5 3.5C43.5 2.5 42 2 41.5 1C41 0 38.5 0.5 38 0.5C37.5 0.5 37 1 36.5 2Z" fill="#996B38"/>
<path d="M31.5 61.5C31.6667 53.6667 32.1 36.3 32.5 29.5C34.1 27.5 41.1667 28 44.5 28.5C45.1667 38.8333 46.4 59.9 46 61.5C45.5 63.5 44 62 43 62C42 62 41 56 40.5 54.5C40 53 39 39 39 37.5C39 36 38.5 37 37.5 37C36.5 37 34.5 63 34.5 63.5C34.5 64 33.5 63.5 32.5 63.5C31.7 63.5 31.5 62.1667 31.5 61.5Z" fill="#F09839"/>
<path d="M38 7C37.2 6.6 37.3333 4.5 37.5 3.5C37.5336 3.27349 38.1807 3.07229 38.5 3H40.5C41 3 42 3.2 42 4C42 5 42.5 5 42.5 5.5C42.5 6 42 6.5 41.5 6.5C41 6.5 41.5 7 41 7.5C40.5 8 41 8 40.5 8.5C40.1464 8.85355 39 8.5 39 8C39 7.5 39 7.5 38 7.00001L38 7Z" fill="#F4D8BD"/>
<path d="M40 8C39.8333 8 39.3 7.9 38.5 7.5L38 15.5H41V7.5L40 8Z" fill="white"/>
<path d="M45.5 10.5C43.5 8.5 43.5 8.5 41 8C39.8 8.4 38.8333 12.8333 38.5 15C38.6667 12.6667 38.9 8 38.5 8C36 8 34.5 11.5 33.5 13C32.5 14.5 32.5 16.5 31.5 16.5C30.5 16.5 29 12.5 28.5 12C28 11.5 27 13.5 26 14C25 14.5 29.5 22 30.5 22C31.5 22 33.5 21 34.5 20C35.5 19 34 23.5 34 25C34 26.5 32.5 27.5 32.5 29C32.5 30.5 39.5 30.5 40.5 30.5C41.5 30.5 44 29 44.5 28.5C45 28 45 21 45.5 20.5C46 20 47 20.5 47.5 21C48 21.5 47.5 27 47.5 28C47.5 28.8 48.1667 29 48.5 29C48.8333 29 49.5 28.9 49.5 28.5C49.5 28 50.5 26.5 50.5 24.5C50.5 22.5 50 18 49.5 16.5C49 15 47.5 12.5 45.5 10.5Z" fill="#F3E177"/>
<path d="M25 9.49998C25 7.99998 26.5 7.99998 26.5 8.99998C26.5 9.99998 27 10.5 28 12C27.8333 12.8333 27.3 14.3 26.5 13.5C26.5 13 26.4 12 26 12C25.5 12 25 11 25 9.49998Z" fill="#F4D8BD"/>
<path d="M48.5 32C48.1 31.2 48 29.1667 48 28.5H49C49.1667 29 49.6 30.5 50 30.5C50.5 30.5 51.5 32.5 50.5 33C49.5 33.5 49 33 48.5 32Z" fill="#F4D8BD"/>
</svg>
