<svg width="45" height="69" viewBox="0 0 45 69" fill="none" xmlns="http://www.w3.org/2000/svg">
<path d="M5.5 21.5C6.7 20.7 9 17.1667 10 15.5C9.83333 16.6667 9.3 19.6 8.5 22C7.5 25 5.5 26 5.5 26.5C5.5 27 4 22.5 5.5 21.5Z" fill="#EDB95B"/>
<path d="M17.5 11C17 10.5 15.8 8.9 15 6.5C13.3333 6.5 10.1 6.6 10.5 7C10.9 7.4 8.5 11.1667 8 13C8.83333 13.1667 9.5 14 12.5 14C15.5 14 17 12 17.5 11Z" fill="#F3E177"/>
<path d="M5.5 17.5001C6 17.0001 8 15.5001 10 15.5001C11 18.5001 9 17.5001 8.5 18.0001C8 18.5001 4.5 20.0001 3.5 20.0001C2.5 20.0001 3.5 14.5001 3.5 13.0001C3.5 11.5001 5.5 10.5001 6.5 11.0001C7.5 11.5001 5.5 12.5001 5 13.5001C4.5 14.5001 5 18.0001 5.5 17.5001Z" fill="#F4D8BD"/>
<path d="M18 17.0001C18 16.2001 16.3333 15.6667 15.5 15.5001V28C15.5 28.5 16 29 16.5 30C17 31 17.5 29 17 28C16.5 27 18 19.5 18 17.0001Z" fill="#F4D8BD"/>
<path d="M14.5 10.5C14.5 9.3 14.1667 7.66667 14 7H11.5C11.3333 7.5 11 8.9 11 10.5C11 12.5 12 14 12 14.5C12 15 12 16.5 13 16.5C14 16.5 14 15 14 14.5C14 14 14.5 12 14.5 10.5Z" fill="#F4D8BD"/>
<path d="M10.5 14C11 12.6667 12.6 8.7 13 7.5L10.5 8.5V14Z" fill="#F3E177"/>
<path d="M8 18.5C8.5 18.1667 9.2 17.9 10 15.5H15.5C16 16.8333 17 18.7 17 19.5C17 20.3 16 22.8333 15.5 23.5C15.5 24.3333 15.6 26.4 16 28C16 30.5 18.5 41.5 19.5 44.5C20.5 47.5 21.5 54.5 22 56.5C22.5 58.5 19.5 59 17.5 59.5C15.5 60 10.5 58 8.5 57.5C6.5 57 3 58.5 1.5 58.5C1.78814e-07 58.5 1 54.5 1 54C1 53.6 2.33333 49.5 3 47.5C3.5 46 3.5 40 4 37.5C4.19612 36.5194 7 27.5 8 25C8.8 23 8.5 19.5 8 18.5Z" fill="#996B38"/>
<path d="M10 15.5C10.1667 15.1667 10.8 14.4 12 14C12 14.5 12.2 15.6 13 16C13.8 16.4 15.3333 19 16 20C15.5 20.8333 14.5 22.3 14.5 21.5C14.5 20.7 13.5 18.6667 13 18L10 15.5Z" fill="#EDB95B"/>
<path d="M15.5 15.5C15.3333 15.1667 15.2 14.4 14 14C14 14.5 13.8 15.6 13 16C12.2 16.4 9.66667 20 9 21C9.5 21.8333 10.5 23.3 10.5 22.5C10.5 21.7 12.5 18.6667 13 18L15.5 15.5Z" fill="#EDB95B"/>
<path d="M14.5 64C14.5 63.2 15.1667 63 15.5 63C16.1667 62.8334 17.5 62.6 17.5 63C17.5 63.5 18.5 65.5 19 65.5C19.5 65.5 20 67.5 19 67.5C18 67.5 14.5 65 14.5 64Z" fill="#996B38"/>
<path d="M5.5 65.5C5.1 65.1 6 64.3333 6.5 64L9 63.5C9.16667 64.1667 9.6 65.7 10 66.5C10.5 67.5 11.5 66 12 67C12.5 68 11 68.5 10 68.5C9 68.5 6 66 5.5 65.5Z" fill="#996B38"/>
<path d="M6.5 63.5V57.5C6 56.5 9 55.5 9 57.5V63.5C8.83333 63.8334 8.75398 65 7.5 65C6.7 65 6.5 63.8334 6.5 63.5Z" fill="#F4D8BD"/>
<path d="M15.5 62.5V57C16.1667 56.5 17.5 55.8 17.5 57V62.5C17.5 63 17.3 64 16.5 64C15.7 64 15.5 63 15.5 62.5Z" fill="#F4D8BD"/>
<path d="M7 12.5001C5.5 13.0001 5 11.5001 5.5 9.00013H7C7.4 9.00013 6.5 8.00016 7 6.00006C7.33333 5.16675 8.4 3.50013 10 3.50013C11.6 3.50013 12.5 4.50016 12.5 4.50016C12.5 4.50016 15.25 1.5 16 3.00007C16.5 4.00008 15.5 6.00013 14.5 6.50013C13.5 7.00013 8.5 12.0001 7 12.5001Z" fill="#996B38"/>
<path d="M12.5 4.5C9.5 7.5 7.5 8.5 7 8.5" stroke="#F3E177" stroke-linecap="round"/>
<path d="M23.5 3.99995C23 4.99995 23.5 6.99995 24.5 8.49995C25 9.37328 30 6.5 30.5 6.5C31 6.5 31.5 4.5 31.5 3.99995C31.5 3.49991 30 1.49995 28 0.999954C26 0.499954 24 2.99995 23.5 3.99995Z" fill="#996B38"/>
<path d="M22 2.5C22 3.5 22.5 3.5 24.5 3.5C24.8333 3.33333 25.5 2.8 25.5 2C25.5 1 24.5 0.5 23.5 0.5C22.5 0.5 22 1.5 22 2.5Z" fill="#996B38"/>
<path d="M30 9.00002C30.8 8.60002 30.6667 6.50002 30.5 5.50002C30.4121 3.25401 27.5 3.50002 26.5 4.50002C25.7 5.30002 26.1667 6.50002 26.5 7.00002C26 7.16669 25.2 7.70002 26 8.50002C27 9.50002 27 8.00002 27.5 9.00002C27.9 9.80002 27.3333 10.6667 27 11V16.5H31V11.5L30 11C29.6667 10.5 29.2 9.40002 30 9.00002Z" fill="#F4D8BD"/>
<path d="M29 15.5C27.8 15.5 26.8333 14.8333 26.5 14.5V23H32V14.5C31.5 14.8333 30.2 15.5 29 15.5Z" fill="white"/>
<path d="M27 4.00004C28.3333 4.50004 31.1 5.20004 31.5 4.00004C32 2.50004 26.5 2.00004 27 4.00004Z" fill="#996B38"/>
<path d="M26 6.99999C26.8 6.99999 27 4.99999 27 3.99999C25.8 1.59999 25.1667 3.33333 25 4.49999C25 5.33333 25.2 6.99999 26 6.99999Z" fill="#996B38"/>
<path d="M32.5 64.4999C32.5 64.0999 32.8333 63.6666 33 63.4999C33 62.6999 33.6667 63.1666 34 63.4999C34.5 63.8333 35.6 64.4999 36 64.4999C36.5 64.4999 38.5 64.9999 38.5 65.9999C38.5 66.9999 36 66.9999 35.5 66.9999C35 66.9999 32.5 64.9999 32.5 64.4999Z" fill="#996B38"/>
<path d="M21 64.5C21 64.1 21 62.9999 22 62.9999C22.6667 62.6666 24 62.1999 24 62.9999C24 63.9999 26 65.4999 26.5 65.4999C27 65.4999 27 67.4999 26 67.9999C25 68.4999 21 65 21 64.5Z" fill="#996B38"/>
<path d="M22 62.5C22 62.1 21.6667 48.6667 21.5 42V40H27.5H33.5C33.8333 47.5 34.5 62.6 34.5 63C34.5 63.4 33.8333 63.5 33.5 63.5C33.3333 63.5 32.9 63.4 32.5 63C32 62.5 28 40 27.5 40C27.1 40 25.3333 55 24.5 62.5C24.1667 62.6667 23.4 63 23 63C22.5 63 22 63 22 62.5Z" fill="#F3E177"/>
<path d="M35.5 11.5L30 11L30.5 22C30.1667 21.8333 29.3 20 28.5 18C27.7 16 27.1667 12.8333 27 11C25.1667 11.1667 21.7 11.7 22.5 12.5C23.5 13.5 20.5 41 20.5 41.5C20.5 41.9 25.1667 41.6667 27.5 41.5C29.8333 41.3333 34.4 41.4 34 41C33.5 40.5 33.5 24.5 33.5 20.5C33.5 17.3 33.8333 15.5 34 15C34.6667 15.1667 35.9 15.4 35.5 15C35.1 14.6 35.3333 12.5 35.5 11.5Z" fill="#EDB95B"/>
<path d="M39 4.5L40.5 10.5L43.5 9L42 3.5L39 4.5Z" fill="#F3E177"/>
<path d="M40.5 11C40.1 11.8 37 11.6669 35.5 11.5002C33.5 11.3758 34.5 15.0003 35.5 15.0003C36.5 15.0003 40.5 12 41 12C41.5 12 43.5 10.5 44 9C44.5 7.5 42.5 8.00004 42 8.00004C41.6 8.00004 41.5 9.16696 41.5 10.0003C41.5 9.66694 41.5 9.00017 41 9.00017C40.2929 9.00017 41 10 40.5 11Z" fill="#F4D8BD"/>
<path d="M20.5 20.5C20.5 21 21 21.5 22 21.5C23.2 21.5 23.5 20.8333 23.5 20.5C23.3333 17.1667 23.1 10.5 23.5 10.5C24 10.5 24 9 23.5 8.5C23 8 22.5 5.5 22 5.5C21.5 5.5 22.5 8 22.5 8.5C22.5 9 21.5 6 21 6C20.5 6 21.5 8 21.5 8.5C21.5 9 21 10 21.5 10.5C22 11 20.5 20 20.5 20.5Z" fill="#F4D8BD"/>
</svg>
