<svg width="248" height="67" viewBox="0 0 248 67" fill="none" xmlns="http://www.w3.org/2000/svg">
<mask id="path-1-outside-1_13_436" maskUnits="userSpaceOnUse" x="0" y="0" width="248" height="67" fill="black">
<rect fill="white" width="248" height="67"/>
<path d="M20.0439 50.8545V52.2773H12.2939V29.1484L13.7773 29.4814C14.3626 29.5824 14.8369 29.6732 15.2002 29.7539C15.5635 29.8145 15.9066 29.8851 16.2295 29.9658C16.5524 30.0264 16.9157 30.1071 17.3193 30.208C17.723 30.2887 18.2376 30.3997 18.8633 30.541L20.1045 30.7832H29.9736V27.2412H6.02734L4.60449 22.5791H21.1035V16.7666H9.75098L8.26758 12.165H21.1035V4.59668C23.6465 4.71777 25.6647 4.86914 27.1582 5.05078C28.6719 5.21224 29.7516 5.42415 30.3975 5.68652C31.0635 5.92871 31.3965 6.25163 31.3965 6.65527C31.3965 6.91764 31.2048 7.24056 30.8213 7.62402C30.458 7.9873 29.8424 8.43132 28.9746 8.95605V12.165H38.4502V4.47559C40.9932 4.61686 43.0417 4.78841 44.5957 4.99023C46.1497 5.17188 47.2699 5.39388 47.9561 5.65625C48.6624 5.91862 49.0156 6.25163 49.0156 6.65527C49.0156 6.91764 48.8037 7.25065 48.3799 7.6543C47.9762 8.03776 47.3001 8.51204 46.3516 9.07715V12.165H50.3779L53.9502 8.13867C55.04 8.96615 55.9886 9.74316 56.7959 10.4697C57.6234 11.1963 58.4609 12.0137 59.3086 12.9219L60.0957 13.709L58.3096 16.7666H46.3516V22.5791H53.1631L57.0078 18.3105C57.916 18.9967 58.7233 19.6426 59.4297 20.248C60.1361 20.8333 60.8021 21.4287 61.4277 22.0342C62.0534 22.6195 62.7093 23.2754 63.3955 24.002L61.6396 27.2412H37.542V30.7832H47.1992L50.3174 27.9072C52.2549 29.1787 53.7585 30.2181 54.8281 31.0254C55.8978 31.8125 56.6445 32.4482 57.0684 32.9326C57.5124 33.417 57.7344 33.8307 57.7344 34.1738C57.7344 34.3757 57.6738 34.5573 57.5527 34.7188C57.4518 34.8802 57.2904 35.0518 57.0684 35.2334L55.252 36.5957V51.9746H47.502V50.8545H20.0439ZM28.9746 16.7666V22.5791H38.4502V16.7666H28.9746ZM20.0439 38.5938H29.9736V34.9307H20.0439V38.5938ZM37.542 38.5938H47.502V34.9307H37.542V38.5938ZM20.0439 46.5859H29.9736V42.5596H20.0439V46.5859ZM37.542 46.5859H47.502V42.5596H37.542V46.5859ZM7.02637 63.2666L4.90723 59.1797C7.38965 58.6751 9.81152 58.0192 12.1729 57.2119C14.5544 56.4248 16.7744 55.5267 18.833 54.5176C20.8916 53.4883 22.6777 52.3984 24.1914 51.248C26.9564 52.8828 28.9342 54.1846 30.125 55.1533C31.3359 56.1221 31.9414 56.9193 31.9414 57.5449C31.9414 58.2109 31.0938 58.5439 29.3984 58.5439C29.2773 58.5439 29.0957 58.5339 28.8535 58.5137C28.6113 58.5137 28.359 58.5036 28.0967 58.4834C26.4417 59.1898 24.5042 59.8457 22.2842 60.4512C20.0641 61.0566 17.6624 61.5915 15.0791 62.0557C12.4958 62.54 9.81152 62.9437 7.02637 63.2666ZM37.0879 55.5771L39.3281 52.0352C43.2435 52.3177 46.5635 52.6406 49.2881 53.0039C52.0127 53.347 54.2126 53.7607 55.8877 54.2451C57.5628 54.7093 58.7839 55.2542 59.5508 55.8799C60.3379 56.5055 60.7314 57.2321 60.7314 58.0596C60.7314 58.5238 60.6204 59.0283 60.3984 59.5732C60.1966 60.1383 59.8939 60.764 59.4902 61.4502C58.9857 62.2373 58.5013 62.8024 58.0371 63.1455C57.5931 63.5088 57.1289 63.6904 56.6445 63.6904C56.3216 63.6904 55.9987 63.6198 55.6758 63.4785C55.373 63.3574 54.9896 63.1455 54.5254 62.8428C53.1732 61.874 51.5788 60.9456 49.7422 60.0576C47.9258 59.1696 45.9378 58.3421 43.7783 57.5752C41.639 56.8083 39.4089 56.1423 37.0879 55.5771ZM98.5442 28.7246V35.415H107.899L111.683 31.5098C112.47 32.0951 113.136 32.6198 113.681 33.084C114.246 33.528 114.761 33.9619 115.225 34.3857C115.689 34.7894 116.153 35.2233 116.617 35.6875C117.102 36.1517 117.647 36.7067 118.252 37.3525L116.466 40.3193H98.5442V55.6377H111.562L115.77 50.7939C116.779 51.6618 117.647 52.4388 118.373 53.125C119.1 53.8112 119.766 54.4974 120.371 55.1836C120.997 55.8496 121.633 56.5964 122.279 57.4238L120.371 60.6631H69.4514L67.9075 55.6377H90.3098V40.3193H72.8723L71.4495 35.415H90.3098V28.7246H83.468L82.6203 26C80.6021 27.4733 78.3417 28.9163 75.8391 30.3291C73.3365 31.7217 70.7935 32.9427 68.2102 33.9922L65.4856 30.0869C68.1496 28.7549 70.7027 27.1807 73.1448 25.3643C75.5868 23.5277 77.8573 21.4993 79.9563 19.2793C82.0552 17.0592 83.9423 14.6979 85.6174 12.1953C87.3127 9.67253 88.7457 7.05892 89.9162 4.35449C92.661 4.9196 94.8306 5.41406 96.425 5.83789C98.0396 6.26172 99.2001 6.65527 99.9065 7.01855C100.613 7.36165 100.966 7.73503 100.966 8.13867C100.966 8.70378 100.118 9.30924 98.4231 9.95508L98.6653 10.1973C101.006 12.3366 103.58 14.3145 106.385 16.1309C109.19 17.9473 112.127 19.5518 115.195 20.9443C118.282 22.3167 121.391 23.4268 124.519 24.2744C123.489 25.3239 122.49 26.555 121.522 27.9678C120.553 29.3805 119.695 30.8135 118.948 32.2666C115.457 30.4502 112.319 28.5934 109.533 26.6963C106.768 24.779 104.236 22.7305 101.935 20.5508C99.6542 18.3509 97.4947 15.9089 95.4563 13.2246C92.5097 17.2611 88.9879 20.9443 84.8909 24.2744H97.5452L100.451 21.3379C101.299 21.9434 102.066 22.5085 102.752 23.0332C103.459 23.5579 104.135 24.0928 104.781 24.6377C105.447 25.1624 106.133 25.7578 106.839 26.4238L105.416 28.7246H98.5442ZM105.174 55.2744L101.45 53.6396C102.46 51.8232 103.317 49.9261 104.024 47.9482C104.73 45.9502 105.366 43.7604 105.931 41.3789C108.191 42.1055 109.998 42.7412 111.35 43.2861C112.722 43.8311 113.721 44.3255 114.347 44.7695C114.973 45.1934 115.285 45.5869 115.285 45.9502C115.285 46.2731 115.053 46.5557 114.589 46.7979C114.145 47.0199 113.429 47.262 112.44 47.5244C111.471 48.8766 110.391 50.1784 109.2 51.4297C108.03 52.6608 106.688 53.9424 105.174 55.2744ZM74.719 43.9824L77.3528 41.5605C80.6021 43.1348 82.9937 44.6182 84.5276 46.0107C86.0614 47.3831 86.8284 48.7354 86.8284 50.0674C86.8284 51.5407 85.7688 52.903 83.6496 54.1543C83.1451 54.457 82.6708 54.6891 82.2268 54.8506C81.7828 55.012 81.369 55.0928 80.9856 55.0928C80.3398 55.0928 79.8856 54.9313 79.6233 54.6084C79.3609 54.2653 79.1389 53.5993 78.9573 52.6104C78.6747 51.0765 78.1601 49.5628 77.4133 48.0693C76.6868 46.5758 75.7886 45.2135 74.719 43.9824ZM140.081 55.2744V51.0361C141.453 51.238 142.967 51.3893 144.622 51.4902C146.297 51.571 147.861 51.6113 149.314 51.6113C150.323 51.6113 150.999 51.4499 151.342 51.127C151.685 50.804 151.857 50.1784 151.857 49.25V6.59473C154.682 6.77637 156.933 6.97819 158.608 7.2002C160.283 7.40202 161.484 7.6543 162.21 7.95703C162.957 8.23958 163.331 8.59277 163.331 9.0166C163.331 9.37988 163.098 9.77344 162.634 10.1973C162.19 10.6211 161.413 11.1559 160.303 11.8018V52.792C160.303 54.5075 160.122 55.9404 159.758 57.0908C159.395 58.2412 158.81 59.1595 158.002 59.8457C157.235 60.5319 156.136 61.0667 154.703 61.4502C153.29 61.8337 151.685 62.0254 149.889 62.0254C149.748 62.0254 149.536 62.0153 149.253 61.9951C148.991 61.9951 148.698 61.985 148.375 61.9648C148.416 60.9557 148.335 60.1081 148.133 59.4219C147.931 58.7559 147.528 58.1807 146.922 57.6963C146.337 57.2321 145.489 56.8184 144.379 56.4551C143.29 56.0716 141.857 55.6781 140.081 55.2744ZM164.087 21.2773L167.993 18.25C169.809 19.9251 171.525 21.6709 173.139 23.4873C174.754 25.2835 176.237 27.0898 177.589 28.9062C178.942 30.7227 180.102 32.4785 181.071 34.1738C182.06 35.849 182.817 37.403 183.341 38.8359C183.886 40.2689 184.159 41.5101 184.159 42.5596C184.159 44.598 183.21 46.2327 181.313 47.4639C180.566 47.9684 179.789 48.3721 178.982 48.6748C178.195 48.9775 177.529 49.1289 176.984 49.1289C175.531 49.1289 174.612 48.14 174.229 46.1621C173.805 43.599 173.119 40.9147 172.17 38.1094C171.222 35.2839 170.061 32.4382 168.689 29.5723C167.317 26.7064 165.783 23.9414 164.087 21.2773ZM131.453 51.4297L127.063 48.4932C128.476 45.8896 129.757 43.0137 130.908 39.8652C132.058 36.7168 133.057 33.3766 133.905 29.8447C134.773 26.2926 135.449 22.6296 135.933 18.8555C140.111 20.0866 143.138 21.1562 145.015 22.0645C146.892 22.9525 147.831 23.7497 147.831 24.4561C147.831 24.8395 147.558 25.1927 147.013 25.5156C146.468 25.8184 145.6 26.1211 144.41 26.4238C143.562 29.5723 142.492 32.64 141.201 35.627C139.929 38.6139 138.466 41.4395 136.811 44.1035C135.176 46.7676 133.39 49.2096 131.453 51.4297ZM207.592 32.2666V39.8955H212.193L215.856 35.415C216.704 36.2021 217.44 36.9186 218.066 37.5645C218.712 38.1901 219.307 38.8258 219.852 39.4717C220.417 40.1175 221.003 40.834 221.608 41.6211L219.701 44.9209H207.592V63.0244H199.902V44.9209H188.307L186.884 39.8955H199.902V32.2666H189.549L188.186 27.3018H199.902V4.86914C202.485 5.0306 204.514 5.20215 205.987 5.38379C207.46 5.56543 208.5 5.77734 209.105 6.01953C209.711 6.26172 210.013 6.57454 210.013 6.95801C210.013 7.28092 209.832 7.63411 209.468 8.01758C209.105 8.38086 208.48 8.87533 207.592 9.50098V27.3018H212.496L215.523 23.3965C216.189 24.0827 216.754 24.6882 217.218 25.2129C217.683 25.7174 218.137 26.2624 218.581 26.8477C219.025 27.4329 219.539 28.1595 220.125 29.0273L218.581 32.2666H207.592ZM223.667 56.7578V52.9131C224.857 53.0342 226.2 53.125 227.693 53.1855C229.207 53.2461 230.69 53.2764 232.143 53.2764C233.112 53.2764 233.748 53.1452 234.051 52.8828C234.353 52.6003 234.505 52.0251 234.505 51.1572V5.23242C237.068 5.47461 239.086 5.7168 240.559 5.95898C242.033 6.18099 243.072 6.42318 243.677 6.68555C244.303 6.94792 244.616 7.27083 244.616 7.6543C244.616 7.91667 244.424 8.22949 244.041 8.59277C243.677 8.95605 243.022 9.45052 242.073 10.0762V54.6992C242.093 56.7578 241.78 58.3926 241.134 59.6035C240.509 60.8346 239.449 61.7025 237.956 62.207C236.482 62.7318 234.484 62.984 231.962 62.9639C231.982 62.096 231.871 61.3493 231.629 60.7236C231.386 60.098 230.963 59.5531 230.357 59.0889C229.752 58.6449 228.904 58.2311 227.814 57.8477C226.745 57.4844 225.362 57.1211 223.667 56.7578ZM212.133 25.001L208.53 23.3359C209.115 21.8223 209.65 20.2077 210.134 18.4922C210.639 16.7565 211.083 15.0007 211.467 13.2246C211.85 11.4486 212.153 9.73307 212.375 8.07812C214.595 8.92578 216.361 9.65234 217.673 10.2578C219.005 10.8633 219.963 11.388 220.549 11.832C221.134 12.2559 221.426 12.6595 221.426 13.043C221.426 13.3457 221.204 13.6383 220.76 13.9209C220.337 14.1833 219.65 14.4658 218.702 14.7686C217.713 16.6859 216.633 18.5527 215.463 20.3691C214.292 22.1855 213.182 23.7295 212.133 25.001ZM188.307 10.9238L191.486 8.95605C194.009 11.4587 195.835 13.6182 196.966 15.4346C198.096 17.251 198.661 18.8757 198.661 20.3086C198.661 21.9635 197.773 23.2653 195.997 24.2139C194.806 24.8597 193.797 25.1826 192.969 25.1826C192.485 25.1826 192.102 25.0918 191.819 24.9102C191.537 24.7285 191.335 24.3955 191.214 23.9111C191.092 23.4268 190.992 22.7204 190.911 21.792C190.79 19.9554 190.497 18.0885 190.033 16.1914C189.589 14.2741 189.014 12.5182 188.307 10.9238ZM222.607 46.9492V10.4395C225.029 10.6413 226.926 10.8431 228.299 11.0449C229.671 11.2467 230.63 11.4688 231.175 11.7109C231.74 11.9531 232.022 12.2559 232.022 12.6191C232.022 12.8613 231.83 13.1742 231.447 13.5576C231.084 13.9209 230.488 14.3649 229.661 14.8896V46.9492H222.607Z"/>
</mask>
<path d="M20.0439 50.8545V52.2773H12.2939V29.1484L13.7773 29.4814C14.3626 29.5824 14.8369 29.6732 15.2002 29.7539C15.5635 29.8145 15.9066 29.8851 16.2295 29.9658C16.5524 30.0264 16.9157 30.1071 17.3193 30.208C17.723 30.2887 18.2376 30.3997 18.8633 30.541L20.1045 30.7832H29.9736V27.2412H6.02734L4.60449 22.5791H21.1035V16.7666H9.75098L8.26758 12.165H21.1035V4.59668C23.6465 4.71777 25.6647 4.86914 27.1582 5.05078C28.6719 5.21224 29.7516 5.42415 30.3975 5.68652C31.0635 5.92871 31.3965 6.25163 31.3965 6.65527C31.3965 6.91764 31.2048 7.24056 30.8213 7.62402C30.458 7.9873 29.8424 8.43132 28.9746 8.95605V12.165H38.4502V4.47559C40.9932 4.61686 43.0417 4.78841 44.5957 4.99023C46.1497 5.17188 47.2699 5.39388 47.9561 5.65625C48.6624 5.91862 49.0156 6.25163 49.0156 6.65527C49.0156 6.91764 48.8037 7.25065 48.3799 7.6543C47.9762 8.03776 47.3001 8.51204 46.3516 9.07715V12.165H50.3779L53.9502 8.13867C55.04 8.96615 55.9886 9.74316 56.7959 10.4697C57.6234 11.1963 58.4609 12.0137 59.3086 12.9219L60.0957 13.709L58.3096 16.7666H46.3516V22.5791H53.1631L57.0078 18.3105C57.916 18.9967 58.7233 19.6426 59.4297 20.248C60.1361 20.8333 60.8021 21.4287 61.4277 22.0342C62.0534 22.6195 62.7093 23.2754 63.3955 24.002L61.6396 27.2412H37.542V30.7832H47.1992L50.3174 27.9072C52.2549 29.1787 53.7585 30.2181 54.8281 31.0254C55.8978 31.8125 56.6445 32.4482 57.0684 32.9326C57.5124 33.417 57.7344 33.8307 57.7344 34.1738C57.7344 34.3757 57.6738 34.5573 57.5527 34.7188C57.4518 34.8802 57.2904 35.0518 57.0684 35.2334L55.252 36.5957V51.9746H47.502V50.8545H20.0439ZM28.9746 16.7666V22.5791H38.4502V16.7666H28.9746ZM20.0439 38.5938H29.9736V34.9307H20.0439V38.5938ZM37.542 38.5938H47.502V34.9307H37.542V38.5938ZM20.0439 46.5859H29.9736V42.5596H20.0439V46.5859ZM37.542 46.5859H47.502V42.5596H37.542V46.5859ZM7.02637 63.2666L4.90723 59.1797C7.38965 58.6751 9.81152 58.0192 12.1729 57.2119C14.5544 56.4248 16.7744 55.5267 18.833 54.5176C20.8916 53.4883 22.6777 52.3984 24.1914 51.248C26.9564 52.8828 28.9342 54.1846 30.125 55.1533C31.3359 56.1221 31.9414 56.9193 31.9414 57.5449C31.9414 58.2109 31.0938 58.5439 29.3984 58.5439C29.2773 58.5439 29.0957 58.5339 28.8535 58.5137C28.6113 58.5137 28.359 58.5036 28.0967 58.4834C26.4417 59.1898 24.5042 59.8457 22.2842 60.4512C20.0641 61.0566 17.6624 61.5915 15.0791 62.0557C12.4958 62.54 9.81152 62.9437 7.02637 63.2666ZM37.0879 55.5771L39.3281 52.0352C43.2435 52.3177 46.5635 52.6406 49.2881 53.0039C52.0127 53.347 54.2126 53.7607 55.8877 54.2451C57.5628 54.7093 58.7839 55.2542 59.5508 55.8799C60.3379 56.5055 60.7314 57.2321 60.7314 58.0596C60.7314 58.5238 60.6204 59.0283 60.3984 59.5732C60.1966 60.1383 59.8939 60.764 59.4902 61.4502C58.9857 62.2373 58.5013 62.8024 58.0371 63.1455C57.5931 63.5088 57.1289 63.6904 56.6445 63.6904C56.3216 63.6904 55.9987 63.6198 55.6758 63.4785C55.373 63.3574 54.9896 63.1455 54.5254 62.8428C53.1732 61.874 51.5788 60.9456 49.7422 60.0576C47.9258 59.1696 45.9378 58.3421 43.7783 57.5752C41.639 56.8083 39.4089 56.1423 37.0879 55.5771ZM98.5442 28.7246V35.415H107.899L111.683 31.5098C112.47 32.0951 113.136 32.6198 113.681 33.084C114.246 33.528 114.761 33.9619 115.225 34.3857C115.689 34.7894 116.153 35.2233 116.617 35.6875C117.102 36.1517 117.647 36.7067 118.252 37.3525L116.466 40.3193H98.5442V55.6377H111.562L115.77 50.7939C116.779 51.6618 117.647 52.4388 118.373 53.125C119.1 53.8112 119.766 54.4974 120.371 55.1836C120.997 55.8496 121.633 56.5964 122.279 57.4238L120.371 60.6631H69.4514L67.9075 55.6377H90.3098V40.3193H72.8723L71.4495 35.415H90.3098V28.7246H83.468L82.6203 26C80.6021 27.4733 78.3417 28.9163 75.8391 30.3291C73.3365 31.7217 70.7935 32.9427 68.2102 33.9922L65.4856 30.0869C68.1496 28.7549 70.7027 27.1807 73.1448 25.3643C75.5868 23.5277 77.8573 21.4993 79.9563 19.2793C82.0552 17.0592 83.9423 14.6979 85.6174 12.1953C87.3127 9.67253 88.7457 7.05892 89.9162 4.35449C92.661 4.9196 94.8306 5.41406 96.425 5.83789C98.0396 6.26172 99.2001 6.65527 99.9065 7.01855C100.613 7.36165 100.966 7.73503 100.966 8.13867C100.966 8.70378 100.118 9.30924 98.4231 9.95508L98.6653 10.1973C101.006 12.3366 103.58 14.3145 106.385 16.1309C109.19 17.9473 112.127 19.5518 115.195 20.9443C118.282 22.3167 121.391 23.4268 124.519 24.2744C123.489 25.3239 122.49 26.555 121.522 27.9678C120.553 29.3805 119.695 30.8135 118.948 32.2666C115.457 30.4502 112.319 28.5934 109.533 26.6963C106.768 24.779 104.236 22.7305 101.935 20.5508C99.6542 18.3509 97.4947 15.9089 95.4563 13.2246C92.5097 17.2611 88.9879 20.9443 84.8909 24.2744H97.5452L100.451 21.3379C101.299 21.9434 102.066 22.5085 102.752 23.0332C103.459 23.5579 104.135 24.0928 104.781 24.6377C105.447 25.1624 106.133 25.7578 106.839 26.4238L105.416 28.7246H98.5442ZM105.174 55.2744L101.45 53.6396C102.46 51.8232 103.317 49.9261 104.024 47.9482C104.73 45.9502 105.366 43.7604 105.931 41.3789C108.191 42.1055 109.998 42.7412 111.35 43.2861C112.722 43.8311 113.721 44.3255 114.347 44.7695C114.973 45.1934 115.285 45.5869 115.285 45.9502C115.285 46.2731 115.053 46.5557 114.589 46.7979C114.145 47.0199 113.429 47.262 112.44 47.5244C111.471 48.8766 110.391 50.1784 109.2 51.4297C108.03 52.6608 106.688 53.9424 105.174 55.2744ZM74.719 43.9824L77.3528 41.5605C80.6021 43.1348 82.9937 44.6182 84.5276 46.0107C86.0614 47.3831 86.8284 48.7354 86.8284 50.0674C86.8284 51.5407 85.7688 52.903 83.6496 54.1543C83.1451 54.457 82.6708 54.6891 82.2268 54.8506C81.7828 55.012 81.369 55.0928 80.9856 55.0928C80.3398 55.0928 79.8856 54.9313 79.6233 54.6084C79.3609 54.2653 79.1389 53.5993 78.9573 52.6104C78.6747 51.0765 78.1601 49.5628 77.4133 48.0693C76.6868 46.5758 75.7886 45.2135 74.719 43.9824ZM140.081 55.2744V51.0361C141.453 51.238 142.967 51.3893 144.622 51.4902C146.297 51.571 147.861 51.6113 149.314 51.6113C150.323 51.6113 150.999 51.4499 151.342 51.127C151.685 50.804 151.857 50.1784 151.857 49.25V6.59473C154.682 6.77637 156.933 6.97819 158.608 7.2002C160.283 7.40202 161.484 7.6543 162.21 7.95703C162.957 8.23958 163.331 8.59277 163.331 9.0166C163.331 9.37988 163.098 9.77344 162.634 10.1973C162.19 10.6211 161.413 11.1559 160.303 11.8018V52.792C160.303 54.5075 160.122 55.9404 159.758 57.0908C159.395 58.2412 158.81 59.1595 158.002 59.8457C157.235 60.5319 156.136 61.0667 154.703 61.4502C153.29 61.8337 151.685 62.0254 149.889 62.0254C149.748 62.0254 149.536 62.0153 149.253 61.9951C148.991 61.9951 148.698 61.985 148.375 61.9648C148.416 60.9557 148.335 60.1081 148.133 59.4219C147.931 58.7559 147.528 58.1807 146.922 57.6963C146.337 57.2321 145.489 56.8184 144.379 56.4551C143.29 56.0716 141.857 55.6781 140.081 55.2744ZM164.087 21.2773L167.993 18.25C169.809 19.9251 171.525 21.6709 173.139 23.4873C174.754 25.2835 176.237 27.0898 177.589 28.9062C178.942 30.7227 180.102 32.4785 181.071 34.1738C182.06 35.849 182.817 37.403 183.341 38.8359C183.886 40.2689 184.159 41.5101 184.159 42.5596C184.159 44.598 183.21 46.2327 181.313 47.4639C180.566 47.9684 179.789 48.3721 178.982 48.6748C178.195 48.9775 177.529 49.1289 176.984 49.1289C175.531 49.1289 174.612 48.14 174.229 46.1621C173.805 43.599 173.119 40.9147 172.17 38.1094C171.222 35.2839 170.061 32.4382 168.689 29.5723C167.317 26.7064 165.783 23.9414 164.087 21.2773ZM131.453 51.4297L127.063 48.4932C128.476 45.8896 129.757 43.0137 130.908 39.8652C132.058 36.7168 133.057 33.3766 133.905 29.8447C134.773 26.2926 135.449 22.6296 135.933 18.8555C140.111 20.0866 143.138 21.1562 145.015 22.0645C146.892 22.9525 147.831 23.7497 147.831 24.4561C147.831 24.8395 147.558 25.1927 147.013 25.5156C146.468 25.8184 145.6 26.1211 144.41 26.4238C143.562 29.5723 142.492 32.64 141.201 35.627C139.929 38.6139 138.466 41.4395 136.811 44.1035C135.176 46.7676 133.39 49.2096 131.453 51.4297ZM207.592 32.2666V39.8955H212.193L215.856 35.415C216.704 36.2021 217.44 36.9186 218.066 37.5645C218.712 38.1901 219.307 38.8258 219.852 39.4717C220.417 40.1175 221.003 40.834 221.608 41.6211L219.701 44.9209H207.592V63.0244H199.902V44.9209H188.307L186.884 39.8955H199.902V32.2666H189.549L188.186 27.3018H199.902V4.86914C202.485 5.0306 204.514 5.20215 205.987 5.38379C207.46 5.56543 208.5 5.77734 209.105 6.01953C209.711 6.26172 210.013 6.57454 210.013 6.95801C210.013 7.28092 209.832 7.63411 209.468 8.01758C209.105 8.38086 208.48 8.87533 207.592 9.50098V27.3018H212.496L215.523 23.3965C216.189 24.0827 216.754 24.6882 217.218 25.2129C217.683 25.7174 218.137 26.2624 218.581 26.8477C219.025 27.4329 219.539 28.1595 220.125 29.0273L218.581 32.2666H207.592ZM223.667 56.7578V52.9131C224.857 53.0342 226.2 53.125 227.693 53.1855C229.207 53.2461 230.69 53.2764 232.143 53.2764C233.112 53.2764 233.748 53.1452 234.051 52.8828C234.353 52.6003 234.505 52.0251 234.505 51.1572V5.23242C237.068 5.47461 239.086 5.7168 240.559 5.95898C242.033 6.18099 243.072 6.42318 243.677 6.68555C244.303 6.94792 244.616 7.27083 244.616 7.6543C244.616 7.91667 244.424 8.22949 244.041 8.59277C243.677 8.95605 243.022 9.45052 242.073 10.0762V54.6992C242.093 56.7578 241.78 58.3926 241.134 59.6035C240.509 60.8346 239.449 61.7025 237.956 62.207C236.482 62.7318 234.484 62.984 231.962 62.9639C231.982 62.096 231.871 61.3493 231.629 60.7236C231.386 60.098 230.963 59.5531 230.357 59.0889C229.752 58.6449 228.904 58.2311 227.814 57.8477C226.745 57.4844 225.362 57.1211 223.667 56.7578ZM212.133 25.001L208.53 23.3359C209.115 21.8223 209.65 20.2077 210.134 18.4922C210.639 16.7565 211.083 15.0007 211.467 13.2246C211.85 11.4486 212.153 9.73307 212.375 8.07812C214.595 8.92578 216.361 9.65234 217.673 10.2578C219.005 10.8633 219.963 11.388 220.549 11.832C221.134 12.2559 221.426 12.6595 221.426 13.043C221.426 13.3457 221.204 13.6383 220.76 13.9209C220.337 14.1833 219.65 14.4658 218.702 14.7686C217.713 16.6859 216.633 18.5527 215.463 20.3691C214.292 22.1855 213.182 23.7295 212.133 25.001ZM188.307 10.9238L191.486 8.95605C194.009 11.4587 195.835 13.6182 196.966 15.4346C198.096 17.251 198.661 18.8757 198.661 20.3086C198.661 21.9635 197.773 23.2653 195.997 24.2139C194.806 24.8597 193.797 25.1826 192.969 25.1826C192.485 25.1826 192.102 25.0918 191.819 24.9102C191.537 24.7285 191.335 24.3955 191.214 23.9111C191.092 23.4268 190.992 22.7204 190.911 21.792C190.79 19.9554 190.497 18.0885 190.033 16.1914C189.589 14.2741 189.014 12.5182 188.307 10.9238ZM222.607 46.9492V10.4395C225.029 10.6413 226.926 10.8431 228.299 11.0449C229.671 11.2467 230.63 11.4688 231.175 11.7109C231.74 11.9531 232.022 12.2559 232.022 12.6191C232.022 12.8613 231.83 13.1742 231.447 13.5576C231.084 13.9209 230.488 14.3649 229.661 14.8896V46.9492H222.607Z" fill="url(#paint0_linear_13_436)"/>
<path d="M20.0439 50.8545V47.8545H17.0439V50.8545H20.0439ZM20.0439 52.2773V55.2773H23.0439V52.2773H20.0439ZM12.2939 52.2773H9.29395V55.2773H12.2939V52.2773ZM12.2939 29.1484L12.9511 26.2213L9.29395 25.4003V29.1484H12.2939ZM13.7773 29.4814L13.1202 32.4086L13.1936 32.4251L13.2676 32.4378L13.7773 29.4814ZM15.2002 29.7539L14.5494 32.6825L14.6278 32.6999L14.707 32.7131L15.2002 29.7539ZM16.2295 29.9658L15.5019 32.8762L15.5887 32.8979L15.6766 32.9144L16.2295 29.9658ZM17.3193 30.208L16.5917 33.1184L16.661 33.1357L16.731 33.1497L17.3193 30.208ZM18.8633 30.541L18.2025 33.4673L18.2455 33.477L18.2888 33.4855L18.8633 30.541ZM20.1045 30.7832L19.53 33.7277L19.8145 33.7832H20.1045V30.7832ZM29.9736 30.7832V33.7832H32.9736V30.7832H29.9736ZM29.9736 27.2412H32.9736V24.2412H29.9736V27.2412ZM6.02734 27.2412L3.158 28.1169L3.80632 30.2412H6.02734V27.2412ZM4.60449 22.5791V19.5791H0.552302L1.73515 23.4548L4.60449 22.5791ZM21.1035 22.5791V25.5791H24.1035V22.5791H21.1035ZM21.1035 16.7666H24.1035V13.7666H21.1035V16.7666ZM9.75098 16.7666L6.89567 17.6871L7.56605 19.7666H9.75098V16.7666ZM8.26758 12.165V9.16504H4.14844L5.41228 13.0855L8.26758 12.165ZM21.1035 12.165V15.165H24.1035V12.165H21.1035ZM21.1035 4.59668L21.2462 1.60008L18.1035 1.45042V4.59668H21.1035ZM27.1582 5.05078L26.796 8.02884L26.818 8.03151L26.84 8.03386L27.1582 5.05078ZM30.3975 5.68652L29.2683 8.46592L29.3199 8.48688L29.3722 8.5059L30.3975 5.68652ZM30.8213 7.62402L32.9426 9.74534L30.8213 7.62402ZM28.9746 8.95605L27.4224 6.38886L25.9746 7.26424V8.95605H28.9746ZM28.9746 12.165H25.9746V15.165H28.9746V12.165ZM38.4502 12.165V15.165H41.4502V12.165H38.4502ZM38.4502 4.47559L38.6166 1.4802L35.4502 1.30429V4.47559H38.4502ZM44.5957 4.99023L44.2093 7.96525L44.2284 7.96772L44.2474 7.96995L44.5957 4.99023ZM47.9561 5.65625L46.8846 8.45841L46.898 8.46353L46.9115 8.46853L47.9561 5.65625ZM48.3799 7.6543L50.4461 9.8293L50.4488 9.82671L48.3799 7.6543ZM46.3516 9.07715L44.8161 6.49984L43.3516 7.37236V9.07715H46.3516ZM46.3516 12.165H43.3516V15.165H46.3516V12.165ZM50.3779 12.165V15.165H51.7268L52.622 14.156L50.3779 12.165ZM53.9502 8.13867L55.7643 5.74933L53.5507 4.06861L51.7061 6.14768L53.9502 8.13867ZM56.7959 10.4697L54.789 12.6996L54.8027 12.7119L54.8165 12.724L56.7959 10.4697ZM59.3086 12.9219L57.1154 14.9688L57.1507 15.0066L57.1873 15.0432L59.3086 12.9219ZM60.0957 13.709L62.6861 15.2222L63.8534 13.224L62.217 11.5877L60.0957 13.709ZM58.3096 16.7666V19.7666H60.0315L60.9 18.2798L58.3096 16.7666ZM46.3516 16.7666V13.7666H43.3516V16.7666H46.3516ZM46.3516 22.5791H43.3516V25.5791H46.3516V22.5791ZM53.1631 22.5791V25.5791H54.4985L55.3922 24.5869L53.1631 22.5791ZM57.0078 18.3105L58.8163 15.9169L56.6205 14.2579L54.7787 16.3028L57.0078 18.3105ZM59.4297 20.248L57.4773 22.5258L57.4963 22.5421L57.5156 22.5581L59.4297 20.248ZM61.4277 22.0342L59.3415 24.19L59.3597 24.2076L59.3783 24.225L61.4277 22.0342ZM63.3955 24.002L66.033 25.4316L67.0683 23.5216L65.5765 21.9421L63.3955 24.002ZM61.6396 27.2412V30.2412H63.4259L64.2771 28.6709L61.6396 27.2412ZM37.542 27.2412V24.2412H34.542V27.2412H37.542ZM37.542 30.7832H34.542V33.7832H37.542V30.7832ZM47.1992 30.7832V33.7832H48.3715L49.2332 32.9884L47.1992 30.7832ZM50.3174 27.9072L51.9634 25.3991L50.0051 24.114L48.2834 25.702L50.3174 27.9072ZM54.8281 31.0254L53.0209 33.42L53.0354 33.4309L53.0501 33.4417L54.8281 31.0254ZM57.0684 32.9326L54.8106 34.9081L54.8335 34.9342L54.8569 34.9598L57.0684 32.9326ZM57.5527 34.7188L55.1527 32.9188L55.0763 33.0207L55.0087 33.1288L57.5527 34.7188ZM57.0684 35.2334L58.8684 37.6334L58.919 37.5954L58.9681 37.5553L57.0684 35.2334ZM55.252 36.5957L53.452 34.1957L52.252 35.0957V36.5957H55.252ZM55.252 51.9746V54.9746H58.252V51.9746H55.252ZM47.502 51.9746H44.502V54.9746H47.502V51.9746ZM47.502 50.8545H50.502V47.8545H47.502V50.8545ZM28.9746 16.7666V13.7666H25.9746V16.7666H28.9746ZM28.9746 22.5791H25.9746V25.5791H28.9746V22.5791ZM38.4502 22.5791V25.5791H41.4502V22.5791H38.4502ZM38.4502 16.7666H41.4502V13.7666H38.4502V16.7666ZM20.0439 38.5938H17.0439V41.5938H20.0439V38.5938ZM29.9736 38.5938V41.5938H32.9736V38.5938H29.9736ZM29.9736 34.9307H32.9736V31.9307H29.9736V34.9307ZM20.0439 34.9307V31.9307H17.0439V34.9307H20.0439ZM37.542 38.5938H34.542V41.5938H37.542V38.5938ZM47.502 38.5938V41.5938H50.502V38.5938H47.502ZM47.502 34.9307H50.502V31.9307H47.502V34.9307ZM37.542 34.9307V31.9307H34.542V34.9307H37.542ZM20.0439 46.5859H17.0439V49.5859H20.0439V46.5859ZM29.9736 46.5859V49.5859H32.9736V46.5859H29.9736ZM29.9736 42.5596H32.9736V39.5596H29.9736V42.5596ZM20.0439 42.5596V39.5596H17.0439V42.5596H20.0439ZM37.542 46.5859H34.542V49.5859H37.542V46.5859ZM47.502 46.5859V49.5859H50.502V46.5859H47.502ZM47.502 42.5596H50.502V39.5596H47.502V42.5596ZM37.542 42.5596V39.5596H34.542V42.5596H37.542ZM7.02637 63.2666L4.3631 64.6476L5.31586 66.485L7.37188 66.2466L7.02637 63.2666ZM4.90723 59.1797L4.30969 56.2398L0.414085 57.0316L2.24396 60.5606L4.90723 59.1797ZM12.1729 57.2119L11.2314 54.3635L11.2169 54.3683L11.2024 54.3732L12.1729 57.2119ZM18.833 54.5176L20.1535 57.2113L20.1641 57.2061L20.1746 57.2009L18.833 54.5176ZM24.1914 51.248L25.7182 48.6656L23.982 47.6391L22.3762 48.8596L24.1914 51.248ZM30.125 55.1533L28.2317 57.4805L28.2413 57.4882L28.2509 57.4959L30.125 55.1533ZM28.8535 58.5137L29.1027 55.524L28.9783 55.5137H28.8535V58.5137ZM28.0967 58.4834L28.3268 55.4922L27.5945 55.4359L26.919 55.7242L28.0967 58.4834ZM15.0791 62.0557L14.5485 59.103L14.5374 59.105L14.5262 59.107L15.0791 62.0557ZM37.0879 55.5771L34.5525 53.9735L32.3196 57.5038L36.3782 58.492L37.0879 55.5771ZM39.3281 52.0352L39.5441 49.0429L37.7527 48.9137L36.7927 50.4315L39.3281 52.0352ZM49.2881 53.0039L48.8916 55.9776L48.9024 55.979L48.9133 55.9804L49.2881 53.0039ZM55.8877 54.2451L55.0544 57.1271L55.0704 57.1317L55.0866 57.1362L55.8877 54.2451ZM59.5508 55.8799L57.6544 58.2045L57.6691 58.2165L57.684 58.2284L59.5508 55.8799ZM60.3984 59.5732L57.6202 58.4414L57.5953 58.5023L57.5732 58.5642L60.3984 59.5732ZM59.4902 61.4502L62.0159 63.0692L62.0469 63.0208L62.076 62.9713L59.4902 61.4502ZM58.0371 63.1455L56.2539 60.733L56.1946 60.7769L56.1374 60.8236L58.0371 63.1455ZM55.6758 63.4785L56.8782 60.73L56.8344 60.7109L56.79 60.6931L55.6758 63.4785ZM54.5254 62.8428L52.7782 65.2815L52.8316 65.3197L52.8866 65.3556L54.5254 62.8428ZM49.7422 60.0576L48.4245 62.7528L48.4363 62.7585L49.7422 60.0576ZM43.7783 57.5752L42.7659 60.3992L42.7743 60.4022L43.7783 57.5752ZM20.0439 50.8545H17.0439V52.2773H20.0439H23.0439V50.8545H20.0439ZM20.0439 52.2773V49.2773H12.2939V52.2773V55.2773H20.0439V52.2773ZM12.2939 52.2773H15.2939V29.1484H12.2939H9.29395V52.2773H12.2939ZM12.2939 29.1484L11.6368 32.0756L13.1202 32.4086L13.7773 29.4814L14.4345 26.5543L12.9511 26.2213L12.2939 29.1484ZM13.7773 29.4814L13.2676 32.4378C13.8299 32.5348 14.2519 32.6164 14.5494 32.6825L15.2002 29.7539L15.851 26.8253C15.4219 26.73 14.8954 26.63 14.2871 26.5251L13.7773 29.4814ZM15.2002 29.7539L14.707 32.7131C14.9997 32.7619 15.2641 32.8168 15.5019 32.8762L16.2295 29.9658L16.9571 27.0554C16.5491 26.9534 16.1273 26.867 15.6934 26.7947L15.2002 29.7539ZM16.2295 29.9658L15.6766 32.9144C15.928 32.9616 16.2315 33.0284 16.5917 33.1184L17.3193 30.208L18.0469 27.2976C17.5999 27.1858 17.1769 27.0912 16.7824 27.0172L16.2295 29.9658ZM17.3193 30.208L16.731 33.1497C17.101 33.2238 17.5893 33.3289 18.2025 33.4673L18.8633 30.541L19.5241 27.6147C18.886 27.4706 18.3449 27.3537 17.9077 27.2663L17.3193 30.208ZM18.8633 30.541L18.2888 33.4855L19.53 33.7277L20.1045 30.7832L20.679 27.8387L19.4378 27.5965L18.8633 30.541ZM20.1045 30.7832V33.7832H29.9736V30.7832V27.7832H20.1045V30.7832ZM29.9736 30.7832H32.9736V27.2412H29.9736H26.9736V30.7832H29.9736ZM29.9736 27.2412V24.2412H6.02734V27.2412V30.2412H29.9736V27.2412ZM6.02734 27.2412L8.89669 26.3655L7.47384 21.7034L4.60449 22.5791L1.73515 23.4548L3.158 28.1169L6.02734 27.2412ZM4.60449 22.5791V25.5791H21.1035V22.5791V19.5791H4.60449V22.5791ZM21.1035 22.5791H24.1035V16.7666H21.1035H18.1035V22.5791H21.1035ZM21.1035 16.7666V13.7666H9.75098V16.7666V19.7666H21.1035V16.7666ZM9.75098 16.7666L12.6063 15.8461L11.1229 11.2446L8.26758 12.165L5.41228 13.0855L6.89567 17.6871L9.75098 16.7666ZM8.26758 12.165V15.165H21.1035V12.165V9.16504H8.26758V12.165ZM21.1035 12.165H24.1035V4.59668H21.1035H18.1035V12.165H21.1035ZM21.1035 4.59668L20.9608 7.59328C23.473 7.71291 25.4081 7.86004 26.796 8.02884L27.1582 5.05078L27.5204 2.07273C25.9213 1.87824 23.8199 1.72263 21.2462 1.60008L21.1035 4.59668ZM27.1582 5.05078L26.84 8.03386C28.3241 8.19216 29.0412 8.37365 29.2683 8.46592L30.3975 5.68652L31.5266 2.90712C30.4621 2.47466 29.0197 2.23232 27.4764 2.0677L27.1582 5.05078ZM30.3975 5.68652L29.3722 8.5059C29.4972 8.55135 29.3126 8.51066 29.0583 8.26405C28.9167 8.12678 28.743 7.9148 28.6069 7.61764C28.4669 7.31221 28.3965 6.9813 28.3965 6.65527H31.3965H34.3965C34.3965 4.19407 32.2909 3.18286 31.4227 2.86714L30.3975 5.68652ZM31.3965 6.65527H28.3965C28.3965 6.06353 28.6059 5.67578 28.6731 5.56262C28.7475 5.43739 28.7858 5.41684 28.7 5.5027L30.8213 7.62402L32.9426 9.74534C33.2402 9.44775 33.5662 9.07401 33.8322 8.62585C34.0912 8.18978 34.3965 7.50938 34.3965 6.65527H31.3965ZM30.8213 7.62402L28.7 5.5027C28.6024 5.60032 28.2426 5.8929 27.4224 6.38886L28.9746 8.95605L30.5269 11.5233C31.4423 10.9697 32.3137 10.3743 32.9426 9.74534L30.8213 7.62402ZM28.9746 8.95605H25.9746V12.165H28.9746H31.9746V8.95605H28.9746ZM28.9746 12.165V15.165H38.4502V12.165V9.16504H28.9746V12.165ZM38.4502 12.165H41.4502V4.47559H38.4502H35.4502V12.165H38.4502ZM38.4502 4.47559L38.2838 7.47097C40.7925 7.61034 42.759 7.7769 44.2093 7.96525L44.5957 4.99023L44.9821 2.01522C43.3243 1.79992 41.1939 1.62339 38.6166 1.4802L38.4502 4.47559ZM44.5957 4.99023L44.2474 7.96995C45.7671 8.14758 46.5704 8.33824 46.8846 8.45841L47.9561 5.65625L49.0275 2.85409C47.9693 2.44952 46.5323 2.19617 44.944 2.01052L44.5957 4.99023ZM47.9561 5.65625L46.9115 8.46853C47.0741 8.52892 46.9245 8.50416 46.6927 8.28555C46.5621 8.16242 46.3865 7.95941 46.2443 7.66277C46.0967 7.35505 46.0156 7.00883 46.0156 6.65527H49.0156H52.0156C52.0156 4.1452 49.8024 3.14176 49.0006 2.84397L47.9561 5.65625ZM49.0156 6.65527H46.0156C46.0156 5.99652 46.2695 5.57952 46.3257 5.49118C46.3968 5.37951 46.4226 5.37549 46.3109 5.48188L48.3799 7.6543L50.4488 9.82671C50.761 9.52945 51.1047 9.15712 51.3877 8.71243C51.6558 8.29108 52.0156 7.5764 52.0156 6.65527H49.0156ZM48.3799 7.6543L46.3136 5.4793C46.1611 5.62419 45.7215 5.96046 44.8161 6.49984L46.3516 9.07715L47.887 11.6545C48.8787 11.0636 49.7914 10.4513 50.4461 9.8293L48.3799 7.6543ZM46.3516 9.07715H43.3516V12.165H46.3516H49.3516V9.07715H46.3516ZM46.3516 12.165V15.165H50.3779V12.165V9.16504H46.3516V12.165ZM50.3779 12.165L52.622 14.156L56.1943 10.1297L53.9502 8.13867L51.7061 6.14768L48.1338 10.174L50.3779 12.165ZM53.9502 8.13867L52.1361 10.528C53.1756 11.3173 54.0572 12.041 54.789 12.6996L56.7959 10.4697L58.8028 8.23984C57.92 7.44536 56.9044 6.61497 55.7643 5.74933L53.9502 8.13867ZM56.7959 10.4697L54.8165 12.724C55.5606 13.3774 56.3271 14.1242 57.1154 14.9688L59.3086 12.9219L61.5018 10.8749C60.5948 9.90313 59.6862 9.01518 58.7753 8.21541L56.7959 10.4697ZM59.3086 12.9219L57.1873 15.0432L57.9744 15.8303L60.0957 13.709L62.217 11.5877L61.4299 10.8006L59.3086 12.9219ZM60.0957 13.709L57.5053 12.1958L55.7192 15.2534L58.3096 16.7666L60.9 18.2798L62.6861 15.2222L60.0957 13.709ZM58.3096 16.7666V13.7666H46.3516V16.7666V19.7666H58.3096V16.7666ZM46.3516 16.7666H43.3516V22.5791H46.3516H49.3516V16.7666H46.3516ZM46.3516 22.5791V25.5791H53.1631V22.5791V19.5791H46.3516V22.5791ZM53.1631 22.5791L55.3922 24.5869L59.2369 20.3183L57.0078 18.3105L54.7787 16.3028L50.934 20.5713L53.1631 22.5791ZM57.0078 18.3105L55.1993 20.7041C56.0688 21.3611 56.8266 21.9681 57.4773 22.5258L59.4297 20.248L61.3821 17.9703C60.62 17.3171 59.7633 16.6324 58.8163 15.9169L57.0078 18.3105ZM59.4297 20.248L57.5156 22.5581C58.1658 23.0968 58.7741 23.6409 59.3415 24.19L61.4277 22.0342L63.514 19.8784C62.8301 19.2165 62.1063 18.5699 61.3437 17.938L59.4297 20.248ZM61.4277 22.0342L59.3783 24.225C59.952 24.7617 60.564 25.3731 61.2145 26.0618L63.3955 24.002L65.5765 21.9421C64.8546 21.1777 64.1547 20.4772 63.4772 19.8434L61.4277 22.0342ZM63.3955 24.002L60.7581 22.5723L59.0022 25.8116L61.6396 27.2412L64.2771 28.6709L66.033 25.4316L63.3955 24.002ZM61.6396 27.2412V24.2412H37.542V27.2412V30.2412H61.6396V27.2412ZM37.542 27.2412H34.542V30.7832H37.542H40.542V27.2412H37.542ZM37.542 30.7832V33.7832H47.1992V30.7832V27.7832H37.542V30.7832ZM47.1992 30.7832L49.2332 32.9884L52.3513 30.1125L50.3174 27.9072L48.2834 25.702L45.1653 28.578L47.1992 30.7832ZM50.3174 27.9072L48.6714 30.4154C50.5873 31.6726 52.0281 32.6706 53.0209 33.42L54.8281 31.0254L56.6353 28.6308C55.4889 27.7656 53.9225 26.6848 51.9634 25.3991L50.3174 27.9072ZM54.8281 31.0254L53.0501 33.4417C54.0884 34.2058 54.6132 34.6825 54.8106 34.9081L57.0684 32.9326L59.3261 30.9571C58.6759 30.214 57.7072 29.4192 56.6062 28.6091L54.8281 31.0254ZM57.0684 32.9326L54.8569 34.9598C54.9717 35.085 54.968 35.1058 54.9244 35.0247C54.8835 34.9484 54.7344 34.6459 54.7344 34.1738H57.7344H60.7344C60.7344 32.6413 59.8245 31.4996 59.2798 30.9054L57.0684 32.9326ZM57.7344 34.1738H54.7344C54.7344 33.7265 54.8844 33.2766 55.1527 32.9188L57.5527 34.7188L59.9527 36.5187C60.4633 35.838 60.7344 35.0248 60.7344 34.1738H57.7344ZM57.5527 34.7188L55.0087 33.1288C55.0836 33.009 55.1476 32.9376 55.1714 32.9124C55.1964 32.8858 55.1998 32.886 55.1686 32.9115L57.0684 35.2334L58.9681 37.5553C59.3284 37.2605 59.7582 36.8505 60.0967 36.3087L57.5527 34.7188ZM57.0684 35.2334L55.2684 32.8334L53.452 34.1957L55.252 36.5957L57.052 38.9957L58.8684 37.6334L57.0684 35.2334ZM55.252 36.5957H52.252V51.9746H55.252H58.252V36.5957H55.252ZM55.252 51.9746V48.9746H47.502V51.9746V54.9746H55.252V51.9746ZM47.502 51.9746H50.502V50.8545H47.502H44.502V51.9746H47.502ZM47.502 50.8545V47.8545H20.0439V50.8545V53.8545H47.502V50.8545ZM28.9746 16.7666H25.9746V22.5791H28.9746H31.9746V16.7666H28.9746ZM28.9746 22.5791V25.5791H38.4502V22.5791V19.5791H28.9746V22.5791ZM38.4502 22.5791H41.4502V16.7666H38.4502H35.4502V22.5791H38.4502ZM38.4502 16.7666V13.7666H28.9746V16.7666V19.7666H38.4502V16.7666ZM20.0439 38.5938V41.5938H29.9736V38.5938V35.5938H20.0439V38.5938ZM29.9736 38.5938H32.9736V34.9307H29.9736H26.9736V38.5938H29.9736ZM29.9736 34.9307V31.9307H20.0439V34.9307V37.9307H29.9736V34.9307ZM20.0439 34.9307H17.0439V38.5938H20.0439H23.0439V34.9307H20.0439ZM37.542 38.5938V41.5938H47.502V38.5938V35.5938H37.542V38.5938ZM47.502 38.5938H50.502V34.9307H47.502H44.502V38.5938H47.502ZM47.502 34.9307V31.9307H37.542V34.9307V37.9307H47.502V34.9307ZM37.542 34.9307H34.542V38.5938H37.542H40.542V34.9307H37.542ZM20.0439 46.5859V49.5859H29.9736V46.5859V43.5859H20.0439V46.5859ZM29.9736 46.5859H32.9736V42.5596H29.9736H26.9736V46.5859H29.9736ZM29.9736 42.5596V39.5596H20.0439V42.5596V45.5596H29.9736V42.5596ZM20.0439 42.5596H17.0439V46.5859H20.0439H23.0439V42.5596H20.0439ZM37.542 46.5859V49.5859H47.502V46.5859V43.5859H37.542V46.5859ZM47.502 46.5859H50.502V42.5596H47.502H44.502V46.5859H47.502ZM47.502 42.5596V39.5596H37.542V42.5596V45.5596H47.502V42.5596ZM37.542 42.5596H34.542V46.5859H37.542H40.542V42.5596H37.542ZM7.02637 63.2666L9.68963 61.8857L7.57049 57.7987L4.90723 59.1797L2.24396 60.5606L4.3631 64.6476L7.02637 63.2666ZM4.90723 59.1797L5.50476 62.1196C8.11164 61.5897 10.6582 60.9002 13.1433 60.0506L12.1729 57.2119L11.2024 54.3732C8.96487 55.1382 6.66765 55.7605 4.30969 56.2398L4.90723 59.1797ZM12.1729 57.2119L13.1143 60.0604C15.6136 59.2343 17.9614 58.2859 20.1535 57.2113L18.833 54.5176L17.5125 51.8238C15.5874 52.7675 13.4952 53.6153 11.2314 54.3635L12.1729 57.2119ZM18.833 54.5176L20.1746 57.2009C22.3664 56.105 24.3175 54.9203 26.0067 53.6365L24.1914 51.248L22.3762 48.8596C21.038 49.8766 19.4168 50.8716 17.4914 51.8343L18.833 54.5176ZM24.1914 51.248L22.6646 53.8305C25.4083 55.4527 27.2241 56.6607 28.2317 57.4805L30.125 55.1533L32.0183 52.8262C30.6443 51.7084 28.5044 50.313 25.7182 48.6656L24.1914 51.248ZM30.125 55.1533L28.2509 57.4959C28.4942 57.6906 28.6839 57.8582 28.8284 57.9987C28.9747 58.1409 29.0577 58.2389 29.0982 58.2923C29.1413 58.3489 29.1122 58.3235 29.0674 58.2182C29.0212 58.1096 28.9414 57.8753 28.9414 57.5449H31.9414H34.9414C34.9414 56.2875 34.3549 55.2934 33.8764 54.6633C33.3663 53.9917 32.7043 53.3749 31.9991 52.8107L30.125 55.1533ZM31.9414 57.5449H28.9414C28.9414 57.0135 29.1326 56.4681 29.4949 56.0411C29.81 55.6697 30.1299 55.5329 30.2087 55.5019C30.2956 55.4678 30.287 55.4852 30.1215 55.5069C29.9662 55.5272 29.7308 55.5439 29.3984 55.5439V58.5439V61.5439C30.3549 61.5439 31.4461 61.4622 32.4026 61.0864C32.9052 60.889 33.543 60.544 34.07 59.9229C34.6443 59.2461 34.9414 58.4094 34.9414 57.5449H31.9414ZM29.3984 58.5439V55.5439C29.4135 55.5439 29.3977 55.5443 29.3378 55.541C29.2819 55.5379 29.2047 55.5325 29.1027 55.524L28.8535 58.5137L28.6044 61.5033C28.8646 61.525 29.1478 61.5439 29.3984 61.5439V58.5439ZM28.8535 58.5137V55.5137C28.6944 55.5137 28.5191 55.507 28.3268 55.4922L28.0967 58.4834L27.8666 61.4746C28.199 61.5001 28.5283 61.5137 28.8535 61.5137V58.5137ZM28.0967 58.4834L26.919 55.7242C25.4193 56.3643 23.617 56.9781 21.4948 57.5569L22.2842 60.4512L23.0735 63.3455C25.3915 62.7133 27.4641 62.0152 29.2744 61.2426L28.0967 58.4834ZM22.2842 60.4512L21.4948 57.5569C19.371 58.1361 17.0566 58.6523 14.5485 59.103L15.0791 62.0557L15.6097 65.0084C18.2682 64.5307 20.7573 63.9772 23.0735 63.3455L22.2842 60.4512ZM15.0791 62.0557L14.5262 59.107C12.016 59.5777 9.40111 59.9712 6.68086 60.2866L7.02637 63.2666L7.37188 66.2466C10.2219 65.9162 12.9755 65.5024 15.632 65.0043L15.0791 62.0557ZM37.0879 55.5771L39.6233 57.1808L41.8636 53.6388L39.3281 52.0352L36.7927 50.4315L34.5525 53.9735L37.0879 55.5771ZM39.3281 52.0352L39.1122 55.0274C42.9904 55.3072 46.2463 55.6249 48.8916 55.9776L49.2881 53.0039L49.6846 50.0302C46.8807 49.6564 43.4966 49.3282 39.5441 49.0429L39.3281 52.0352ZM49.2881 53.0039L48.9133 55.9804C51.5601 56.3137 53.5892 56.7034 55.0544 57.1271L55.8877 54.2451L56.721 51.3632C54.8359 50.8181 52.4653 50.3803 49.6629 50.0274L49.2881 53.0039ZM55.8877 54.2451L55.0866 57.1362C56.6189 57.5608 57.3666 57.9697 57.6544 58.2045L59.5508 55.8799L61.4472 53.5553C60.2011 52.5388 58.5067 51.8578 56.6888 51.3541L55.8877 54.2451ZM59.5508 55.8799L57.684 58.2284C57.8282 58.3429 57.831 58.3831 57.7984 58.3229C57.782 58.2926 57.7632 58.2486 57.7495 58.1944C57.7357 58.1402 57.7314 58.093 57.7314 58.0596H60.7314H63.7314C63.7314 56.1196 62.75 54.5906 61.4175 53.5314L59.5508 55.8799ZM60.7314 58.0596H57.7314C57.7314 58.047 57.7334 58.1635 57.6202 58.4414L60.3984 59.5732L63.1767 60.7051C63.5075 59.8932 63.7314 59.0005 63.7314 58.0596H60.7314ZM60.3984 59.5732L57.5732 58.5642C57.4516 58.9048 57.2413 59.3565 56.9044 59.9291L59.4902 61.4502L62.076 62.9713C62.5465 62.1715 62.9416 61.3719 63.2237 60.5823L60.3984 59.5732ZM59.4902 61.4502L56.9646 59.8312C56.5503 60.4775 56.2989 60.6998 56.2539 60.733L58.0371 63.1455L59.8203 65.558C60.7037 64.905 61.421 63.9972 62.0159 63.0692L59.4902 61.4502ZM58.0371 63.1455L56.1374 60.8236C56.1221 60.8362 56.1628 60.7996 56.2628 60.7605C56.3687 60.719 56.5017 60.6904 56.6445 60.6904V63.6904V66.6904C57.944 66.6904 59.06 66.1848 59.9368 65.4674L58.0371 63.1455ZM56.6445 63.6904V60.6904C56.7037 60.6904 56.7571 60.6971 56.8012 60.7068C56.8447 60.7163 56.8709 60.7268 56.8782 60.73L55.6758 63.4785L54.4733 66.227C55.1404 66.5188 55.8712 66.6904 56.6445 66.6904V63.6904ZM55.6758 63.4785L56.79 60.6931C56.7904 60.6933 56.7754 60.6873 56.7434 60.6717C56.7117 60.6563 56.6683 60.634 56.6122 60.603C56.4985 60.5402 56.3503 60.4513 56.1642 60.3299L54.5254 62.8428L52.8866 65.3556C53.4187 65.7026 53.9921 66.0361 54.5616 66.2639L55.6758 63.4785ZM54.5254 62.8428L56.2725 60.404C54.754 59.3161 53.0058 58.3034 51.0481 57.3568L49.7422 60.0576L48.4363 62.7585C50.1517 63.5879 51.5924 64.432 52.7782 65.2815L54.5254 62.8428ZM49.7422 60.0576L51.0598 57.3625C49.1291 56.4185 47.0349 55.5482 44.7823 54.7482L43.7783 57.5752L42.7743 60.4022C44.8407 61.1361 46.7225 61.9207 48.4246 62.7528L49.7422 60.0576ZM43.7783 57.5752L44.7907 54.7512C42.5473 53.9469 40.2158 53.2511 37.7976 52.6623L37.0879 55.5771L36.3782 58.492C38.6019 59.0334 40.7307 59.6696 42.7659 60.3992L43.7783 57.5752ZM98.5442 28.7246V25.7246H95.5442V28.7246H98.5442ZM98.5442 35.415H95.5442V38.415H98.5442V35.415ZM107.899 35.415V38.415H109.169L110.053 37.5027L107.899 35.415ZM111.683 31.5098L113.473 29.1024L111.36 27.5315L109.528 29.4221L111.683 31.5098ZM113.681 33.084L111.735 35.3677L111.781 35.4062L111.827 35.4429L113.681 33.084ZM115.225 34.3857L113.202 36.6012L113.229 36.6257L113.256 36.6496L115.225 34.3857ZM116.617 35.6875L114.496 37.8088L114.519 37.8314L114.542 37.8535L116.617 35.6875ZM118.252 37.3525L120.822 38.8999L121.993 36.956L120.441 35.3007L118.252 37.3525ZM116.466 40.3193V43.3193H118.162L119.036 41.8667L116.466 40.3193ZM98.5442 40.3193V37.3193H95.5442V40.3193H98.5442ZM98.5442 55.6377H95.5442V58.6377H98.5442V55.6377ZM111.562 55.6377V58.6377H112.929L113.826 57.6052L111.562 55.6377ZM115.77 50.7939L117.726 48.5194L115.463 46.573L113.505 48.8265L115.77 50.7939ZM118.373 53.125L120.433 50.944L118.373 53.125ZM120.371 55.1836L118.122 57.1685L118.153 57.2035L118.185 57.2376L120.371 55.1836ZM122.279 57.4238L124.864 58.9459L125.899 57.1871L124.644 55.578L122.279 57.4238ZM120.371 60.6631V63.6631H122.086L122.957 62.1852L120.371 60.6631ZM69.4514 60.6631L66.5837 61.5441L67.2347 63.6631H69.4514V60.6631ZM67.9075 55.6377V52.6377H63.8474L65.0397 56.5187L67.9075 55.6377ZM90.3098 55.6377V58.6377H93.3098V55.6377H90.3098ZM90.3098 40.3193H93.3098V37.3193H90.3098V40.3193ZM72.8723 40.3193L69.9911 41.1552L70.619 43.3193H72.8723V40.3193ZM71.4495 35.415V32.415H67.4554L68.5683 36.2509L71.4495 35.415ZM90.3098 35.415V38.415H93.3098V35.415H90.3098ZM90.3098 28.7246H93.3098V25.7246H90.3098V28.7246ZM83.468 28.7246L80.6034 29.6158L81.2595 31.7246H83.468V28.7246ZM82.6203 26L85.4849 25.1088L84.239 21.1041L80.8515 23.5769L82.6203 26ZM75.8391 30.3291L77.2978 32.9506L77.3059 32.9461L77.3139 32.9416L75.8391 30.3291ZM68.2102 33.9922L65.7498 35.7087L67.1203 37.6731L69.3393 36.7716L68.2102 33.9922ZM65.4856 30.0869L64.1439 27.4036L61.0388 28.9562L63.0252 31.8035L65.4856 30.0869ZM73.1448 25.3643L74.9352 27.7714L74.9416 27.7667L74.9479 27.7619L73.1448 25.3643ZM79.9563 19.2793L77.7763 17.2183L79.9563 19.2793ZM85.6174 12.1953L83.1274 10.522L83.1244 10.5266L85.6174 12.1953ZM89.9162 4.35449L90.5212 1.41612L88.132 0.924231L87.1631 3.16282L89.9162 4.35449ZM96.425 5.83789L95.6543 8.73722L95.6633 8.73958L96.425 5.83789ZM99.9065 7.01855L98.5344 9.68642L98.5649 9.7021L98.5958 9.71708L99.9065 7.01855ZM98.4231 9.95508L97.3551 7.15161L93.0261 8.80075L96.3018 12.0764L98.4231 9.95508ZM98.6653 10.1973L96.544 12.3186L96.5917 12.3663L96.6416 12.4119L98.6653 10.1973ZM115.195 20.9443L113.955 23.6761L113.965 23.681L113.976 23.6858L115.195 20.9443ZM124.519 24.2744L126.661 26.375L130.247 22.7184L125.303 21.3788L124.519 24.2744ZM118.948 32.2666L117.564 34.928L120.239 36.3195L121.617 33.6378L118.948 32.2666ZM109.533 26.6963L107.824 29.1616L107.834 29.1687L107.845 29.1757L109.533 26.6963ZM101.935 20.5508L99.852 22.71L99.8618 22.7194L99.8716 22.7286L101.935 20.5508ZM95.4563 13.2246L97.8455 11.4103L95.4088 8.20158L93.0332 11.4558L95.4563 13.2246ZM84.8909 24.2744L82.9986 21.9464L76.4436 27.2744H84.8909V24.2744ZM97.5452 24.2744V27.2744H98.7969L99.6774 26.3847L97.5452 24.2744ZM100.451 21.3379L102.195 18.8967L100.116 17.4118L98.3191 19.2276L100.451 21.3379ZM102.752 23.0332L100.93 25.4163L100.946 25.429L100.963 25.4414L102.752 23.0332ZM104.781 24.6377L102.846 26.9306L102.884 26.963L102.924 26.9942L104.781 24.6377ZM106.839 26.4238L109.391 28.0017L110.678 25.9201L108.897 24.2411L106.839 26.4238ZM105.416 28.7246V31.7246H107.088L107.968 30.3025L105.416 28.7246ZM105.174 55.2744L103.968 58.0213L105.72 58.7904L107.156 57.5266L105.174 55.2744ZM101.45 53.6396L98.828 52.1827L97.2282 55.0624L100.244 56.3866L101.45 53.6396ZM104.024 47.9482L106.849 48.9573L106.852 48.9482L104.024 47.9482ZM105.931 41.3789L106.849 38.5228L103.761 37.5302L103.012 40.6863L105.931 41.3789ZM111.35 43.2861L110.229 46.0687L110.236 46.0716L110.243 46.0744L111.35 43.2861ZM114.347 44.7695L112.611 47.2161L112.637 47.235L112.664 47.2533L114.347 44.7695ZM114.589 46.7979L115.931 49.4811L115.954 49.4696L115.977 49.4576L114.589 46.7979ZM112.44 47.5244L111.67 44.6247L110.629 44.9011L110.001 45.7773L112.44 47.5244ZM109.2 51.4297L107.027 49.3616L107.026 49.3625L109.2 51.4297ZM74.719 43.9824L72.6884 41.7741L70.5414 43.7483L72.4544 45.95L74.719 43.9824ZM77.3528 41.5605L78.6608 38.8607L76.8243 37.971L75.3222 39.3522L77.3528 41.5605ZM84.5276 46.0107L82.511 48.2319L82.5191 48.2392L82.5272 48.2465L84.5276 46.0107ZM83.6496 54.1543L82.1243 51.571L82.1152 51.5764L82.1062 51.5818L83.6496 54.1543ZM82.2268 54.8506L81.2016 52.0312L82.2268 54.8506ZM79.6233 54.6084L77.2402 56.4307L77.2671 56.4659L77.2949 56.5002L79.6233 54.6084ZM78.9573 52.6104L81.9079 52.0684L81.9076 52.0669L78.9573 52.6104ZM77.4133 48.0693L74.7156 49.3817L74.7227 49.3964L74.73 49.411L77.4133 48.0693ZM98.5442 28.7246H95.5442V35.415H98.5442H101.544V28.7246H98.5442ZM98.5442 35.415V38.415H107.899V35.415V32.415H98.5442V35.415ZM107.899 35.415L110.053 37.5027L113.837 33.5974L111.683 31.5098L109.528 29.4221L105.744 33.3274L107.899 35.415ZM111.683 31.5098L109.893 33.9172C110.645 34.4763 111.255 34.9588 111.735 35.3677L113.681 33.084L115.626 30.8003C115.016 30.2808 114.295 29.7138 113.473 29.1024L111.683 31.5098ZM113.681 33.084L111.827 35.4429C112.342 35.8475 112.8 36.2337 113.202 36.6012L115.225 34.3857L117.248 32.1703C116.722 31.6901 116.15 31.2084 115.534 30.725L113.681 33.084ZM115.225 34.3857L113.256 36.6496C113.665 37.0046 114.078 37.3906 114.496 37.8088L116.617 35.6875L118.739 33.5662C118.229 33.056 117.714 32.5742 117.193 32.1219L115.225 34.3857ZM116.617 35.6875L114.542 37.8535C114.978 38.2711 115.484 38.7861 116.064 39.4044L118.252 37.3525L120.441 35.3007C119.81 34.6273 119.226 34.0323 118.693 33.5215L116.617 35.6875ZM118.252 37.3525L115.682 35.8052L113.896 38.772L116.466 40.3193L119.036 41.8667L120.822 38.8999L118.252 37.3525ZM116.466 40.3193V37.3193H98.5442V40.3193V43.3193H116.466V40.3193ZM98.5442 40.3193H95.5442V55.6377H98.5442H101.544V40.3193H98.5442ZM98.5442 55.6377V58.6377H111.562V55.6377V52.6377H98.5442V55.6377ZM111.562 55.6377L113.826 57.6052L118.034 52.7614L115.77 50.7939L113.505 48.8265L109.297 53.6702L111.562 55.6377ZM115.77 50.7939L113.814 53.0685C114.798 53.9152 115.63 54.6603 116.313 55.306L118.373 53.125L120.433 50.944C119.664 50.2173 118.76 49.4083 117.726 48.5194L115.77 50.7939ZM118.373 53.125L116.313 55.306C116.98 55.9354 117.582 56.5564 118.122 57.1685L120.371 55.1836L122.621 53.1987C121.95 52.4384 121.22 51.687 120.433 50.944L118.373 53.125ZM120.371 55.1836L118.185 57.2376C118.739 57.8281 119.316 58.5039 119.914 59.2696L122.279 57.4238L124.644 55.578C123.949 54.6888 123.255 53.8712 122.558 53.1296L120.371 55.1836ZM122.279 57.4238L119.693 55.9017L117.786 59.141L120.371 60.6631L122.957 62.1852L124.864 58.9459L122.279 57.4238ZM120.371 60.6631V57.6631H69.4514V60.6631V63.6631H120.371V60.6631ZM69.4514 60.6631L72.3191 59.782L70.7752 54.7567L67.9075 55.6377L65.0397 56.5187L66.5837 61.5441L69.4514 60.6631ZM67.9075 55.6377V58.6377H90.3098V55.6377V52.6377H67.9075V55.6377ZM90.3098 55.6377H93.3098V40.3193H90.3098H87.3098V55.6377H90.3098ZM90.3098 40.3193V37.3193H72.8723V40.3193V43.3193H90.3098V40.3193ZM72.8723 40.3193L75.7535 39.4834L74.3306 34.5791L71.4495 35.415L68.5683 36.2509L69.9911 41.1552L72.8723 40.3193ZM71.4495 35.415V38.415H90.3098V35.415V32.415H71.4495V35.415ZM90.3098 35.415H93.3098V28.7246H90.3098H87.3098V35.415H90.3098ZM90.3098 28.7246V25.7246H83.468V28.7246V31.7246H90.3098V28.7246ZM83.468 28.7246L86.3326 27.8334L85.4849 25.1088L82.6203 26L79.7558 26.8912L80.6034 29.6158L83.468 28.7246ZM82.6203 26L80.8515 23.5769C78.9403 24.9721 76.78 26.3529 74.3643 27.7166L75.8391 30.3291L77.3139 32.9416C79.9034 31.4798 82.264 29.9745 84.3892 28.4231L82.6203 26ZM75.8391 30.3291L74.3804 27.7076C71.9814 29.0425 69.5484 30.2104 67.0811 31.2128L68.2102 33.9922L69.3393 36.7716C72.0386 35.675 74.6915 34.4008 77.2978 32.9506L75.8391 30.3291ZM68.2102 33.9922L70.6706 32.2756L67.946 28.3704L65.4856 30.0869L63.0252 31.8035L65.7498 35.7087L68.2102 33.9922ZM65.4856 30.0869L66.8272 32.7702C69.6521 31.3578 72.355 29.6905 74.9352 27.7714L73.1448 25.3643L71.3543 22.9571C69.0504 24.6708 66.6472 26.152 64.1439 27.4036L65.4856 30.0869ZM73.1448 25.3643L74.9479 27.7619C77.5248 25.8239 79.9214 23.683 82.1362 21.3403L79.9563 19.2793L77.7763 17.2183C75.7933 19.3157 73.6488 21.2314 71.3416 22.9666L73.1448 25.3643ZM79.9563 19.2793L82.1362 21.3403C84.3487 19.0003 86.3408 16.5079 88.1105 13.864L85.6174 12.1953L83.1244 10.5266C81.5438 12.8879 79.7618 15.1182 77.7763 17.2183L79.9563 19.2793ZM85.6174 12.1953L88.1074 13.8686C89.9018 11.1984 91.4238 8.42403 92.6694 5.54616L89.9162 4.35449L87.1631 3.16282C86.0676 5.69381 84.7237 8.14663 83.1274 10.522L85.6174 12.1953ZM89.9162 4.35449L89.3113 7.29286C92.033 7.85322 94.1395 8.33454 95.6543 8.7372L96.425 5.83789L97.1957 2.93858C95.5217 2.49359 93.2891 1.98597 90.5212 1.41612L89.9162 4.35449ZM96.425 5.83789L95.6633 8.73958C97.2448 9.15472 98.1369 9.48194 98.5344 9.68642L99.9065 7.01855L101.279 4.35069C100.263 3.8286 98.8344 3.36872 97.1867 2.9362L96.425 5.83789ZM99.9065 7.01855L98.5958 9.71708C98.7772 9.80519 98.6892 9.79456 98.5218 9.61751C98.3213 9.40559 97.9661 8.89708 97.9661 8.13867H100.966H103.966C103.966 6.97662 103.434 6.0796 102.881 5.49431C102.36 4.94389 101.742 4.57502 101.217 4.32003L99.9065 7.01855ZM100.966 8.13867H97.9661C97.9661 7.49166 98.2163 7.0329 98.3773 6.81054C98.5255 6.60587 98.6406 6.53681 98.5866 6.5754C98.545 6.60513 98.431 6.6783 98.2111 6.7865C97.9963 6.89219 97.7145 7.0147 97.3551 7.15161L98.4231 9.95508L99.4911 12.7585C100.43 12.401 101.343 11.9803 102.074 11.4578C102.652 11.0447 103.966 9.96879 103.966 8.13867H100.966ZM98.4231 9.95508L96.3018 12.0764L96.544 12.3186L98.6653 10.1973L100.787 8.07595L100.544 7.83376L98.4231 9.95508ZM98.6653 10.1973L96.6416 12.4119C99.1115 14.6689 101.817 16.7473 104.754 18.6491L106.385 16.1309L108.016 13.6126C105.342 11.8816 102.901 10.0042 100.689 7.98264L98.6653 10.1973ZM106.385 16.1309L104.754 18.6491C107.686 20.5469 110.753 22.2226 113.955 23.6761L115.195 20.9443L116.435 18.2126C113.501 16.8809 110.695 15.3477 108.016 13.6126L106.385 16.1309ZM115.195 20.9443L113.976 23.6858C117.199 25.1179 120.451 26.2805 123.734 27.17L124.519 24.2744L125.303 21.3788C122.33 20.573 119.366 19.5155 116.413 18.2029L115.195 20.9443ZM124.519 24.2744L122.377 22.1738C121.207 23.3664 120.099 24.7373 119.048 26.2712L121.522 27.9678L123.996 29.6644C124.882 28.3727 125.772 27.2813 126.661 26.375L124.519 24.2744ZM121.522 27.9678L119.048 26.2712C118.011 27.7832 117.087 29.3246 116.28 30.8954L118.948 32.2666L121.617 33.6378C122.303 32.3024 123.095 30.9779 123.996 29.6644L121.522 27.9678ZM118.948 32.2666L120.333 29.6052C116.929 27.8346 113.895 26.0374 111.222 24.2168L109.533 26.6963L107.845 29.1757C110.742 31.1494 113.984 33.0658 117.564 34.928L118.948 32.2666ZM109.533 26.6963L111.243 24.231C108.595 22.3951 106.182 20.4418 103.998 18.3729L101.935 20.5508L99.8716 22.7286C102.289 25.0192 104.942 27.1628 107.824 29.1616L109.533 26.6963ZM101.935 20.5508L104.018 18.3916C101.855 16.3052 99.7966 13.9796 97.8455 11.4103L95.4563 13.2246L93.0671 15.0389C95.1928 17.8381 97.4538 20.3967 99.852 22.71L101.935 20.5508ZM95.4563 13.2246L93.0332 11.4558C90.2471 15.2724 86.9067 18.7699 82.9986 21.9464L84.8909 24.2744L86.7831 26.6024C91.0691 23.1187 94.7722 19.2498 97.8793 14.9934L95.4563 13.2246ZM84.8909 24.2744V27.2744H97.5452V24.2744V21.2744H84.8909V24.2744ZM97.5452 24.2744L99.6774 26.3847L102.584 23.4482L100.451 21.3379L98.3191 19.2276L95.4129 22.1641L97.5452 24.2744ZM100.451 21.3379L98.7077 23.7791C99.534 24.3693 100.274 24.9149 100.93 25.4163L102.752 23.0332L104.575 20.6501C103.858 20.1021 103.064 19.5174 102.195 18.8967L100.451 21.3379ZM102.752 23.0332L100.963 25.4414C101.622 25.9307 102.249 26.4272 102.846 26.9306L104.781 24.6377L106.715 22.3448C106.02 21.7583 105.295 21.1851 104.541 20.625L102.752 23.0332ZM104.781 24.6377L102.924 26.9942C103.511 27.4568 104.13 27.9929 104.781 28.6066L106.839 26.4238L108.897 24.2411C108.135 23.5227 107.382 22.868 106.637 22.2812L104.781 24.6377ZM106.839 26.4238L104.288 24.8459L102.865 27.1467L105.416 28.7246L107.968 30.3025L109.391 28.0017L106.839 26.4238ZM105.416 28.7246V25.7246H98.5442V28.7246V31.7246H105.416V28.7246ZM105.174 55.2744L106.38 52.5275L102.656 50.8927L101.45 53.6396L100.244 56.3866L103.968 58.0213L105.174 55.2744ZM101.45 53.6396L104.073 55.0966C105.163 53.1351 106.088 51.0881 106.849 48.9573L104.024 47.9482L101.198 46.9392C100.547 48.7642 99.7565 50.5114 98.828 52.1827L101.45 53.6396ZM104.024 47.9482L106.852 48.9482C107.599 46.8354 108.264 44.5415 108.85 42.0715L105.931 41.3789L103.012 40.6863C102.468 42.9793 101.861 45.065 101.195 46.9483L104.024 47.9482ZM105.931 41.3789L105.013 44.235C107.241 44.9513 108.971 45.5621 110.229 46.0687L111.35 43.2861L112.471 40.5036C111.024 39.9204 109.141 39.2596 106.849 38.5228L105.931 41.3789ZM111.35 43.2861L110.243 46.0744C111.557 46.5963 112.285 46.9852 112.611 47.2161L114.347 44.7695L116.083 42.323C115.157 41.6658 113.887 41.0658 112.457 40.4979L111.35 43.2861ZM114.347 44.7695L112.664 47.2533C112.839 47.3713 112.805 47.3784 112.702 47.2493C112.597 47.1164 112.285 46.6652 112.285 45.9502H115.285H118.285C118.285 44.872 117.818 44.0423 117.399 43.5158C116.984 42.9932 116.481 42.5916 116.029 42.2858L114.347 44.7695ZM115.285 45.9502H112.285C112.285 45.3257 112.53 44.8203 112.793 44.5001C112.911 44.356 113.021 44.2638 113.088 44.2128C113.156 44.1617 113.199 44.1392 113.201 44.1381L114.589 46.7979L115.977 49.4576C116.773 49.0424 118.285 47.9777 118.285 45.9502H115.285ZM114.589 46.7979L113.247 44.1146C113.092 44.1923 112.624 44.3718 111.67 44.6247L112.44 47.5244L113.209 50.4241C114.234 50.1523 115.198 49.8474 115.931 49.4811L114.589 46.7979ZM112.44 47.5244L110.001 45.7773C109.116 47.0122 108.126 48.2071 107.027 49.3616L109.2 51.4297L111.374 53.4978C112.657 52.1496 113.826 50.741 114.878 49.2716L112.44 47.5244ZM109.2 51.4297L107.026 49.3625C105.927 50.5186 104.651 51.7385 103.192 53.0223L105.174 55.2744L107.156 57.5266C108.724 56.1462 110.133 54.803 111.375 53.4969L109.2 51.4297ZM74.719 43.9824L76.7496 46.1907L79.3834 43.7688L77.3528 41.5605L75.3222 39.3522L72.6884 41.7741L74.719 43.9824ZM77.3528 41.5605L76.0448 44.2604C79.1972 45.7876 81.2901 47.1234 82.511 48.2319L84.5276 46.0107L86.5441 43.7896C84.6974 42.1129 82.0071 40.4819 78.6608 38.8607L77.3528 41.5605ZM84.5276 46.0107L82.5272 48.2465C83.7695 49.358 83.8284 49.9619 83.8284 50.0674H86.8284H89.8284C89.8284 47.5088 88.3533 45.4082 86.528 43.775L84.5276 46.0107ZM86.8284 50.0674H83.8284C83.8284 50.0706 83.8282 50.0721 83.8278 50.0739C83.8275 50.0759 83.8258 50.0846 83.8195 50.1015C83.8072 50.1344 83.7696 50.2186 83.6656 50.3523C83.4438 50.6375 82.9863 51.062 82.1243 51.571L83.6496 54.1543L85.175 56.7376C87.5752 55.3203 89.8284 53.1738 89.8284 50.0674H86.8284ZM83.6496 54.1543L82.1062 51.5818C81.7279 51.8088 81.4278 51.9489 81.2016 52.0312L82.2268 54.8506L83.252 57.67C83.9138 57.4293 84.5623 57.1053 85.1931 56.7268L83.6496 54.1543ZM82.2268 54.8506L81.2016 52.0312C81.0126 52.0999 80.9489 52.0928 80.9856 52.0928V55.0928V58.0928C81.7892 58.0928 82.5529 57.9242 83.252 57.67L82.2268 54.8506ZM80.9856 55.0928V52.0928C80.896 52.0928 80.9812 52.0794 81.1657 52.145C81.3736 52.219 81.6839 52.3871 81.9516 52.7166L79.6233 54.6084L77.2949 56.5002C78.3823 57.8384 79.9392 58.0928 80.9856 58.0928V55.0928ZM79.6233 54.6084L82.0064 52.786C82.0959 52.9032 82.1348 52.9844 82.1386 52.9923C82.1442 53.0038 82.1313 52.9786 82.106 52.9029C82.0538 52.7461 81.9832 52.4786 81.9079 52.0684L78.9573 52.6104L76.0066 53.1523C76.1888 54.1443 76.4994 55.462 77.2402 56.4307L79.6233 54.6084ZM78.9573 52.6104L81.9076 52.0669C81.5705 50.2369 80.9606 48.4556 80.0966 46.7277L77.4133 48.0693L74.73 49.411C75.3596 50.67 75.7789 51.9161 76.0069 53.1538L78.9573 52.6104ZM77.4133 48.0693L80.111 46.7569C79.2716 45.0314 78.2289 43.4481 76.9836 42.0148L74.719 43.9824L72.4544 45.95C73.3484 46.979 74.1019 48.1203 74.7156 49.3817L77.4133 48.0693ZM140.081 55.2744H137.081V57.6691L139.416 58.1998L140.081 55.2744ZM140.081 51.0361L140.517 48.0681L137.081 47.5627V51.0361H140.081ZM144.622 51.4902L144.439 54.4847L144.458 54.4858L144.477 54.4868L144.622 51.4902ZM151.857 6.59473L152.049 3.60091L148.857 3.39568V6.59473H151.857ZM158.608 7.2002L158.214 10.1742L158.231 10.1765L158.249 10.1787L158.608 7.2002ZM162.21 7.95703L161.057 10.7263L161.102 10.7453L161.149 10.7629L162.21 7.95703ZM162.634 10.1973L160.611 7.98181L160.587 8.00423L160.563 8.0272L162.634 10.1973ZM160.303 11.8018L158.795 9.20871L157.303 10.0764V11.8018H160.303ZM158.002 59.8457L156.059 57.5599L156.03 57.5846L156.002 57.61L158.002 59.8457ZM154.703 61.4502L153.927 58.5522L153.917 58.555L154.703 61.4502ZM149.253 61.9951L149.467 59.0027L149.36 58.9951H149.253V61.9951ZM148.375 61.9648L145.378 61.8449L145.261 64.776L148.188 64.959L148.375 61.9648ZM148.133 59.4219L151.011 58.5754L151.008 58.5636L151.004 58.5519L148.133 59.4219ZM146.922 57.6963L148.796 55.3537L148.787 55.3458L146.922 57.6963ZM144.379 56.4551L143.384 59.285L143.415 59.296L143.446 59.3063L144.379 56.4551ZM164.087 21.2773L162.249 18.9063L160.089 20.5814L161.556 22.888L164.087 21.2773ZM167.993 18.25L170.026 16.0447L168.161 14.3239L166.155 15.879L167.993 18.25ZM173.139 23.4873L170.897 25.4804L170.902 25.4866L170.908 25.4928L173.139 23.4873ZM181.071 34.1738L178.466 35.6622L178.477 35.6807L178.487 35.699L181.071 34.1738ZM183.341 38.8359L180.524 39.8675L180.531 39.8849L180.537 39.9023L183.341 38.8359ZM181.313 47.4639L179.68 44.9473L179.656 44.9625L179.633 44.9781L181.313 47.4639ZM178.982 48.6748L177.929 45.8658L177.917 45.8702L177.905 45.8748L178.982 48.6748ZM174.229 46.1621L171.269 46.6515L171.276 46.6924L171.284 46.7331L174.229 46.1621ZM172.17 38.1094L169.326 39.0642L169.328 39.0703L172.17 38.1094ZM131.453 51.4297L129.785 53.9232L131.978 55.3904L133.713 53.4023L131.453 51.4297ZM127.063 48.4932L124.426 47.0623L123.122 49.4661L125.395 50.9867L127.063 48.4932ZM133.905 29.8447L130.99 29.1327L130.988 29.1446L133.905 29.8447ZM135.933 18.8555L136.781 15.9778L133.405 14.9831L132.957 18.4736L135.933 18.8555ZM145.015 22.0645L143.708 24.7649L143.72 24.7706L143.732 24.7763L145.015 22.0645ZM147.013 25.5156L148.47 28.1381L148.507 28.1178L148.543 28.0965L147.013 25.5156ZM144.41 26.4238L143.67 23.5163L141.969 23.9489L141.513 25.6439L144.41 26.4238ZM141.201 35.627L138.447 34.4362L138.444 34.4441L138.44 34.452L141.201 35.627ZM136.811 44.1035L134.263 42.5205L134.258 42.5275L134.254 42.5345L136.811 44.1035ZM140.081 55.2744H143.081V51.0361H140.081H137.081V55.2744H140.081ZM140.081 51.0361L139.644 54.0042C141.115 54.2205 142.715 54.3795 144.439 54.4847L144.622 51.4902L144.804 48.4958C143.218 48.3991 141.791 48.2554 140.517 48.0681L140.081 51.0361ZM144.622 51.4902L144.477 54.4868C146.193 54.5695 147.806 54.6113 149.314 54.6113V51.6113V48.6113C147.916 48.6113 146.4 48.5725 144.766 48.4937L144.622 51.4902ZM149.314 51.6113V54.6113C149.958 54.6113 150.631 54.5618 151.275 54.4082C151.897 54.2597 152.706 53.9629 153.398 53.3116L151.342 51.127L149.286 48.9424C149.467 48.7718 149.634 48.6771 149.735 48.6293C149.834 48.5821 149.891 48.5698 149.881 48.5723C149.872 48.5743 149.823 48.5851 149.722 48.5947C149.623 48.6043 149.488 48.6113 149.314 48.6113V51.6113ZM151.342 51.127L153.398 53.3116C154.715 52.0721 154.857 50.2975 154.857 49.25H151.857H148.857C148.857 49.3918 148.85 49.4934 148.843 49.5604C148.835 49.6285 148.829 49.6451 148.835 49.6222C148.842 49.5957 148.932 49.2757 149.286 48.9424L151.342 51.127ZM151.857 49.25H154.857V6.59473H151.857H148.857V49.25H151.857ZM151.857 6.59473L151.664 9.58855C154.461 9.76832 156.635 9.96498 158.214 10.1742L158.608 7.2002L159.002 4.2262C157.23 3.9914 154.904 3.78441 152.049 3.60091L151.857 6.59473ZM158.608 7.2002L158.249 10.1787C159.889 10.3762 160.737 10.5933 161.057 10.7263L162.21 7.95703L163.364 5.1878C162.23 4.71531 160.677 4.4278 158.967 4.22173L158.608 7.2002ZM162.21 7.95703L161.149 10.7629C161.334 10.8331 161.206 10.8182 160.989 10.6132C160.866 10.4971 160.696 10.3011 160.557 10.0113C160.412 9.71012 160.331 9.36831 160.331 9.0166H163.331H166.331C166.331 7.80871 165.761 6.86798 165.112 6.25443C164.522 5.69631 163.833 5.36351 163.272 5.15117L162.21 7.95703ZM163.331 9.0166H160.331C160.331 8.5405 160.485 8.20766 160.572 8.06027C160.653 7.92376 160.7 7.90134 160.611 7.98181L162.634 10.1973L164.657 12.4127C165.315 11.8119 166.331 10.6668 166.331 9.0166H163.331ZM162.634 10.1973L160.563 8.0272C160.389 8.19295 159.872 8.58193 158.795 9.20871L160.303 11.8018L161.812 14.3948C162.955 13.7299 163.991 13.0492 164.706 12.3673L162.634 10.1973ZM160.303 11.8018H157.303V52.792H160.303H163.303V11.8018H160.303ZM160.303 52.792H157.303C157.303 54.3191 157.139 55.4239 156.898 56.1874L159.758 57.0908L162.619 57.9942C163.104 56.457 163.303 54.6958 163.303 52.792H160.303ZM159.758 57.0908L156.898 56.1874C156.68 56.8763 156.38 57.2877 156.059 57.5599L158.002 59.8457L159.945 62.1315C161.24 61.0313 162.11 59.6061 162.619 57.9942L159.758 57.0908ZM158.002 59.8457L156.002 57.61C155.706 57.8749 155.092 58.2404 153.927 58.5522L154.703 61.4502L155.478 64.3482C157.179 63.8931 158.765 63.1889 160.003 62.0814L158.002 59.8457ZM154.703 61.4502L153.917 58.555C152.81 58.8553 151.478 59.0254 149.889 59.0254V62.0254V65.0254C151.893 65.0254 153.769 64.8121 155.488 64.3454L154.703 61.4502ZM149.889 62.0254V59.0254C149.889 59.0254 149.886 59.0254 149.88 59.0253C149.875 59.0252 149.866 59.025 149.856 59.0247C149.834 59.0241 149.805 59.023 149.767 59.0212C149.691 59.0176 149.592 59.0117 149.467 59.0027L149.253 61.9951L149.04 64.9875C149.338 65.0088 149.637 65.0254 149.889 65.0254V62.0254ZM149.253 61.9951V58.9951C149.066 58.9951 148.837 58.9878 148.563 58.9707L148.375 61.9648L148.188 64.959C148.56 64.9822 148.916 64.9951 149.253 64.9951V61.9951ZM148.375 61.9648L151.373 62.0847C151.422 60.8726 151.335 59.6749 151.011 58.5754L148.133 59.4219L145.255 60.2684C145.335 60.5412 145.41 61.0389 145.378 61.8449L148.375 61.9648ZM148.133 59.4219L151.004 58.5519C150.607 57.2401 149.819 56.1718 148.796 55.3537L146.922 57.6963L145.048 60.0389C145.236 60.1895 145.256 60.2716 145.262 60.2919L148.133 59.4219ZM146.922 57.6963L148.787 55.3458C147.812 54.5725 146.592 54.0225 145.312 53.6039L144.379 56.4551L143.446 59.3063C144.387 59.6142 144.863 59.8917 145.058 60.0468L146.922 57.6963ZM144.379 56.4551L145.375 53.6251C144.134 53.1884 142.578 52.7654 140.745 52.349L140.081 55.2744L139.416 58.1998C141.136 58.5907 142.445 58.9549 143.384 59.285L144.379 56.4551ZM164.087 21.2773L165.925 23.6484L169.831 20.621L167.993 18.25L166.155 15.879L162.249 18.9063L164.087 21.2773ZM167.993 18.25L165.959 20.4553C167.704 22.0643 169.349 23.7394 170.897 25.4804L173.139 23.4873L175.381 21.4942C173.7 19.6024 171.915 17.7859 170.026 16.0447L167.993 18.25ZM173.139 23.4873L170.908 25.4928C172.465 27.2249 173.889 28.96 175.183 30.6977L177.589 28.9062L179.996 27.1148C178.585 25.2197 177.042 23.3421 175.37 21.4818L173.139 23.4873ZM177.589 28.9062L175.183 30.6977C176.474 32.4321 177.566 34.0868 178.466 35.6622L181.071 34.1738L183.676 32.6854C182.638 30.8702 181.409 29.0132 179.996 27.1148L177.589 28.9062ZM181.071 34.1738L178.487 35.699C179.407 37.2575 180.077 38.645 180.524 39.8675L183.341 38.8359L186.158 37.8043C185.557 36.161 184.712 34.4404 183.654 32.6487L181.071 34.1738ZM183.341 38.8359L180.537 39.9023C181.007 41.1376 181.159 42.0012 181.159 42.5596H184.159H187.159C187.159 41.019 186.765 39.4002 186.145 37.7696L183.341 38.8359ZM184.159 42.5596H181.159C181.159 43.4568 180.835 44.1977 179.68 44.9473L181.313 47.4639L182.946 49.9804C185.585 48.2677 187.159 45.7392 187.159 42.5596H184.159ZM181.313 47.4639L179.633 44.9781C179.073 45.3567 178.505 45.6495 177.929 45.8658L178.982 48.6748L180.035 51.4838C181.073 51.0946 182.059 50.5802 182.993 49.9496L181.313 47.4639ZM178.982 48.6748L177.905 45.8748C177.616 45.986 177.392 46.0525 177.227 46.09C177.146 46.1084 177.085 46.1184 177.043 46.1237C177.001 46.129 176.982 46.1289 176.984 46.1289V49.1289V52.1289C178.042 52.1289 179.096 51.8453 180.059 51.4748L178.982 48.6748ZM176.984 49.1289V46.1289C176.965 46.1289 177.035 46.1269 177.149 46.1746C177.268 46.2244 177.356 46.295 177.404 46.3459C177.443 46.3883 177.418 46.3779 177.364 46.2547C177.309 46.1295 177.237 45.9179 177.174 45.5911L174.229 46.1621L171.284 46.7331C171.533 48.0191 172.022 49.3683 173.007 50.4286C174.081 51.5849 175.495 52.1289 176.984 52.1289V49.1289ZM174.229 46.1621L177.189 45.6727C176.735 42.9291 176.006 40.0866 175.012 37.1484L172.17 38.1094L169.328 39.0703C170.232 41.7428 170.875 44.2688 171.269 46.6515L174.229 46.1621ZM172.17 38.1094L175.014 37.1546C174.024 34.2054 172.817 31.2459 171.395 28.2766L168.689 29.5723L165.983 30.868C167.306 33.6304 168.419 36.3623 169.326 39.0642L172.17 38.1094ZM168.689 29.5723L171.395 28.2766C169.971 25.303 168.379 22.4328 166.618 19.6667L164.087 21.2773L161.556 22.888C163.187 25.45 164.662 28.1098 165.983 30.868L168.689 29.5723ZM131.453 51.4297L133.121 48.9362L128.731 45.9997L127.063 48.4932L125.395 50.9867L129.785 53.9232L131.453 51.4297ZM127.063 48.4932L129.7 49.924C131.191 47.1758 132.531 44.1636 133.725 40.8948L130.908 39.8652L128.09 38.8357C126.983 41.8637 125.76 44.6035 124.426 47.0623L127.063 48.4932ZM130.908 39.8652L133.725 40.8948C134.918 37.63 135.95 34.1792 136.822 30.5448L133.905 29.8447L130.988 29.1446C130.165 32.574 129.198 35.8035 128.09 38.8357L130.908 39.8652ZM133.905 29.8447L136.819 30.5567C137.715 26.8915 138.411 23.1181 138.909 19.2374L135.933 18.8555L132.957 18.4736C132.487 22.141 131.831 25.6937 130.99 29.1327L133.905 29.8447ZM135.933 18.8555L135.085 21.7331C139.237 22.9565 142.065 23.97 143.708 24.7649L145.015 22.0645L146.322 19.364C144.211 18.3425 140.985 17.2167 136.781 15.9778L135.933 18.8555ZM145.015 22.0645L143.732 24.7763C144.135 24.9669 144.456 25.138 144.706 25.2875C144.96 25.4395 145.109 25.5507 145.184 25.6148C145.268 25.6857 145.206 25.652 145.11 25.4977C145.005 25.3298 144.831 24.968 144.831 24.4561H147.831H150.831C150.831 22.7483 149.735 21.6078 149.069 21.0419C148.309 20.3966 147.336 19.8435 146.298 19.3526L145.015 22.0645ZM147.831 24.4561H144.831C144.831 23.8801 145.051 23.4352 145.251 23.1761C145.422 22.954 145.556 22.8919 145.484 22.9348L147.013 25.5156L148.543 28.0965C149.383 27.5987 150.831 26.4596 150.831 24.4561H147.831ZM147.013 25.5156L145.556 22.8932C145.362 23.0009 144.803 23.2283 143.67 23.5163L144.41 26.4238L145.149 29.3313C146.397 29.0139 147.574 28.6358 148.47 28.1381L147.013 25.5156ZM144.41 26.4238L141.513 25.6439C140.703 28.6524 139.681 31.5828 138.447 34.4362L141.201 35.627L143.954 36.8177C145.304 33.6972 146.421 30.4921 147.306 27.2037L144.41 26.4238ZM141.201 35.627L138.44 34.452C137.227 37.3026 135.834 39.9913 134.263 42.5205L136.811 44.1035L139.359 45.6866C141.098 42.8876 142.631 39.9252 143.961 36.802L141.201 35.627ZM136.811 44.1035L134.254 42.5345C132.701 45.0646 131.013 47.3704 129.192 49.4571L131.453 51.4297L133.713 53.4023C135.767 51.0489 137.651 48.4706 139.368 45.6726L136.811 44.1035ZM207.592 32.2666V29.2666H204.592V32.2666H207.592ZM207.592 39.8955H204.592V42.8955H207.592V39.8955ZM212.193 39.8955V42.8955H213.615L214.516 41.7944L212.193 39.8955ZM215.856 35.415L217.898 33.2167L215.556 31.0424L213.534 33.5162L215.856 35.415ZM218.066 37.5645L215.911 39.6518L215.945 39.686L215.979 39.7192L218.066 37.5645ZM219.852 39.4717L217.559 41.4063L217.577 41.4269L217.595 41.4472L219.852 39.4717ZM221.608 41.6211L224.205 43.1223L225.21 41.3837L223.986 39.792L221.608 41.6211ZM219.701 44.9209V47.9209H221.432L222.298 46.4221L219.701 44.9209ZM207.592 44.9209V41.9209H204.592V44.9209H207.592ZM207.592 63.0244V66.0244H210.592V63.0244H207.592ZM199.902 63.0244H196.902V66.0244H199.902V63.0244ZM199.902 44.9209H202.902V41.9209H199.902V44.9209ZM188.307 44.9209L185.421 45.7382L186.039 47.9209H188.307V44.9209ZM186.884 39.8955V36.8955H182.917L183.998 40.7128L186.884 39.8955ZM199.902 39.8955V42.8955H202.902V39.8955H199.902ZM199.902 32.2666H202.902V29.2666H199.902V32.2666ZM189.549 32.2666L186.655 33.0604L187.261 35.2666H189.549V32.2666ZM188.186 27.3018V24.3018H184.252L185.293 28.0956L188.186 27.3018ZM199.902 27.3018V30.3018H202.902V27.3018H199.902ZM199.902 4.86914L200.089 1.87498L196.902 1.67579V4.86914H199.902ZM209.468 8.01758L211.59 10.1389L211.618 10.1102L211.646 10.0808L209.468 8.01758ZM207.592 9.50098L205.864 7.04853L204.592 7.94481V9.50098H207.592ZM207.592 27.3018H204.592V30.3018H207.592V27.3018ZM212.496 27.3018V30.3018H213.966L214.867 29.1398L212.496 27.3018ZM215.523 23.3965L217.676 21.3071L215.269 18.8274L213.152 21.5585L215.523 23.3965ZM217.218 25.2129L214.971 27.2006L214.991 27.2225L215.011 27.2441L217.218 25.2129ZM220.125 29.0273L222.833 30.3181L223.57 28.7709L222.612 27.3499L220.125 29.0273ZM218.581 32.2666V35.2666H220.474L221.289 33.5574L218.581 32.2666ZM223.667 56.7578H220.667V59.1831L223.038 59.6912L223.667 56.7578ZM223.667 52.9131L223.97 49.9285L220.667 49.5925V52.9131H223.667ZM227.693 53.1855L227.572 56.1831L227.573 56.1831L227.693 53.1855ZM234.051 52.8828L236.015 55.1499L236.057 55.1137L236.097 55.076L234.051 52.8828ZM234.505 5.23242L234.787 2.24572L231.505 1.9356V5.23242H234.505ZM240.559 5.95898L240.073 8.91925L240.092 8.92251L240.112 8.92549L240.559 5.95898ZM243.677 6.68555L242.485 9.43821L242.501 9.44527L242.517 9.45213L243.677 6.68555ZM244.041 8.59277L241.978 6.41492L241.948 6.44279L241.919 6.47145L244.041 8.59277ZM242.073 10.0762L240.421 7.57185L239.073 8.4611V10.0762H242.073ZM242.073 54.6992H239.073V54.7139L239.073 54.7286L242.073 54.6992ZM241.134 59.6035L238.487 58.1918L238.473 58.2179L238.46 58.2444L241.134 59.6035ZM237.956 62.207L236.996 59.3648L236.972 59.3727L236.949 59.3809L237.956 62.207ZM231.962 62.9639L228.962 62.8941L228.892 65.9394L231.938 65.9638L231.962 62.9639ZM231.629 60.7236L228.831 61.8066L231.629 60.7236ZM230.357 59.0889L232.182 56.708L232.157 56.6886L232.131 56.6697L230.357 59.0889ZM227.814 57.8477L228.81 55.0177L228.794 55.0123L228.779 55.007L227.814 57.8477ZM212.133 25.001L210.874 27.7242L212.974 28.6947L214.446 26.9107L212.133 25.001ZM208.53 23.3359L205.732 22.254L204.717 24.8786L207.271 26.0591L208.53 23.3359ZM210.134 18.4922L207.254 17.6548L207.251 17.6659L207.247 17.677L210.134 18.4922ZM212.375 8.07812L213.445 5.27547L209.905 3.92394L209.401 7.67926L212.375 8.07812ZM217.673 10.2578L216.415 12.9817L216.423 12.9853L216.431 12.9889L217.673 10.2578ZM220.549 11.832L218.735 14.2221L218.762 14.2423L218.789 14.2619L220.549 11.832ZM220.76 13.9209L222.34 16.4717L222.355 16.4619L222.371 16.4519L220.76 13.9209ZM218.702 14.7686L217.79 11.9106L216.605 12.2885L216.036 13.3933L218.702 14.7686ZM215.463 20.3691L212.941 18.744L215.463 20.3691ZM188.307 10.9238L186.728 8.37303L184.506 9.74898L185.564 12.139L188.307 10.9238ZM191.486 8.95605L193.599 6.82623L191.919 5.15977L189.907 6.40526L191.486 8.95605ZM195.997 24.2139L194.583 21.5676L194.575 21.5722L194.567 21.5768L195.997 24.2139ZM190.911 21.792L187.917 21.9894L187.919 22.0206L187.922 22.0519L190.911 21.792ZM190.033 16.1914L187.11 16.8682L187.114 16.8864L187.119 16.9044L190.033 16.1914ZM222.607 46.9492H219.607V49.9492H222.607V46.9492ZM222.607 10.4395L222.856 7.44982L219.607 7.17905V10.4395H222.607ZM231.175 11.7109L229.956 14.4524L229.974 14.4605L229.993 14.4684L231.175 11.7109ZM229.661 14.8896L228.054 12.3561L226.661 13.2397V14.8896H229.661ZM229.661 46.9492V49.9492H232.661V46.9492H229.661ZM207.592 32.2666H204.592V39.8955H207.592H210.592V32.2666H207.592ZM207.592 39.8955V42.8955H212.193V39.8955V36.8955H207.592V39.8955ZM212.193 39.8955L214.516 41.7944L218.179 37.3139L215.856 35.415L213.534 33.5162L209.871 37.9966L212.193 39.8955ZM215.856 35.415L213.815 37.6134C214.634 38.3741 215.331 39.0529 215.911 39.6518L218.066 37.5645L220.221 35.4771C219.55 34.7843 218.774 34.0302 217.898 33.2167L215.856 35.415ZM218.066 37.5645L215.979 39.7192C216.557 40.2794 217.083 40.8419 217.559 41.4063L219.852 39.4717L222.145 37.5371C221.531 36.8098 220.867 36.1008 220.154 35.4097L218.066 37.5645ZM219.852 39.4717L217.595 41.4472C218.112 42.0388 218.657 42.7056 219.23 43.4502L221.608 41.6211L223.986 39.792C223.348 38.9624 222.723 38.1962 222.11 37.4962L219.852 39.4717ZM221.608 41.6211L219.011 40.1199L217.104 43.4197L219.701 44.9209L222.298 46.4221L224.205 43.1223L221.608 41.6211ZM219.701 44.9209V41.9209H207.592V44.9209V47.9209H219.701V44.9209ZM207.592 44.9209H204.592V63.0244H207.592H210.592V44.9209H207.592ZM207.592 63.0244V60.0244H199.902V63.0244V66.0244H207.592V63.0244ZM199.902 63.0244H202.902V44.9209H199.902H196.902V63.0244H199.902ZM199.902 44.9209V41.9209H188.307V44.9209V47.9209H199.902V44.9209ZM188.307 44.9209L191.194 44.1036L189.771 39.0782L186.884 39.8955L183.998 40.7128L185.421 45.7382L188.307 44.9209ZM186.884 39.8955V42.8955H199.902V39.8955V36.8955H186.884V39.8955ZM199.902 39.8955H202.902V32.2666H199.902H196.902V39.8955H199.902ZM199.902 32.2666V29.2666H189.549V32.2666V35.2666H199.902V32.2666ZM189.549 32.2666L192.442 31.4728L191.079 26.5079L188.186 27.3018L185.293 28.0956L186.655 33.0604L189.549 32.2666ZM188.186 27.3018V30.3018H199.902V27.3018V24.3018H188.186V27.3018ZM199.902 27.3018H202.902V4.86914H199.902H196.902V27.3018H199.902ZM199.902 4.86914L199.715 7.8633C202.275 8.02331 204.234 8.19044 205.62 8.36125L205.987 5.38379L206.354 2.40633C204.793 2.21386 202.696 2.03788 200.089 1.87498L199.902 4.86914ZM205.987 5.38379L205.62 8.36125C207.078 8.54103 207.777 8.71951 207.991 8.80496L209.105 6.01953L210.219 3.2341C209.222 2.83517 207.842 2.58983 206.354 2.40633L205.987 5.38379ZM209.105 6.01953L207.991 8.80496C208.079 8.84015 207.882 8.78221 207.631 8.52206C207.32 8.20091 207.013 7.65196 207.013 6.95801H210.013H213.013C213.013 4.61978 211.088 3.58159 210.219 3.2341L209.105 6.01953ZM210.013 6.95801H207.013C207.013 6.54481 207.131 6.24484 207.209 6.09304C207.283 5.94979 207.337 5.90523 207.291 5.95434L209.468 8.01758L211.646 10.0808C212.22 9.47516 213.013 8.41092 213.013 6.95801H210.013ZM209.468 8.01758L207.347 5.89626C207.177 6.06638 206.73 6.43792 205.864 7.04853L207.592 9.50098L209.319 11.9534C210.229 11.3127 211.033 10.6953 211.59 10.1389L209.468 8.01758ZM207.592 9.50098H204.592V27.3018H207.592H210.592V9.50098H207.592ZM207.592 27.3018V30.3018H212.496V27.3018V24.3018H207.592V27.3018ZM212.496 27.3018L214.867 29.1398L217.894 25.2345L215.523 23.3965L213.152 21.5585L210.125 25.4638L212.496 27.3018ZM215.523 23.3965L213.37 25.4859C214.015 26.15 214.547 26.7204 214.971 27.2006L217.218 25.2129L219.465 23.2252C218.962 22.6559 218.363 22.0154 217.676 21.3071L215.523 23.3965ZM217.218 25.2129L215.011 27.2441C215.406 27.6741 215.8 28.1457 216.191 28.6608L218.581 26.8477L220.971 25.0345C220.474 24.379 219.959 23.7608 219.426 23.1817L217.218 25.2129ZM218.581 26.8477L216.191 28.6608C216.59 29.1876 217.071 29.8655 217.638 30.7048L220.125 29.0273L222.612 27.3499C222.007 26.4535 221.459 25.6783 220.971 25.0345L218.581 26.8477ZM220.125 29.0273L217.417 27.7366L215.873 30.9758L218.581 32.2666L221.289 33.5574L222.833 30.3181L220.125 29.0273ZM218.581 32.2666V29.2666H207.592V32.2666V35.2666H218.581V32.2666ZM223.667 56.7578H226.667V52.9131H223.667H220.667V56.7578H223.667ZM223.667 52.9131L223.363 55.8977C224.627 56.0262 226.031 56.1206 227.572 56.1831L227.693 53.1855L227.815 50.188C226.368 50.1294 225.088 50.0421 223.97 49.9285L223.667 52.9131ZM227.693 53.1855L227.573 56.1831C229.125 56.2452 230.649 56.2764 232.143 56.2764V53.2764V50.2764C230.732 50.2764 229.288 50.247 227.813 50.1879L227.693 53.1855ZM232.143 53.2764V56.2764C232.742 56.2764 233.364 56.2376 233.953 56.1161C234.494 56.0044 235.306 55.7645 236.015 55.1499L234.051 52.8828L232.086 50.6157C232.305 50.4258 232.5 50.3305 232.601 50.2884C232.703 50.2455 232.759 50.2361 232.74 50.2399C232.725 50.243 232.669 50.253 232.563 50.2617C232.458 50.2703 232.32 50.2764 232.143 50.2764V53.2764ZM234.051 52.8828L236.097 55.076C236.806 54.4147 237.132 53.6115 237.292 53.003C237.456 52.3808 237.505 51.7423 237.505 51.1572H234.505H231.505C231.505 51.4399 231.477 51.523 231.49 51.476C231.499 51.4427 231.598 51.0684 232.004 50.6896L234.051 52.8828ZM234.505 51.1572H237.505V5.23242H234.505H231.505V51.1572H234.505ZM234.505 5.23242L234.222 8.21912C236.758 8.45874 238.698 8.69336 240.073 8.91925L240.559 5.95898L241.046 2.99871C239.474 2.74023 237.377 2.49048 234.787 2.24572L234.505 5.23242ZM240.559 5.95898L240.112 8.92549C241.568 9.14486 242.268 9.3442 242.485 9.43821L243.677 6.68555L244.87 3.93288C243.876 3.50215 242.497 3.21712 241.006 2.99247L240.559 5.95898ZM243.677 6.68555L242.517 9.45213C242.628 9.4987 242.458 9.45118 242.227 9.2119C241.941 8.91727 241.616 8.37488 241.616 7.6543H244.616H247.616C247.616 5.30979 245.662 4.26479 244.838 3.91896L243.677 6.68555ZM244.616 7.6543H241.616C241.616 7.05376 241.831 6.65375 241.914 6.51801C242.002 6.37577 242.054 6.34215 241.978 6.41492L244.041 8.59277L246.104 10.7706C246.557 10.3412 247.616 9.25951 247.616 7.6543H244.616ZM244.041 8.59277L241.919 6.47145C241.788 6.60327 241.353 6.957 240.421 7.57185L242.073 10.0762L243.725 12.5805C244.69 11.944 245.567 11.3088 246.162 10.7141L244.041 8.59277ZM242.073 10.0762H239.073V54.6992H242.073H245.073V10.0762H242.073ZM242.073 54.6992L239.073 54.7286C239.091 56.5164 238.808 57.5912 238.487 58.1918L241.134 59.6035L243.782 61.0153C244.753 59.1939 245.096 56.9993 245.073 54.6698L242.073 54.6992ZM241.134 59.6035L238.46 58.2444C238.241 58.6756 237.86 59.0729 236.996 59.3648L237.956 62.207L238.916 65.0492C241.039 64.332 242.777 62.9937 243.809 60.9627L241.134 59.6035ZM237.956 62.207L236.949 59.3809C235.947 59.738 234.346 59.9828 231.986 59.964L231.962 62.9639L231.938 65.9638C234.623 65.9853 237.018 65.7255 238.962 65.0331L237.956 62.207ZM231.962 62.9639L234.961 63.0336C234.988 61.8825 234.846 60.7243 234.426 59.6407L231.629 60.7236L228.831 61.8066C228.896 61.9743 228.976 62.3095 228.962 62.8941L231.962 62.9639ZM231.629 60.7236L234.426 59.6407C233.959 58.4337 233.164 57.4604 232.182 56.708L230.357 59.0889L228.532 61.4697C228.762 61.6458 228.814 61.7622 228.831 61.8066L231.629 60.7236ZM230.357 59.0889L232.131 56.6697C231.196 55.984 230.045 55.4524 228.81 55.0177L227.814 57.8477L226.818 60.6776C227.763 61.0099 228.307 61.3057 228.583 61.5081L230.357 59.0889ZM227.814 57.8477L228.779 55.007C227.557 54.5922 226.051 54.2007 224.295 53.8244L223.667 56.7578L223.038 59.6912C224.673 60.0415 225.932 60.3766 226.849 60.6883L227.814 57.8477ZM212.133 25.001L213.391 22.2778L209.789 20.6127L208.53 23.3359L207.271 26.0591L210.874 27.7242L212.133 25.001ZM208.53 23.3359L211.328 24.4179C211.95 22.8087 212.514 21.1045 213.022 19.3074L210.134 18.4922L207.247 17.677C206.786 19.3109 206.28 20.8358 205.732 22.254L208.53 23.3359ZM210.134 18.4922L213.015 19.3296C213.54 17.5261 214.001 15.7021 214.399 13.8577L211.467 13.2246L208.534 12.5915C208.165 14.2992 207.739 15.9869 207.254 17.6548L210.134 18.4922ZM211.467 13.2246L214.399 13.8577C214.798 12.0109 215.115 10.217 215.348 8.47699L212.375 8.07812L209.401 7.67926C209.191 9.2491 208.902 10.8863 208.534 12.5915L211.467 13.2246ZM212.375 8.07812L211.305 10.8808C213.496 11.7175 215.191 12.4167 216.415 12.9817L217.673 10.2578L218.93 7.53393C217.53 6.88795 215.693 6.13405 213.445 5.27547L212.375 8.07812ZM217.673 10.2578L216.431 12.9889C217.719 13.5741 218.426 13.9877 218.735 14.2221L220.549 11.832L222.362 9.44196C221.5 8.78835 220.291 8.15249 218.914 7.52671L217.673 10.2578ZM220.549 11.832L218.789 14.2619C218.929 14.3636 218.881 14.3559 218.778 14.2135C218.664 14.0567 218.426 13.65 218.426 13.043H221.426H224.426C224.426 11.1088 223.024 9.92078 222.308 9.4022L220.549 11.832ZM221.426 13.043H218.426C218.426 12.4094 218.672 11.9374 218.87 11.6763C219.045 11.4449 219.191 11.364 219.15 11.3899L220.76 13.9209L222.371 16.4519C223.041 16.0255 224.426 14.95 224.426 13.043H221.426ZM220.76 13.9209L219.181 11.3701C219.084 11.4306 218.688 11.6239 217.79 11.9106L218.702 14.7686L219.614 17.6265C220.613 17.3077 221.59 16.9359 222.34 16.4717L220.76 13.9209ZM218.702 14.7686L216.036 13.3933C215.091 15.2249 214.059 17.0084 212.941 18.744L215.463 20.3691L217.984 21.9942C219.207 20.097 220.335 18.1468 221.368 16.1438L218.702 14.7686ZM215.463 20.3691L212.941 18.744C211.816 20.49 210.775 21.9333 209.819 23.0913L212.133 25.001L214.446 26.9107C215.589 25.5257 216.768 23.8811 217.984 21.9942L215.463 20.3691ZM188.307 10.9238L189.886 13.4746L193.065 11.5069L191.486 8.95605L189.907 6.40526L186.728 8.37303L188.307 10.9238ZM191.486 8.95605L189.373 11.0859C191.824 13.5169 193.465 15.4879 194.418 17.0195L196.966 15.4346L199.513 13.8497C198.205 11.7484 196.194 9.4004 193.599 6.82623L191.486 8.95605ZM196.966 15.4346L194.418 17.0195C195.389 18.5791 195.661 19.6473 195.661 20.3086H198.661H201.661C201.661 18.104 200.803 15.9228 199.513 13.8497L196.966 15.4346ZM198.661 20.3086H195.661C195.661 20.5967 195.635 21.0059 194.583 21.5676L195.997 24.2139L197.41 26.8601C199.91 25.5247 201.661 23.3304 201.661 20.3086H198.661ZM195.997 24.2139L194.567 21.5768C193.566 22.1193 193.075 22.1826 192.969 22.1826V25.1826V28.1826C194.518 28.1826 196.046 27.6001 197.427 26.851L195.997 24.2139ZM192.969 25.1826V22.1826C192.909 22.1826 192.931 22.1764 193.01 22.1953C193.093 22.2149 193.252 22.2651 193.441 22.3866L191.819 24.9102L190.197 27.4337C191.133 28.0353 192.151 28.1826 192.969 28.1826V25.1826ZM191.819 24.9102L193.441 22.3866C194.053 22.7801 194.148 23.2812 194.124 23.1835L191.214 23.9111L188.303 24.6387C188.521 25.5098 189.02 26.6769 190.197 27.4337L191.819 24.9102ZM191.214 23.9111L194.124 23.1835C194.061 22.9319 193.976 22.413 193.9 21.5321L190.911 21.792L187.922 22.0519C188.007 23.0277 188.124 23.9216 188.303 24.6387L191.214 23.9111ZM190.911 21.792L193.904 21.5946C193.771 19.574 193.45 17.5345 192.947 15.4784L190.033 16.1914L187.119 16.9044C187.544 18.6426 187.808 20.3369 187.917 21.9894L190.911 21.792ZM190.033 16.1914L192.956 15.5146C192.474 13.4357 191.842 11.4969 191.05 9.70863L188.307 10.9238L185.564 12.139C186.185 13.5396 186.704 15.1125 187.11 16.8682L190.033 16.1914ZM222.607 46.9492H225.607V10.4395H222.607H219.607V46.9492H222.607ZM222.607 10.4395L222.358 13.4291C224.756 13.6289 226.581 13.8246 227.862 14.013L228.299 11.0449L228.735 8.07684C227.271 7.86155 225.302 7.65361 222.856 7.44982L222.607 10.4395ZM228.299 11.0449L227.862 14.013C228.497 14.1064 228.995 14.1986 229.37 14.2854C229.556 14.3285 229.698 14.3672 229.803 14.3996C229.911 14.4329 229.956 14.4525 229.956 14.4524L231.175 11.7109L232.393 8.9695C231.438 8.54499 230.116 8.27993 228.735 8.07684L228.299 11.0449ZM231.175 11.7109L229.993 14.4684C230.062 14.4979 229.863 14.4303 229.617 14.1666C229.318 13.8461 229.022 13.3045 229.022 12.6191H232.022H235.022C235.022 10.357 233.194 9.31259 232.356 8.9535L231.175 11.7109ZM232.022 12.6191H229.022C229.022 11.9718 229.265 11.5579 229.321 11.4677C229.391 11.3523 229.422 11.3401 229.326 11.4363L231.447 13.5576L233.568 15.6789C233.856 15.3917 234.174 15.0314 234.436 14.6031C234.683 14.2001 235.022 13.5087 235.022 12.6191H232.022ZM231.447 13.5576L229.326 11.4363C229.201 11.5609 228.831 11.8635 228.054 12.3561L229.661 14.8896L231.267 17.4232C232.146 16.8663 232.966 16.2809 233.568 15.6789L231.447 13.5576ZM229.661 14.8896H226.661V46.9492H229.661H232.661V14.8896H229.661ZM229.661 46.9492V43.9492H222.607V46.9492V49.9492H229.661V46.9492Z" fill="black" mask="url(#path-1-outside-1_13_436)"/>
<defs>
<linearGradient id="paint0_linear_13_436" x1="125.5" y1="2" x2="125.5" y2="64" gradientUnits="userSpaceOnUse">
<stop stop-color="#BFB159"/>
<stop offset="0.15" stop-color="#FFF07D"/>
<stop offset="0.302885" stop-color="white"/>
<stop offset="0.5" stop-color="#FFF07D"/>
<stop offset="0.697115" stop-color="#DFA844"/>
<stop offset="0.903846" stop-color="#FFF07D"/>
<stop offset="1" stop-color="#BFB159"/>
</linearGradient>
</defs>
</svg>
