<?xml version="1.0" encoding="utf-8"?>
<!-- Generator: Adobe Illustrator 27.6.1, SVG Export Plug-In . SVG Version: 6.00 Build 0)  -->
<svg version="1.1" id="レイヤー_1" xmlns="http://www.w3.org/2000/svg" xmlns:xlink="http://www.w3.org/1999/xlink" x="0px"
	 y="0px" viewBox="0 0 19.299 17.936" enable-background="new 0 0 19.299 17.936" xml:space="preserve">
<g transform="translate(-1529.985 -49.299)">
	<path fill="#313131" d="M1539.635,57.265c-1.057,0.03-2.08-0.379-2.826-1.129c-0.752-0.75-1.161-1.778-1.129-2.84
		c-0.033-1.058,0.376-2.082,1.129-2.826c0.75-0.743,1.771-1.146,2.826-1.116c1.055-0.03,2.077,0.373,2.827,1.116
		c0.753,0.744,1.162,1.768,1.129,2.826c0.031,1.062-0.377,2.09-1.129,2.84C1541.716,56.886,1540.693,57.295,1539.635,57.265z
		 M1530.035,67.185v-1.983c-0.007-0.583,0.175-1.152,0.52-1.622c0.352-0.482,0.821-0.866,1.363-1.116
		c1.271-0.569,2.591-1.023,3.943-1.358c1.235-0.303,2.501-0.458,3.773-0.461c1.27,0.003,2.536,0.16,3.769,0.465
		c1.347,0.336,2.661,0.794,3.926,1.366c0.553,0.24,1.032,0.621,1.389,1.106c0.343,0.47,0.524,1.038,0.516,1.619v1.983
		L1530.035,67.185z M1531.09,66.13h17.089v-0.928c-0.006-0.365-0.129-0.717-0.352-1.006c-0.255-0.338-0.585-0.612-0.964-0.8
		c-1.152-0.574-2.367-1.01-3.621-1.3c-1.185-0.263-2.395-0.395-3.608-0.394c-1.22-0.001-2.437,0.131-3.629,0.394
		c-1.251,0.284-2.463,0.72-3.607,1.3c-0.379,0.187-0.708,0.461-0.96,0.8c-0.221,0.289-0.343,0.642-0.348,1.006V66.13z
		 M1539.635,56.206c0.774,0.019,1.522-0.283,2.066-0.835c0.552-0.544,0.854-1.292,0.835-2.066c0.019-0.774-0.283-1.522-0.835-2.066
		c-0.544-0.552-1.292-0.854-2.066-0.835c-0.774-0.019-1.522,0.283-2.066,0.835c-0.552,0.544-0.854,1.292-0.835,2.066
		c-0.019,0.774,0.283,1.522,0.835,2.066C1538.113,55.923,1538.861,56.225,1539.635,56.206L1539.635,56.206z"/>
	<path fill="#313131" d="M1539.635,49.299c1.068-0.029,2.102,0.38,2.862,1.131c0.761,0.755,1.175,1.791,1.144,2.862
		c0.03,1.075-0.384,2.114-1.144,2.875c-0.756,0.758-1.791,1.172-2.862,1.144c-1.071,0.028-2.105-0.386-2.862-1.144
		c-0.76-0.761-1.174-1.8-1.144-2.875c-0.031-1.071,0.383-2.107,1.144-2.862C1537.533,49.679,1538.567,49.27,1539.635,49.299z
		 M1539.635,57.211c1.044,0.028,2.053-0.376,2.791-1.115c0.74-0.741,1.143-1.753,1.115-2.8c0.031-1.045-0.373-2.055-1.115-2.791
		c-0.742-0.731-1.75-1.128-2.791-1.1c-1.041-0.028-2.049,0.369-2.791,1.1c-0.742,0.736-1.146,1.746-1.115,2.791
		c-0.028,1.047,0.375,2.059,1.115,2.8C1537.582,56.835,1538.591,57.239,1539.635,57.211z M1539.635,50.354
		c0.787-0.017,1.546,0.29,2.1,0.849c0.559,0.554,0.866,1.313,0.849,2.1c0.017,0.787-0.29,1.546-0.849,2.1
		c-0.554,0.559-1.313,0.866-2.1,0.849c-0.787,0.017-1.546-0.29-2.1-0.849c-0.559-0.554-0.866-1.313-0.849-2.1
		c-0.017-0.787,0.29-1.546,0.849-2.1C1538.089,50.644,1538.848,50.337,1539.635,50.354z M1539.635,56.154
		c0.761,0.017,1.495-0.279,2.031-0.82c0.541-0.536,0.837-1.27,0.82-2.031c0.017-0.761-0.279-1.495-0.82-2.031
		c-0.536-0.541-1.27-0.837-2.031-0.82c-0.761-0.017-1.495,0.279-2.031,0.82c-0.541,0.536-0.837,1.27-0.82,2.031
		c-0.017,0.761,0.279,1.495,0.82,2.031c0.535,0.542,1.27,0.839,2.031,0.822V56.154z M1539.635,60.592
		c1.274,0.004,2.544,0.161,3.781,0.467c1.35,0.338,2.666,0.796,3.934,1.369c0.56,0.244,1.046,0.631,1.409,1.122
		c0.348,0.479,0.533,1.057,0.526,1.649v2.033h-19.3v-2.033c-0.006-0.593,0.179-1.172,0.529-1.651
		c0.358-0.488,0.833-0.877,1.382-1.131c1.275-0.57,2.598-1.026,3.953-1.362c1.239-0.303,2.51-0.457,3.786-0.461V60.592z
		 M1549.185,67.132v-1.933c0.006-0.571-0.171-1.128-0.507-1.59c-0.353-0.477-0.825-0.853-1.369-1.09
		c-1.262-0.57-2.573-1.027-3.917-1.363c-1.23-0.304-2.491-0.46-3.758-0.464c-1.267,0.004-2.53,0.159-3.761,0.46
		c-1.349,0.335-2.666,0.788-3.935,1.355c-0.533,0.247-0.995,0.626-1.343,1.1c-0.337,0.462-0.516,1.02-0.51,1.592v1.933
		L1549.185,67.132z M1539.635,61.646c1.217,0.001,2.431,0.135,3.619,0.4c1.257,0.29,2.476,0.726,3.632,1.3
		c0.386,0.193,0.723,0.474,0.982,0.819c0.229,0.297,0.356,0.661,0.362,1.036v0.978h-17.195v-0.978
		c0.006-0.374,0.131-0.737,0.358-1.035c0.257-0.346,0.592-0.626,0.977-0.818c1.149-0.579,2.365-1.016,3.62-1.3
		c1.197-0.264,2.419-0.398,3.645-0.399V61.646z M1548.13,66.077v-0.878c-0.006-0.354-0.126-0.697-0.342-0.977
		c-0.25-0.333-0.575-0.602-0.947-0.788c-1.148-0.571-2.359-1.005-3.608-1.294c-2.377-0.522-4.839-0.522-7.216,0
		c-1.248,0.283-2.457,0.718-3.6,1.295c-0.371,0.185-0.694,0.455-0.942,0.788c-0.214,0.281-0.333,0.624-0.339,0.977v0.878
		L1548.13,66.077z"/>
</g>
</svg>
