<?xml version="1.0" encoding="utf-8"?>
<!-- Generator: Adobe Illustrator 27.6.1, SVG Export Plug-In . SVG Version: 6.00 Build 0)  -->
<svg version="1.1" id="レイヤー_1" xmlns="http://www.w3.org/2000/svg" xmlns:xlink="http://www.w3.org/1999/xlink" x="0px"
	 y="0px" viewBox="0 0 18.06 18.744" enable-background="new 0 0 18.06 18.744" xml:space="preserve">
<path fill="#313131" d="M5.443,18.744c-0.427,0.008-0.837-0.162-1.133-0.47c-0.305-0.301-0.473-0.713-0.465-1.141
	c-0.006-0.427,0.164-0.837,0.471-1.134c0.299-0.305,0.71-0.474,1.137-0.466c0.428-0.008,0.839,0.163,1.137,0.47
	c0.306,0.3,0.476,0.712,0.468,1.141c0.008,0.428-0.162,0.84-0.47,1.138C6.286,18.587,5.872,18.754,5.443,18.744z M14.858,18.744
	c-0.427,0.008-0.837-0.162-1.133-0.47c-0.305-0.301-0.473-0.713-0.465-1.141c-0.007-0.426,0.162-0.837,0.467-1.134
	c0.299-0.305,0.71-0.474,1.137-0.466c0.428-0.008,0.839,0.163,1.137,0.47c0.306,0.3,0.476,0.712,0.468,1.141
	c0.008,0.428-0.162,0.84-0.47,1.138C15.698,18.586,15.286,18.753,14.858,18.744z M4.13,3.153l2.626,5.484h6.714
	c0.054,0.001,0.107-0.014,0.153-0.042c0.046-0.028,0.084-0.069,0.109-0.117l2.787-5.064c0.037-0.054,0.04-0.124,0.009-0.182
	c-0.034-0.054-0.095-0.085-0.159-0.079H4.13z M3.524,1.933h13.477c0.373-0.013,0.721,0.185,0.9,0.512
	c0.203,0.315,0.21,0.718,0.019,1.041l-3.028,5.485c-0.153,0.264-0.368,0.486-0.626,0.648c-0.249,0.158-0.539,0.241-0.834,0.24H6.283
	l-1.267,2.34c-0.045,0.075-0.045,0.168,0,0.243c0.036,0.082,0.118,0.134,0.207,0.131h11.246v1.22H5.328
	c-0.551,0.038-1.078-0.231-1.37-0.7c-0.288-0.454-0.291-1.033-0.007-1.49l1.5-2.728L1.824,1.226H0v-1.227h2.61l0.913,1.933
	L3.524,1.933z M6.757,8.633L6.757,8.633z"/>
</svg>
