<?xml version="1.0" encoding="UTF-8"?>
<svg id="_レイヤー_1" data-name="レイヤー_1" xmlns="http://www.w3.org/2000/svg" version="1.1" xmlns:xlink="http://www.w3.org/1999/xlink" viewBox="0 0 388.475 214.512">
  <!-- Generator: Adobe Illustrator 29.4.0, SVG Export Plug-In . SVG Version: 2.1.0 Build 152)  -->
  <defs>
    <path id="path" d="M79.983,44.28c16.26-5.34,50.34-13.64,122.93-13.7,72.59.06,91.85,10.73,108.12,16.07"/>
  </defs>
  <g>
    <path d="M66.7,37.781h-30.562s13.037,16.559,11.852,19.539-7.917,21.646-7.917,21.646h40.652l9.211-5.986-23.236-35.199Z" fill="#fff" stroke="#a88200" stroke-linecap="round" stroke-linejoin="round" stroke-width="2.835"/>
    <path d="M302.579,74.986l8.044,3.981h38.659s-5.589-16.517-5.886-19.962c-.296-3.445,12.444-21.223,12.444-21.223h-31.366l-21.896,37.204Z" fill="#fff" stroke="#a88200" stroke-linecap="round" stroke-linejoin="round" stroke-width="2.835"/>
    <polyline points="68.883 70.817 85.506 75.859 80.724 78.967 40.072 78.967 43.021 70.817 68.883 70.817" fill="#a88200"/>
    <line x1="61.544" y1="65.929" x2="68.482" y2="65.929" fill="none" stroke="#a88200" stroke-linecap="round" stroke-linejoin="round" stroke-width="2.835"/>
    <line x1="44.799" y1="65.929" x2="52.656" y2="65.929" fill="none" stroke="#a88200" stroke-linecap="round" stroke-linejoin="round" stroke-width="2.835"/>
    <line x1="61.544" y1="58.374" x2="67.992" y2="58.374" fill="none" stroke="#a88200" stroke-linecap="round" stroke-linejoin="round" stroke-width="2.835"/>
    <line x1="47.168" y1="59.004" x2="54.211" y2="59.004" fill="none" stroke="#a88200" stroke-linecap="round" stroke-linejoin="round" stroke-width="2.835"/>
    <polyline points="322.293 70.817 345.635 70.817 349.282 78.967 310.623 78.967 302.579 74.986 322.293 70.817" fill="#a88200"/>
    <line x1="338.878" y1="64.596" x2="344.73" y2="64.596" fill="none" stroke="#a88200" stroke-linecap="round" stroke-linejoin="round" stroke-width="2.835"/>
    <line x1="323.073" y1="64.596" x2="330.656" y2="64.596" fill="none" stroke="#a88200" stroke-linecap="round" stroke-linejoin="round" stroke-width="2.835"/>
    <line x1="338.878" y1="59.004" x2="343.396" y2="59.004" fill="none" stroke="#a88200" stroke-linecap="round" stroke-linejoin="round" stroke-width="2.835"/>
    <line x1="323.073" y1="59.004" x2="330.656" y2="59.004" fill="none" stroke="#a88200" stroke-linecap="round" stroke-linejoin="round" stroke-width="2.835"/>
    <line x1="338.878" y1="51.485" x2="346.779" y2="51.485" fill="none" stroke="#a88200" stroke-linecap="round" stroke-linejoin="round" stroke-width="2.835"/>
    <line x1="325.106" y1="51.485" x2="329.214" y2="51.485" fill="none" stroke="#a88200" stroke-linecap="round" stroke-linejoin="round" stroke-width="2.835"/>
    <line x1="341.989" y1="44.818" x2="349.282" y2="44.818" fill="none" stroke="#a88200" stroke-linecap="round" stroke-linejoin="round" stroke-width="2.835"/>
    <line x1="325.106" y1="44.818" x2="333.322" y2="44.818" fill="none" stroke="#a88200" stroke-linecap="round" stroke-linejoin="round" stroke-width="2.835"/>
    <path d="M324.993,29.927l-2.7,40.89-10.64-6.22c-13.99-8.19-45.927-16.59-108.74-16.59s-109.63,5.92-123.55,14.22c-7.24,4.3-6.69,4.246-10.55,7.52l-2.79-42.19s-2.31-7.11,13.96-12.44c16.26-5.34,50.34-13.64,122.93-13.7,72.59.06,91.85,10.73,108.12,16.07,16.27,5.33,13.96,12.44,13.96,12.44Z" fill="#fff" stroke="#a88200" stroke-linecap="round" stroke-linejoin="round" stroke-width="2.835"/>
    <line x1="308.053" y1="63.893" x2="323.293" y2="72.51" fill="none" stroke="#a88200" stroke-linecap="round" stroke-linejoin="round" stroke-width="1.417"/>
    <line x1="308.053" y1="59.129" x2="323.293" y2="67.745" fill="none" stroke="#a88200" stroke-linecap="round" stroke-linejoin="round" stroke-width="1.417"/>
    <line x1="307.053" y1="53.364" x2="322.293" y2="61.981" fill="none" stroke="#a88200" stroke-linecap="round" stroke-linejoin="round" stroke-width="1.417"/>
    <line x1="307.053" y1="48.6" x2="322.293" y2="57.217" fill="none" stroke="#a88200" stroke-linecap="round" stroke-linejoin="round" stroke-width="1.417"/>
    <line x1="307.053" y1="43.836" x2="322.293" y2="52.452" fill="none" stroke="#a88200" stroke-linecap="round" stroke-linejoin="round" stroke-width="1.417"/>
    <line x1="307.053" y1="39.072" x2="322.293" y2="47.688" fill="none" stroke="#a88200" stroke-linecap="round" stroke-linejoin="round" stroke-width="1.417"/>
    <line x1="307.053" y1="34.307" x2="322.293" y2="42.924" fill="none" stroke="#a88200" stroke-linecap="round" stroke-linejoin="round" stroke-width="1.417"/>
    <line x1="307.053" y1="29.543" x2="322.293" y2="38.159" fill="none" stroke="#a88200" stroke-linecap="round" stroke-linejoin="round" stroke-width="1.417"/>
    <line x1="308.053" y1="20.586" x2="323.293" y2="29.203" fill="none" stroke="#a88200" stroke-linecap="round" stroke-linejoin="round" stroke-width="1.417"/>
    <line x1="307.053" y1="24.779" x2="322.293" y2="33.395" fill="none" stroke="#a88200" stroke-linecap="round" stroke-linejoin="round" stroke-width="1.417"/>
    <line x1="306.215" y1="25.895" x2="316.673" y2="19.982" fill="none" stroke="#a88200" stroke-linecap="round" stroke-linejoin="round" stroke-width="1.417"/>
    <line x1="309.762" y1="27.851" x2="320.221" y2="21.938" fill="none" stroke="#a88200" stroke-linecap="round" stroke-linejoin="round" stroke-width="1.417"/>
    <line x1="308.053" y1="33.395" x2="323.293" y2="24.779" fill="none" stroke="#a88200" stroke-linecap="round" stroke-linejoin="round" stroke-width="1.417"/>
    <line x1="308.053" y1="38.159" x2="323.293" y2="29.543" fill="none" stroke="#a88200" stroke-linecap="round" stroke-linejoin="round" stroke-width="1.417"/>
    <line x1="307.053" y1="43.924" x2="322.293" y2="35.307" fill="none" stroke="#a88200" stroke-linecap="round" stroke-linejoin="round" stroke-width="1.417"/>
    <line x1="307.053" y1="48.688" x2="322.293" y2="40.072" fill="none" stroke="#a88200" stroke-linecap="round" stroke-linejoin="round" stroke-width="1.417"/>
    <line x1="307.053" y1="53.452" x2="322.293" y2="44.836" fill="none" stroke="#a88200" stroke-linecap="round" stroke-linejoin="round" stroke-width="1.417"/>
    <line x1="307.053" y1="58.217" x2="322.293" y2="49.6" fill="none" stroke="#a88200" stroke-linecap="round" stroke-linejoin="round" stroke-width="1.417"/>
    <line x1="307.053" y1="62.981" x2="322.293" y2="54.364" fill="none" stroke="#a88200" stroke-linecap="round" stroke-linejoin="round" stroke-width="1.417"/>
    <line x1="307.053" y1="67.745" x2="322.293" y2="59.129" fill="none" stroke="#a88200" stroke-linecap="round" stroke-linejoin="round" stroke-width="1.417"/>
    <line x1="307.053" y1="72.51" x2="322.293" y2="63.893" fill="none" stroke="#a88200" stroke-linecap="round" stroke-linejoin="round" stroke-width="1.417"/>
    <line x1="82.433" y1="61.995" x2="68.193" y2="70.611" fill="none" stroke="#a88200" stroke-linecap="round" stroke-linejoin="round" stroke-width="1.417"/>
    <line x1="82.433" y1="57.23" x2="67.193" y2="65.847" fill="none" stroke="#a88200" stroke-linecap="round" stroke-linejoin="round" stroke-width="1.417"/>
    <line x1="83.433" y1="51.466" x2="68.193" y2="60.082" fill="none" stroke="#a88200" stroke-linecap="round" stroke-linejoin="round" stroke-width="1.417"/>
    <line x1="83.433" y1="46.702" x2="68.193" y2="55.318" fill="none" stroke="#a88200" stroke-linecap="round" stroke-linejoin="round" stroke-width="1.417"/>
    <line x1="83.433" y1="41.937" x2="68.193" y2="50.554" fill="none" stroke="#a88200" stroke-linecap="round" stroke-linejoin="round" stroke-width="1.417"/>
    <line x1="83.433" y1="37.173" x2="68.193" y2="45.789" fill="none" stroke="#a88200" stroke-linecap="round" stroke-linejoin="round" stroke-width="1.417"/>
    <line x1="83.433" y1="32.409" x2="68.193" y2="41.025" fill="none" stroke="#a88200" stroke-linecap="round" stroke-linejoin="round" stroke-width="1.417"/>
    <line x1="83.433" y1="27.644" x2="68.193" y2="36.261" fill="none" stroke="#a88200" stroke-linecap="round" stroke-linejoin="round" stroke-width="1.417"/>
    <line x1="82.433" y1="18.688" x2="67.193" y2="27.304" fill="none" stroke="#a88200" stroke-linecap="round" stroke-linejoin="round" stroke-width="1.417"/>
    <line x1="83.433" y1="22.88" x2="68.193" y2="31.497" fill="none" stroke="#a88200" stroke-linecap="round" stroke-linejoin="round" stroke-width="1.417"/>
    <line x1="84.272" y1="23.996" x2="73.813" y2="18.083" fill="none" stroke="#a88200" stroke-linecap="round" stroke-linejoin="round" stroke-width="1.417"/>
    <line x1="80.724" y1="25.953" x2="70.266" y2="20.04" fill="none" stroke="#a88200" stroke-linecap="round" stroke-linejoin="round" stroke-width="1.417"/>
    <line x1="82.433" y1="31.497" x2="67.193" y2="22.88" fill="none" stroke="#a88200" stroke-linecap="round" stroke-linejoin="round" stroke-width="1.417"/>
    <line x1="82.433" y1="36.261" x2="67.193" y2="27.644" fill="none" stroke="#a88200" stroke-linecap="round" stroke-linejoin="round" stroke-width="1.417"/>
    <line x1="83.433" y1="42.025" x2="68.193" y2="33.409" fill="none" stroke="#a88200" stroke-linecap="round" stroke-linejoin="round" stroke-width="1.417"/>
    <line x1="83.433" y1="46.79" x2="68.193" y2="38.173" fill="none" stroke="#a88200" stroke-linecap="round" stroke-linejoin="round" stroke-width="1.417"/>
    <line x1="83.433" y1="51.554" x2="68.193" y2="42.937" fill="none" stroke="#a88200" stroke-linecap="round" stroke-linejoin="round" stroke-width="1.417"/>
    <line x1="83.433" y1="56.318" x2="68.193" y2="47.702" fill="none" stroke="#a88200" stroke-linecap="round" stroke-linejoin="round" stroke-width="1.417"/>
    <line x1="83.433" y1="61.082" x2="68.193" y2="52.466" fill="none" stroke="#a88200" stroke-linecap="round" stroke-linejoin="round" stroke-width="1.417"/>
    <line x1="83.433" y1="65.847" x2="68.193" y2="57.23" fill="none" stroke="#a88200" stroke-linecap="round" stroke-linejoin="round" stroke-width="1.417"/>
    <line x1="83.433" y1="70.611" x2="68.193" y2="61.995" fill="none" stroke="#a88200" stroke-linecap="round" stroke-linejoin="round" stroke-width="1.417"/>
    <text>
      <textPath startOffset="8.992%" xlink:href="#path"><tspan fill="#a88200" font-family="YuMincho-Demibold, &apos;Yu Mincho&apos;" font-size="32" font-weight="300"><tspan x="0" y="0">キャンペーン</tspan></tspan>
      </textPath></text>
    <path d="M68.883,70.817" fill="none" stroke="#000" stroke-linecap="round" stroke-linejoin="round" stroke-width="2.835"/>
    <path d="M68.883,70.817s23.254,10.223,23.55,1.927,0-15.424,0-15.424c0,0-22.804,4.163-23.55,13.497Z" fill="#a88200"/>
    <path d="M322.293,70.817s-23.341,9.038-23.341,3.705v-15.518s20.609.997,23.341,11.813Z" fill="#a88200"/>
    <line x1="60.211" y1="52.022" x2="67.641" y2="52.022" fill="none" stroke="#a88200" stroke-linecap="round" stroke-linejoin="round" stroke-width="2.835"/>
    <line x1="46.086" y1="52.022" x2="54.211" y2="52.022" fill="none" stroke="#a88200" stroke-linecap="round" stroke-linejoin="round" stroke-width="2.835"/>
    <line x1="60.211" y1="45.249" x2="67.193" y2="45.249" fill="none" stroke="#a88200" stroke-linecap="round" stroke-linejoin="round" stroke-width="2.835"/>
    <line x1="41.681" y1="45.249" x2="52.656" y2="45.249" fill="none" stroke="#a88200" stroke-linecap="round" stroke-linejoin="round" stroke-width="2.835"/>
  </g>
  <text transform="translate(324.293 186.374)" font-family="YuMincho-Demibold, &apos;Yu Mincho&apos;" font-size="22" font-weight="300"><tspan x="0" y="0" letter-spacing=".21em">(木</tspan><tspan x="39.737" y="0" letter-spacing="-.04em">)</tspan></text>
  <text transform="translate(130.156 118.93)" font-family="YuMincho-Demibold, &apos;Yu Mincho&apos;" font-size="48" font-weight="300" letter-spacing="-.12em"><tspan x="0" y="0">冬の陣</tspan></text>
  <text transform="translate(20.656 150.263)" font-family="YuMincho-Demibold, &apos;Yu Mincho&apos;" font-size="22" font-weight="300"><tspan x="0" y="0">2023</tspan></text>
  <text transform="translate(218.581 150.263)" font-family="YuMincho-Demibold, &apos;Yu Mincho&apos;" font-size="22" font-weight="300"><tspan x="0" y="0">2024</tspan></text>
  <text transform="translate(21.32 189.337)" font-family="YuMincho-Demibold, &apos;Yu Mincho&apos;" font-size="42" font-weight="300"><tspan x="0" y="0">12/1</tspan></text>
  <text transform="translate(121.285 186.374)" font-family="YuMincho-Demibold, &apos;Yu Mincho&apos;" font-size="22" font-weight="300"><tspan x="0" y="0" letter-spacing=".21em">(金</tspan><tspan x="39.737" y="0" letter-spacing="-.04em">)</tspan></text>
  <text transform="translate(188.359 188.337)" font-family="YuMincho-Demibold, &apos;Yu Mincho&apos;" font-size="38" font-weight="300"><tspan x="0" y="0">~</tspan></text>
  <text transform="translate(223.023 188.337)" font-family="YuMincho-Demibold, &apos;Yu Mincho&apos;" font-size="42" font-weight="300"><tspan x="0" y="0">2/29</tspan></text>
  <g>
    <path d="M.064,212.717c-.173.213.004.604.555.437l.296-.756-.851.319Z" fill="#b39220"/>
    <path d="M4.024,213.462c.61-.426,1.289-1.123.775-1.706-.561.758-.758.499-1.349,1.392-.548.162-1.008-.083-.951-.353-.172.207-.893-.028-1.13.453.808.436,1.729.318,2.631-.256.228.125.053.334.023.469Z" fill="#b39220"/>
    <path d="M58.953,209.004l-.36-.056c.1.039.223.055.36.056Z" fill="#b39220"/>
    <path d="M93.034,207.182c-.258.032-.363.107-.373.172.238-.06.434-.114.373-.172Z" fill="#b39220"/>
    <path d="M98.892,207.645c-.126-.012-.232-.021-.345-.032.134.059.267.088.345.032Z" fill="#b39220"/>
    <path d="M58.953,209.004l.926.151c.046-.234-.479-.134-.926-.151Z" fill="#b39220"/>
    <path d="M11.356,210.799c-.186.058-.336.143-.47.245.152-.049.3-.094.454-.132.004-.039.007-.072.016-.113Z" fill="#b39220"/>
    <path d="M44.008,210.798l-.276.025c-.074.087-.142.19-.204.305l.48-.33Z" fill="#b39220"/>
    <path d="M32.529,211.972c.262,0,.294-.602.368-.872-.123.259-.303.394-.527.462.007.114.054.246.158.41Z" fill="#b39220"/>
    <path d="M14.221,212.889l-.313.12c.081-.035.219-.075.313-.12Z" fill="#b39220"/>
    <path d="M52.248,210.219c.027.087.074.161.122.205-.006-.075-.053-.143-.122-.205Z" fill="#b39220"/>
    <path d="M375.224,207.282c-.013.042-.003.07-.009.106.073-.054.097-.094.009-.106Z" fill="#b39220"/>
    <path d="M388.267,211.601l-.188.01c-.033.11-.066.218-.079.328l.267-.338Z" fill="#b39220"/>
    <path d="M109.574,207.915c-.021-.004-.028-.005-.048-.009-.277.081-.119.062.048.009Z" fill="#b39220"/>
    <path d="M207.384,205.498c-1.108-.539,1.806-.678.138-1.278.155.234-1.519.925-.138,1.278Z" fill="#b39220"/>
    <path d="M11.664,210.84c.154-.026.312-.051.471-.065-.217.008-.361.029-.471.065Z" fill="#b39220"/>
    <path d="M207.521,204.22v-.005l-.172-.057c.071.026.111.04.172.062Z" fill="#b39220"/>
    <path d="M134.097,206.609c-.054-.103-.154-.18-.258-.252.01.061.069.134.258.252Z" fill="#b39220"/>
    <path d="M115.779,206.422l.456.063c-.182-.048-.328-.061-.456-.063Z" fill="#b39220"/>
    <path d="M143.57,205.512c.247.039.333.12.667.031-.032-.03-.063-.05-.104-.07-.119.085-.28.127-.563.039Z" fill="#b39220"/>
    <path d="M153.459,205.251c-.053-.044-.123-.077-.185-.116-.098.013-.212.027-.313.04l.498.075Z" fill="#b39220"/>
    <path d="M345.149,205.142c.205.183.327.377.419.568-.123-.435,1.341-.484-.419-.568Z" fill="#b39220"/>
    <path d="M11.403,211.132c.039-.157.114-.241.261-.292-.112.025-.219.049-.324.073-.018.092-.014.176.063.219Z" fill="#b39220"/>
    <path d="M143.846,200.789l1.577.047c-.442-.046-1.015-.062-1.577-.047Z" fill="#b39220"/>
    <path d="M274.117,201.698l.364-.061c-.139-.018-.268-.005-.364.061Z" fill="#b39220"/>
    <path d="M150.094,200.626c.286.203.587.318.896.39.064-.048.138-.089.179-.159l-1.076-.231Z" fill="#b39220"/>
    <path d="M345.571,205.716l-.003-.007.003.007Z" fill="#b39220"/>
    <path d="M356.027,205.063c-1.497-.132-.763.712-1.115,1.138-1.803.084-.783-.641-1.361-1.088-1.132.121-2.041.774-2.871.68-.053-.134-.211-.193-.009-.34-1.225.536-3.505-.215-4.935.471-.097-.076-.144-.146-.166-.207.195.408.201.809.135,1.09-.672-.033-1.279.408-1.496-.122.41.044.458-.16.662-.307l-.718.174c-.582-.78.977-.188,1.016-.733-1.388.144-3.027.642-4.063.361-.171-.736,2.473-.071,1.115-.81l1.607.389c-1.164-1.223.983.148-.075-1.147-2.127-.358-2.42.2-4.541-.159-.507.367.12.603-.388.971-3.081.531-2.272-1.96-4.566-1.14-.608.444-.889,1.342-2.447.761l.592-.781c-2.068-.209-1.255,1.098-3.392.415.405-.296,1.645-.169,1.338-.285-1.367-.731-1.023.4-2.103.333l-.181-.736c-2.214-.033-4.676.374-7.127.367.147-.207.579-.41.019-.662-3.103.196-6.577-.454-9.532-1.031l-1.168.57c-.264-.02-.477-.304-.184-.412-1.148-.291-.08.392-.649.611-.662.013-.854-.399-.427-.566-2.073.433-5.882.866-8.007.098l.429-.166c-1.668-.331-1.951,1.189-3.482.535l.303-.096c-3.632-.431-7.681-.001-10.425-1.055-.562.878-3.593-.54-3.873.704-2.058-.698-1.454-.909-4.371-1.425-.781-.081-1.194.747-2.166.848l-.002-.656-1.337.647-.674-.805-.913.14c.36.049.759.318.698.505-1.427.253-3.442-.562-3.467-.899l-3.372.452c.082-.261.647-.334,1.096-.489-1.811.614-.305-.7-1.965-.137.216.155-.13.387-.171.518-.807-.421-2.67-.481-4.052-.356l.277-.444c-2.487-.183-5.254.098-8.048.025.997.233.749,1.01-.072,1.067l-.312-.698c-.539.415.849.279-.248.779-1.041-.103-.684-.803-.079-1.015l-1.274.212c-.07-.209.23-.311.313-.573-.53.419-2.176-.743-2.943-.013l-.067-.208c-2.793-.067-4.065.143-6.341.128-.055.596-.943.444-1.629.921-1.668-.213-3.516-.707-5.532-.684-1.42.279-.421.501-1.062.847-.096-.545-2.109-.521-1.06-.898-2.419.056-3.09.067-6.153.468.329.228.701.33.506.513-.556.082-1.259-.245-1.177-.506l.147-.054c-3.438.756-7.908-1.671-10.651-.543l.154-.055-2.838.579c-1.303-.1.784-.406-.179-.747-3.062.895-4.831-.154-7.351.44-1.947-1.623-6.916.084-9.548-.912l.153.378c-.679.375-.823-.212-1.324-.296.072.293.739.336.317.544-5.758.486-11.891-.491-17.804-.802-2.162-.089-1.205,1.97-3.938,1.105l.765-.714c-4.349.911-8.915.11-13.171.891.252-.166.255-.377.672-.381-.91-.496-3.334.027-3.341.444-.665-.037-.161-.374-.574-.58-.91-.287-2.257.687-2.747.187-.083-.082.251-.17.415-.211-.584.252-2.747-.014-2.17.565-1.608-.239-3.057.342-4.342.026-.817.68-2.749-.246-2.99.692.091-.964-2.827-.703-3.827-.224.331-.299-.888-.278-.502-.691-1.155.043-2.209.249-1.994.738-2.162-1.095-4.251,1.037-5.493-.406-3.417.61-6.579,1.097-9.656,1.427.077-.963,3.407-.219,3.241-1.221-2.916.501-4.574,1.385-7.485,1.259-.757-.103.411-.431.659-.604-2.91.502-5.66.114-8.241.738.003-.089.28-.202.542-.284-.512.052-1.198-.085-1.122.345l.495-.141c.844.594-1.98,1.415-2.057,1.753.816-1.289-2.582-.195-1.269-1.836-.334.098-.748.324-.658.612-.504-.062-.671-.225-.178-.58-1.826.322-1.153.755-2.817.823-.004-.211.328-.308.489-.564-.824.45-1.651.901-3.065.788.079-.131-.092-.289.327-.305-2.412.176-4.062,1.286-6.729,1.011.735-.952-.916-.259-1.097-1.046l-1.412.31.591.352c-1.248.057-2.319.697-3.405.498l.909-.379-2.329.282,1.339.226c-1.239.48.189.995-1.481.868.333-.099-1.247.061-1.922-.37l.004-.002c-.603.287-1.222.589-2.154.444-.254-.24.142-.887-.023-1.047-.57.697-2.91.349-3.638,1.098.247-.18.236-.597.146-.677l-.479.567c-.588-.139-.677-.218-.603-.555-1.743,0,.612.974-1.475.657.159-.053.077-.128.409-.229-2.085-.118-3.977.597-5.896.453-.613-.76,1.649-.306.964-.935-2.735.327-5.616,1.334-8.281,1.322l.5.055c-.289,1.149-2.014-.424-3.319.196.322-.105.386-.653.307-.522-1.831-.062-3.695.555-6.419,1.115l.319-.315c-1.09-.176-2.83.067-3.996.024-.321.315-.985.318-.551.707-3.698-1.385-6.722,1.43-9.996.334.378-.036.879-.33.578-.304l-2.669.497c.256.471.379.266.978.598-.315.32-1.055.61-1.721.668,1.181-.429-.08-.785-.628-1.013.101.142-.063.323-.005.472-1.484-.749-.147,1.005-2.118.584l.078-.266c-.706.193-1.335.602-2.116.601-.374-.535.739-.338.745-.808-1.085.137-2.044,1.278-3.081.809.446-.202,1.11-.269,1.557-.47-1.134-.561-1.243-.38-2.049-.409l.08.007-1.871-.123.487.135c-1.217,1.606-2.745.536-4.48,1.678,1.688-1.085.241-.557.313-1.211-.486-.135-1.218-.256-1.034-.458-.813.609-1.489-.253-2.633.631-.076-.199-.929.078-.788-.46-1.11.282.304.331.237.599-1.658.895-4.174-.435-6.562.823-2.106.646-2.422,1.387-4.374,1.962-.712-.252.462-.814.462-.814-1.122-.177-1.933-.03-2.926.337.185-.205-.047-.331-.387-.522-.815.156-.456.818-1.576.65.157-.252.349-.649.717-.929-.945.311-1.852.814-2.829,1.125-.312-.325.534-.619.858-.897-1.106.296-2.876.702-3.147,1.317l.748.105c-.406.083-.276-.458.013-.603.906-.576,1.417.013,1.498.213l-.695.223c.888,1.11,2.836-.553,4.281-.664l-.489.953,1.381-.913c.341.189.614.653-.078.873,1.079.304.872-.426,1.813-.044.106.064.067.111-.019.156l.973-.378c-.175.207.24.601-.391.545,1.861.298,2.83-.995,3.585-.408l-.144.071c2.467-.586.168-.673,1.961-1.647l1.44,1.455.175-.672c.261-.004.777-.01.711.258.913-.544-.195-.263.318-.739,1.307.456,3.401-.639,3.789.361.395-.538-1.229-.253.063-.735.494,1.066,1.516-.352,2.704.035-.291.608-1.397.42-.209.809.587-1.039,2.234-.004,3.174-.282-.031-.773,2.053-.521,3.638-.932-.077.27,3.067.125,4.59.271l-.032.133c.219-.802,1.778-.789,2.889-1.048-.003.47-.189.671-.78.932l1.057-.095c.227-.271.546-.431,1.224-.579l-.215.604c1.404-.154,2.775-.93,4.619-.698.057-.551-1.569-1.386.318-1.914.096.287.208.783-.283.946.161-.052.565-.294.907-.198l-.724.56c.843.145.397-.45,1.061-.461.022.42.513.256.446.597-.165.055-.59-.123-.829.063.75.012,1.669.179,1.992.475-.084-.233-.046-.563.495-.659,1.407-.138.523.466,1.362.618.318-.316,1.24-.084,1.214-.711.413-.028.512.258.684.415.707-.332,3.399-.34,2.526-.943l-.19-.03c.034-.016.075-.019.117-.036h-.006s.006,0,.006,0c2.344-.804,4.993-.029,7.345-.471l.011.209c1.4-.334,3.143-.351,4.124-.869.419-.027,1.015.317.853.578,1.072-.229,1.178-.473,2.766-.232-1.065.438.397.299-1.098.342,1.419.087,1.759.401,3.233-.272-.479.571,1.103.605,1.761.401l-1.01-.319c.747-.128,1.407-.124,2.078-.123l-.317.73c2.929.656,5.104-1.773,7.383-.465.733-.537-1.585-.259-.938-.875,1.331.02,2.77.956,3.185.934,1.836.289,1.635-1.128,3.549-.968-.257-.238-.524-.897.884-1.215,1.333.018,1.688.965.861,1.214-.317.039-.475-.032-.466-.118-.424.116-.98.256-.44.499l.158-.262c.672.22,2.494.09,2.088.528.989-.297.406-.438-.343-.527,1.72.272,2.657-.149,4.421.021-.285-.126-.557-.41-.28-.42,2.585.193,1.107-.53,2.843-.722,1.008.338-.309.934,1.427.53,1.083.21.259.658-.156.883,1.573-.56,2.997.181,3.912.228l-.831.242c.497-.144.909-.16,1.328-.178l-.503-.482c.497.065.916.048.916.258.494-.354-.428-.82.561-1.319.67.226,1.993-.368,2.25.29-2.08-.131.258.661-1.488.851.334-.096.746-.111,1.245-.046.078.071-.064.142-.197.186,2.006.506.876-.799,2.93-.879-.244.389.506.693.838.597-.827.031-.423-.611.324-.935,1.329.233,1.421-.288,2.113-.277l-.793-.107c.251-.391.912-.362,1.826-.515.09.291-.826.232-.493.35.993-.7,2.331.603,3.735.105.668.232.091.706.676.858,1.574-.547,1.744.454,3.403-.011-.501-.489-.581-.362.58-.899l-2.739.456,1.739-.801c-.831.023-1.741.383-2.242.314.826-.444.745-.315.331-.721,1.166.719,2.238-.525,3.572-.059l.005,1.257c1.995.487,3.487-.772,6.063-.549l-.832-.189c.327-.511,1.582-.127,2.406-.359-.064.422.46.556.823.804-.053-.314,1.878-.036,2.086-.875l1.163.523c2.078.173,2.33-1.257,4.327-1.166-.587.472.326.745-.999,1.106.665-.013,1.265.048,1.268-.243.396.253,1.829-.613,2.451-.23.276-.192.356-.633,1.103-.618.084.083.003.208.003.208-.003-.208,1.162-.313.497-.76,2.082,1.256,5.727-.244,7.537.834,1.448-.181,3.195-.359,4.513-.404-.082.127,0,.209-.25.17,1.826.362,1.094-1.222,3.173-.819,1.07.662-1.092.384-.428.631.312,1.377,2.494-.227,3.901.557l-.336.087c1.072.453,2.588-.564,4.328-.492,0,0-.083.123-.007.209,1.178-.723,3.427-.991,5.098-1.213-.514.548-.756.298-.432.842.749-.09-.231-.878,1.264-1.055.491.288,1.574.53,1.724,1.114l-1.411.054c.732.747,1.827-.055,2.573.066l-.091.333c2.162-.145,2.184-.967,4.511-.923l-.243-.249c1.264-.834,1.07.459,2.333-.162l.391.837c.837-.207,2.932-.826,4.436-.992-.849.627-2.606.954-3.693,1.329.831.002,2.824-.076,3.255-.493-.335.083-.755.29-1.087.163,1.015-.665,2.356-.996,4.013-.991-.286,1.628,4.321.388,5.526,1.645,2.929-.612,5.812.209,9.225.141-1.209-1.271.997-.031.789-1.332.796-.079,1.099-.056,1.17.028l2.408.787c.57.381-.757.283-.685.575,1.74.107.729.554,1.879.905-.234-.466.608-.663,1.599-.481l-1.395-.606c2.436-.681,2.098,1.1,4.552.426l-.778.406c1.259-.236,4.64.029,5.881-1.01.221.151.513.508-.042.599,3.004.156,6.704-1.04,9.034-.372l-.232.315c.562-.084.984-.584,1.682-.255-.038.131-.23.314.03.336.298-.106,1.497-.537,2.238-.342l-.64.349c2.926.455,4.513-.811,6.977-.996-.021.936,2.281,1.27,3.43,1.437l-.042.132c3.411.186,5.813-.649,8.984-.948,1.94,1.059,6.639.572,9.779,1.21-.478-.179.098-.729.661-.807.735.213,2.064-.587,1.923.267l-.263-.024c.535.859,2.061.681,3.248.74l.228-1.116c3.057,1.727,8.159-.352,9.808,1.162.759-.258,1.687-.226,2.44-.484l-.061.6c2.071.231,3.104.349,5.675.304l-.539.41c1.445.096,1.893-1.664,3.23-1.647l.367.913c2.526.084,5.049.971,7.578.253-.047.13-.132.387-.542.407,1.188.065,4.568.818,4.192-.437-.006.804,2.601.2,3.981-.09l-.24.582c1.186-.702,1.233-.907,2.85-1.042.377.095.311.489-.188.314,1.254.369,1.016-.514,2.54-.127l-.592.351c1.304.107,1.21-.101,1.951-.508.833-.202,2.471.268,2.636.817.193-.317.93-.714,1.692-.517.093.208-.193.318-.337.371,2.161.522,3.283-.511,4.753.152.021.198.113.301.234.367-1.733-.109-3.128-.217-2.995-.253-.029.545,1.366.718.212,1.41,1.145-.35,3.116-1.138,4.467-.807.063.056.125.112.17.199l-.145.053c.312.072.597.036.868-.041.431.113.703.195,1.121.226.136.46,1.591.331,2.288.391-.023-.6.886-.454.058-.993.108.048-.136.064-.602.063-.106.012-.23.014-.301.046.015-.014.032-.032.051-.05-.459-.014-1.058-.033-1.738-.055.569-.273,1.16-.496,1.914-.123.381-.364.798-.737,1.031-.909.908.886,2.722,1.454,2.947,1.982,2.151-.202,5.032.092,6.444-.945.616-.106.677.365.891.555-.357.091-.772.048-.972.197,1.23-.211,3.597.109,3.938-.651,1.504.46-.906.661,1.2.679l-.299.22c4.037,1.542,6.85-1.538,11.31.403-.309-.123-.464-.181-.52-.317,5.158,1.104,10.8.16,15.846,1.728,1.441.35,1.643-.14,2.568-.436l.26.668,1.59-.599c2.212-.338,3.597,1.898,6.425,1.151l-.311-.465c.974.178,3.135.051,2.922.529.108-.069.367-.416.728-.154l-.004.337,2.468-.322c1.841.439-.429,1.291,2.28,1.649,1.025-.019,2.979-.649,2.628-.914-.403-.064-1.014-.328-1.008-.665l.946-.068c.284-.961,1.13-1.89-1.093-2.836l-1.662.425-.462-.531,1.346.116c-.713-.535-1.24-.188-1.808.029-.101-.267-.306-.468-.612-.596l-1.662.777c-.15-.406.781-.691-.248-1.014-.777.36.614.937-.627,1.098-.716-.523-.458-.865-1.39-.571-.1-.266.105-.409.471-.486-.827.226-2.12-.078-2.582.406-.741-.632-2.7-.118-2.534-1.04-.272.201-1.471.605-2.205.577,1.439-.995-2.731-.315-2.27-1.481-1.079.909-3.614.13-5.414.542.105-.071.311-.217.461-.153-.979-.166-1.24-.493-1.858-.737-.196.819-1.748.88-2.616,1.323-1.143-.903.813-.913.497-1.714.005.678-2.156.495-1.789,1.091-.885-.567-.777-.302-1.199-1.027-.245,1.026-.875.109-1.692.688-1.298-.615-.269-.999-1.763-.796-.675-.372.661-.64.661-.64ZM320.923,204.556c0-.006,0-.012,0-.012.302.002.56.004.724.006-.151.001-.36.003-.725.006ZM317.983,204.405c.357.043.802.071,1.274.093.092.212-.031.418-.326.391.168-.129-.518-.286-.948-.484ZM323.964,208.879c-.469.059-.618-.066-.675-.192.22.002.477-.005.816-.027.015-.022.044-.046.059-.07-.051.112-.108.216-.201.289Z" fill="#b39220"/>
    <path d="M324.844,208.142c.068-.009.106-.033.194-.033-.092-.057-.18-.108-.269-.149-.06.061-.121.123-.175.178.085.001.172.003.251.004Z" fill="#b39220"/>
    <path d="M58.529,208.939l.063.009c-.053-.02-.102-.04-.136-.075.044.026.045.044.073.066Z" fill="#b39220"/>
    <polygon points="277.406 201.504 277.405 201.654 277.666 201.53 277.406 201.504" fill="#b39220"/>
    <path d="M42.21,208.225c-.035-.05-.101-.099-.226-.134.013.038.109.085.226.134Z" fill="#b39220"/>
    <path d="M35.222,208.739l-1.007-.117c.439.079.755.107,1.007.117Z" fill="#b39220"/>
    <path d="M29.829,208.96c-.057.111-.069.191-.079.265l.011.004.068-.268Z" fill="#b39220"/>
    <path d="M115.243,202.44c.072-.006.143-.016.207-.034.483-.133.153-.076-.207.034Z" fill="#b39220"/>
    <path d="M89.858,205.087c.264-.124.524-.245.802-.328-.455-.02-.808-.012-.802.328Z" fill="#b39220"/>
    <path d="M143.673,200.783s0,.005-.003.01c.061-.002.115-.003.176-.005l-.173-.006Z" fill="#b39220"/>
    <path d="M91.843,204.703c-.459-.093-.837-.046-1.183.056.374.019.814.055,1.183-.056Z" fill="#b39220"/>
    <path d="M6.574,211.35l-.261.01c.009.039-.002.072-.018.099l.279-.109Z" fill="#b39220"/>
    <path d="M6.295,211.46l-.277.109c.132-.018.245-.038.277-.109Z" fill="#b39220"/>
    <path d="M5.435,211.798l.583-.23c-.209.027-.469.043-.583.23Z" fill="#b39220"/>
    <path d="M13.697,210.734l.055-.225c-.039.05-.059.122-.055.225Z" fill="#b39220"/>
    <path d="M15.845,210.423c-.519.01-1.344-.31-2.046-.092l-.046.179c.299-.359,1.647.333,2.092-.087Z" fill="#b39220"/>
    <path d="M25.126,212.089l-1.82.019c.34.196.787.461-.026.603,2.344.444-.524-.464,1.846-.622Z" fill="#b39220"/>
    <path d="M30.748,211.842c-.958.2.045.333.006.468.593-.269.737-.336-.006-.468Z" fill="#b39220"/>
    <path d="M71.212,208.503l-.061.549c.743-.128-.007-.211.061-.549Z" fill="#b39220"/>
    <polygon points="78.781 205.182 78.03 204.893 77.714 205.414 78.781 205.182" fill="#b39220"/>
    <polygon points="83.599 208.774 83.276 208.87 84.514 208.602 83.599 208.774" fill="#b39220"/>
    <path d="M151.712,205.825l-.242-.664c-.504.133-.593.889.242.664Z" fill="#b39220"/>
    <path d="M181.142,204.668c.324.333,1.154.544,1.662.212-.662-.043-1.325-.3-1.662-.212Z" fill="#b39220"/>
    <polygon points="269.425 206.634 268.826 206.84 269.947 206.687 269.425 206.634" fill="#b39220"/>
  </g>
  <g>
    <path d="M.064,213.718c-.173.213.004.604.555.437l.296-.756-.851.319Z" fill="#b39220"/>
    <path d="M4.024,214.462c.61-.426,1.289-1.123.775-1.706-.561.758-.758.499-1.349,1.392-.548.162-1.008-.083-.951-.353-.172.207-.893-.028-1.13.453.808.436,1.729.318,2.631-.256.228.125.053.334.023.469Z" fill="#b39220"/>
    <path d="M58.953,210.004l-.36-.056c.1.039.223.055.36.056Z" fill="#b39220"/>
    <path d="M93.034,208.182c-.258.032-.363.107-.373.172.238-.06.434-.114.373-.172Z" fill="#b39220"/>
    <path d="M98.892,208.645c-.126-.012-.232-.021-.345-.032.134.059.267.088.345.032Z" fill="#b39220"/>
    <path d="M58.953,210.004l.926.151c.046-.234-.479-.134-.926-.151Z" fill="#b39220"/>
    <path d="M11.356,211.799c-.186.058-.336.143-.47.245.152-.049.3-.094.454-.132.004-.039.007-.072.016-.113Z" fill="#b39220"/>
    <path d="M44.008,211.799l-.276.025c-.074.087-.142.19-.204.305l.48-.33Z" fill="#b39220"/>
    <path d="M32.529,212.973c.262,0,.294-.602.368-.872-.123.259-.303.394-.527.462.007.114.054.246.158.41Z" fill="#b39220"/>
    <path d="M14.221,213.889l-.313.12c.081-.035.219-.075.313-.12Z" fill="#b39220"/>
    <path d="M52.248,211.219c.027.087.074.161.122.205-.006-.075-.053-.143-.122-.205Z" fill="#b39220"/>
    <path d="M375.224,208.282c-.013.042-.003.07-.009.106.073-.054.097-.094.009-.106Z" fill="#b39220"/>
    <path d="M388.267,212.602l-.188.01c-.033.11-.066.218-.079.328l.267-.338Z" fill="#b39220"/>
    <path d="M109.574,208.915c-.021-.004-.028-.005-.048-.009-.277.081-.119.062.048.009Z" fill="#b39220"/>
    <path d="M207.384,206.498c-1.108-.539,1.806-.678.138-1.278.155.234-1.519.925-.138,1.278Z" fill="#b39220"/>
    <path d="M11.664,211.84c.154-.026.312-.051.471-.065-.217.008-.361.029-.471.065Z" fill="#b39220"/>
    <path d="M207.521,205.22v-.005l-.172-.057c.071.026.111.04.172.062Z" fill="#b39220"/>
    <path d="M134.097,207.609c-.054-.103-.154-.18-.258-.252.01.061.069.134.258.252Z" fill="#b39220"/>
    <path d="M115.779,207.422l.456.063c-.182-.048-.328-.061-.456-.063Z" fill="#b39220"/>
    <path d="M143.57,206.512c.247.039.333.12.667.031-.032-.03-.063-.05-.104-.07-.119.085-.28.127-.563.039Z" fill="#b39220"/>
    <path d="M153.459,206.251c-.053-.044-.123-.077-.185-.116-.098.013-.212.027-.313.04l.498.075Z" fill="#b39220"/>
    <path d="M345.149,206.142c.205.183.327.377.419.568-.123-.435,1.341-.484-.419-.568Z" fill="#b39220"/>
    <path d="M11.403,212.132c.039-.157.114-.241.261-.292-.112.025-.219.049-.324.073-.018.092-.014.176.063.219Z" fill="#b39220"/>
    <path d="M143.846,201.789l1.577.047c-.442-.046-1.015-.062-1.577-.047Z" fill="#b39220"/>
    <path d="M274.117,202.698l.364-.061c-.139-.018-.268-.005-.364.061Z" fill="#b39220"/>
    <path d="M150.094,201.626c.286.203.587.318.896.39.064-.048.138-.089.179-.159l-1.076-.231Z" fill="#b39220"/>
    <path d="M345.571,206.716l-.003-.007.003.007Z" fill="#b39220"/>
    <path d="M356.027,206.063c-1.497-.132-.763.712-1.115,1.138-1.803.084-.783-.641-1.361-1.088-1.132.121-2.041.774-2.871.68-.053-.134-.211-.193-.009-.34-1.225.536-3.505-.215-4.935.471-.097-.076-.144-.146-.166-.207.195.408.201.809.135,1.09-.672-.033-1.279.408-1.496-.122.41.044.458-.16.662-.307l-.718.174c-.582-.78.977-.188,1.016-.733-1.388.144-3.027.642-4.063.361-.171-.736,2.473-.071,1.115-.81l1.607.389c-1.164-1.223.983.148-.075-1.147-2.127-.358-2.42.2-4.541-.159-.507.367.12.603-.388.971-3.081.531-2.272-1.96-4.566-1.14-.608.444-.889,1.342-2.447.761l.592-.781c-2.068-.209-1.255,1.098-3.392.415.405-.296,1.645-.169,1.338-.285-1.367-.731-1.023.4-2.103.333l-.181-.736c-2.214-.033-4.676.374-7.127.367.147-.207.579-.41.019-.662-3.103.196-6.577-.454-9.532-1.031l-1.168.57c-.264-.02-.477-.304-.184-.412-1.148-.291-.08.392-.649.611-.662.013-.854-.399-.427-.566-2.073.433-5.882.866-8.007.098l.429-.166c-1.668-.331-1.951,1.189-3.482.535l.303-.096c-3.632-.431-7.681-.001-10.425-1.055-.562.878-3.593-.54-3.873.704-2.058-.698-1.454-.909-4.371-1.425-.781-.081-1.194.747-2.166.848l-.002-.656-1.337.647-.674-.805-.913.14c.36.049.759.318.698.505-1.427.253-3.442-.562-3.467-.899l-3.372.452c.082-.261.647-.334,1.096-.489-1.811.614-.305-.7-1.965-.137.216.155-.13.387-.171.518-.807-.421-2.67-.481-4.052-.356l.277-.444c-2.487-.183-5.254.098-8.048.025.997.233.749,1.01-.072,1.067l-.312-.698c-.539.415.849.279-.248.779-1.041-.103-.684-.803-.079-1.015l-1.274.212c-.07-.209.23-.311.313-.573-.53.419-2.176-.743-2.943-.013l-.067-.208c-2.793-.067-4.065.143-6.341.128-.055.596-.943.444-1.629.921-1.668-.213-3.516-.707-5.532-.684-1.42.279-.421.501-1.062.847-.096-.545-2.109-.521-1.06-.898-2.419.056-3.09.067-6.153.468.329.228.701.33.506.513-.556.082-1.259-.245-1.177-.506l.147-.054c-3.438.756-7.908-1.671-10.651-.543l.154-.055-2.838.579c-1.303-.1.784-.406-.179-.747-3.062.895-4.831-.154-7.351.44-1.947-1.623-6.916.084-9.548-.912l.153.378c-.679.375-.823-.212-1.324-.296.072.293.739.336.317.544-5.758.486-11.891-.491-17.804-.802-2.162-.089-1.205,1.97-3.938,1.105l.765-.714c-4.349.911-8.915.11-13.171.891.252-.166.255-.377.672-.381-.91-.496-3.334.027-3.341.444-.665-.037-.161-.374-.574-.58-.91-.287-2.257.687-2.747.187-.083-.082.251-.17.415-.211-.584.252-2.747-.014-2.17.565-1.608-.239-3.057.342-4.342.026-.817.68-2.749-.246-2.99.692.091-.964-2.827-.703-3.827-.224.331-.299-.888-.278-.502-.691-1.155.043-2.209.249-1.994.738-2.162-1.095-4.251,1.037-5.493-.406-3.417.61-6.579,1.097-9.656,1.427.077-.963,3.407-.219,3.241-1.221-2.916.501-4.574,1.385-7.485,1.259-.757-.103.411-.431.659-.604-2.91.502-5.66.114-8.241.738.003-.089.28-.202.542-.284-.512.052-1.198-.085-1.122.345l.495-.141c.844.594-1.98,1.415-2.057,1.753.816-1.289-2.582-.195-1.269-1.836-.334.098-.748.324-.658.612-.504-.062-.671-.225-.178-.58-1.826.322-1.153.755-2.817.823-.004-.211.328-.308.489-.564-.824.45-1.651.901-3.065.788.079-.131-.092-.289.327-.305-2.412.176-4.062,1.286-6.729,1.011.735-.952-.916-.259-1.097-1.046l-1.412.31.591.352c-1.248.057-2.319.697-3.405.498l.909-.379-2.329.282,1.339.226c-1.239.48.189.995-1.481.868.333-.099-1.247.061-1.922-.37l.004-.002c-.603.287-1.222.589-2.154.444-.254-.24.142-.887-.023-1.047-.57.697-2.91.349-3.638,1.098.247-.18.236-.597.146-.677l-.479.567c-.588-.139-.677-.218-.603-.555-1.743,0,.612.974-1.475.657.159-.053.077-.128.409-.229-2.085-.118-3.977.597-5.896.453-.613-.76,1.649-.306.964-.935-2.735.327-5.616,1.334-8.281,1.322l.5.055c-.289,1.149-2.014-.424-3.319.196.322-.105.386-.653.307-.522-1.831-.062-3.695.555-6.419,1.115l.319-.315c-1.09-.176-2.83.067-3.996.024-.321.315-.985.318-.551.707-3.698-1.385-6.722,1.43-9.996.334.378-.036.879-.33.578-.304l-2.669.497c.256.471.379.266.978.598-.315.32-1.055.61-1.721.668,1.181-.429-.08-.785-.628-1.013.101.142-.063.323-.005.472-1.484-.749-.147,1.005-2.118.584l.078-.266c-.706.193-1.335.602-2.116.601-.374-.535.739-.338.745-.808-1.085.137-2.044,1.278-3.081.809.446-.202,1.11-.269,1.557-.47-1.134-.561-1.243-.38-2.049-.409l.08.007-1.871-.123.487.135c-1.217,1.606-2.745.536-4.48,1.678,1.688-1.085.241-.557.313-1.211-.486-.135-1.218-.256-1.034-.458-.813.609-1.489-.253-2.633.631-.076-.199-.929.078-.788-.46-1.11.282.304.331.237.599-1.658.895-4.174-.435-6.562.823-2.106.646-2.422,1.387-4.374,1.962-.712-.252.462-.814.462-.814-1.122-.177-1.933-.03-2.926.337.185-.205-.047-.331-.387-.522-.815.156-.456.818-1.576.65.157-.252.349-.649.717-.929-.945.311-1.852.814-2.829,1.125-.312-.325.534-.619.858-.897-1.106.296-2.876.702-3.147,1.317l.748.105c-.406.083-.276-.458.013-.603.906-.576,1.417.013,1.498.213l-.695.223c.888,1.11,2.836-.553,4.281-.664l-.489.953,1.381-.913c.341.189.614.653-.078.873,1.079.304.872-.426,1.813-.044.106.064.067.111-.019.156l.973-.378c-.175.207.24.601-.391.545,1.861.298,2.83-.995,3.585-.408l-.144.071c2.467-.586.168-.673,1.961-1.647l1.44,1.455.175-.672c.261-.004.777-.01.711.258.913-.544-.195-.263.318-.739,1.307.456,3.401-.639,3.789.361.395-.538-1.229-.253.063-.735.494,1.066,1.516-.352,2.704.035-.291.608-1.397.42-.209.809.587-1.039,2.234-.004,3.174-.282-.031-.773,2.053-.521,3.638-.932-.077.27,3.067.125,4.59.271l-.032.133c.219-.802,1.778-.789,2.889-1.048-.003.47-.189.671-.78.932l1.057-.095c.227-.271.546-.431,1.224-.579l-.215.604c1.404-.154,2.775-.93,4.619-.698.057-.551-1.569-1.386.318-1.914.096.287.208.783-.283.946.161-.052.565-.294.907-.198l-.724.56c.843.145.397-.45,1.061-.461.022.42.513.256.446.597-.165.055-.59-.123-.829.063.75.012,1.669.179,1.992.475-.084-.233-.046-.563.495-.659,1.407-.138.523.466,1.362.618.318-.316,1.24-.084,1.214-.711.413-.028.512.258.684.415.707-.332,3.399-.34,2.526-.943l-.19-.03c.034-.016.075-.019.117-.036h-.006s.006,0,.006,0c2.344-.804,4.993-.029,7.345-.471l.011.209c1.4-.334,3.143-.351,4.124-.869.419-.027,1.015.317.853.578,1.072-.229,1.178-.473,2.766-.232-1.065.438.397.299-1.098.342,1.419.087,1.759.401,3.233-.272-.479.571,1.103.605,1.761.401l-1.01-.319c.747-.128,1.407-.124,2.078-.123l-.317.73c2.929.656,5.104-1.773,7.383-.465.733-.537-1.585-.259-.938-.875,1.331.02,2.77.956,3.185.934,1.836.289,1.635-1.128,3.549-.968-.257-.238-.524-.897.884-1.215,1.333.018,1.688.965.861,1.214-.317.039-.475-.032-.466-.118-.424.116-.98.256-.44.499l.158-.262c.672.22,2.494.09,2.088.528.989-.297.406-.438-.343-.527,1.72.272,2.657-.149,4.421.021-.285-.126-.557-.41-.28-.42,2.585.193,1.107-.53,2.843-.722,1.008.338-.309.934,1.427.53,1.083.21.259.658-.156.883,1.573-.56,2.997.181,3.912.228l-.831.242c.497-.144.909-.16,1.328-.178l-.503-.482c.497.065.916.048.916.258.494-.354-.428-.82.561-1.319.67.226,1.993-.368,2.25.29-2.08-.131.258.661-1.488.851.334-.096.746-.111,1.245-.046.078.071-.064.142-.197.186,2.006.506.876-.799,2.93-.879-.244.389.506.693.838.597-.827.031-.423-.611.324-.935,1.329.233,1.421-.288,2.113-.277l-.793-.107c.251-.391.912-.362,1.826-.515.09.291-.826.232-.493.35.993-.7,2.331.603,3.735.105.668.232.091.706.676.858,1.574-.547,1.744.454,3.403-.011-.501-.489-.581-.362.58-.899l-2.739.456,1.739-.801c-.831.023-1.741.383-2.242.314.826-.444.745-.315.331-.721,1.166.719,2.238-.525,3.572-.059l.005,1.257c1.995.487,3.487-.772,6.063-.549l-.832-.189c.327-.511,1.582-.127,2.406-.359-.064.422.46.556.823.804-.053-.314,1.878-.036,2.086-.875l1.163.523c2.078.173,2.33-1.257,4.327-1.166-.587.472.326.745-.999,1.106.665-.013,1.265.048,1.268-.243.396.253,1.829-.613,2.451-.23.276-.192.356-.633,1.103-.618.084.083.003.208.003.208-.003-.208,1.162-.313.497-.76,2.082,1.256,5.727-.244,7.537.834,1.448-.181,3.195-.359,4.513-.404-.082.127,0,.209-.25.17,1.826.362,1.094-1.222,3.173-.819,1.07.662-1.092.384-.428.631.312,1.377,2.494-.227,3.901.557l-.336.087c1.072.453,2.588-.564,4.328-.492,0,0-.083.123-.007.209,1.178-.723,3.427-.991,5.098-1.213-.514.548-.756.298-.432.842.749-.09-.231-.878,1.264-1.055.491.288,1.574.53,1.724,1.114l-1.411.054c.732.747,1.827-.055,2.573.066l-.091.333c2.162-.145,2.184-.967,4.511-.923l-.243-.249c1.264-.834,1.07.459,2.333-.162l.391.837c.837-.207,2.932-.826,4.436-.992-.849.627-2.606.954-3.693,1.329.831.002,2.824-.076,3.255-.493-.335.083-.755.29-1.087.163,1.015-.665,2.356-.996,4.013-.991-.286,1.628,4.321.388,5.526,1.645,2.929-.612,5.812.209,9.225.141-1.209-1.271.997-.031.789-1.332.796-.079,1.099-.056,1.17.028l2.408.787c.57.381-.757.283-.685.575,1.74.107.729.554,1.879.905-.234-.466.608-.663,1.599-.481l-1.395-.606c2.436-.681,2.098,1.1,4.552.426l-.778.406c1.259-.236,4.64.029,5.881-1.01.221.151.513.508-.042.599,3.004.156,6.704-1.04,9.034-.372l-.232.315c.562-.084.984-.584,1.682-.255-.038.131-.23.314.03.336.298-.106,1.497-.537,2.238-.342l-.64.349c2.926.455,4.513-.811,6.977-.996-.021.936,2.281,1.27,3.43,1.437l-.042.132c3.411.186,5.813-.649,8.984-.948,1.94,1.059,6.639.572,9.779,1.21-.478-.179.098-.729.661-.807.735.213,2.064-.587,1.923.267l-.263-.024c.535.859,2.061.681,3.248.74l.228-1.116c3.057,1.727,8.159-.352,9.808,1.162.759-.258,1.687-.226,2.44-.484l-.061.6c2.071.231,3.104.349,5.675.304l-.539.41c1.445.096,1.893-1.664,3.23-1.647l.367.913c2.526.084,5.049.971,7.578.253-.047.13-.132.387-.542.407,1.188.065,4.568.818,4.192-.437-.006.804,2.601.2,3.981-.09l-.24.582c1.186-.702,1.233-.907,2.85-1.042.377.095.311.489-.188.314,1.254.369,1.016-.514,2.54-.127l-.592.351c1.304.107,1.21-.101,1.951-.508.833-.202,2.471.268,2.636.817.193-.317.93-.714,1.692-.517.093.208-.193.318-.337.371,2.161.522,3.283-.511,4.753.152.021.198.113.301.234.367-1.733-.109-3.128-.217-2.995-.253-.029.545,1.366.718.212,1.41,1.145-.35,3.116-1.138,4.467-.807.063.056.125.112.17.199l-.145.053c.312.072.597.036.868-.041.431.113.703.195,1.121.226.136.46,1.591.331,2.288.391-.023-.6.886-.454.058-.993.108.048-.136.064-.602.063-.106.012-.23.014-.301.046.015-.014.032-.032.051-.05-.459-.014-1.058-.033-1.738-.055.569-.273,1.16-.496,1.914-.123.381-.364.798-.737,1.031-.909.908.886,2.722,1.454,2.947,1.982,2.151-.202,5.032.092,6.444-.945.616-.106.677.365.891.555-.357.091-.772.048-.972.197,1.23-.211,3.597.109,3.938-.651,1.504.46-.906.661,1.2.679l-.299.22c4.037,1.542,6.85-1.538,11.31.403-.309-.123-.464-.181-.52-.317,5.158,1.104,10.8.16,15.846,1.728,1.441.35,1.643-.14,2.568-.436l.26.668,1.59-.599c2.212-.338,3.597,1.898,6.425,1.151l-.311-.465c.974.178,3.135.051,2.922.529.108-.069.367-.416.728-.154l-.004.337,2.468-.322c1.841.439-.429,1.291,2.28,1.649,1.025-.019,2.979-.649,2.628-.914-.403-.064-1.014-.328-1.008-.665l.946-.068c.284-.961,1.13-1.89-1.093-2.836l-1.662.425-.462-.531,1.346.116c-.713-.535-1.24-.188-1.808.029-.101-.267-.306-.468-.612-.596l-1.662.777c-.15-.406.781-.691-.248-1.014-.777.36.614.937-.627,1.098-.716-.523-.458-.865-1.39-.571-.1-.266.105-.409.471-.486-.827.226-2.12-.078-2.582.406-.741-.632-2.7-.118-2.534-1.04-.272.201-1.471.605-2.205.577,1.439-.995-2.731-.315-2.27-1.481-1.079.909-3.614.13-5.414.542.105-.071.311-.217.461-.153-.979-.166-1.24-.493-1.858-.737-.196.819-1.748.88-2.616,1.323-1.143-.903.813-.913.497-1.714.005.678-2.156.495-1.789,1.091-.885-.567-.777-.302-1.199-1.027-.245,1.026-.875.109-1.692.688-1.298-.615-.269-.999-1.763-.796-.675-.372.661-.64.661-.64ZM320.923,205.556c0-.006,0-.012,0-.012.302.002.56.004.724.006-.151.001-.36.003-.725.006ZM317.983,205.405c.357.043.802.071,1.274.093.092.212-.031.418-.326.391.168-.129-.518-.286-.948-.484ZM323.964,209.879c-.469.059-.618-.066-.675-.192.22.002.477-.005.816-.027.015-.022.044-.046.059-.07-.051.112-.108.216-.201.289Z" fill="#b39220"/>
    <path d="M324.844,209.142c.068-.009.106-.033.194-.033-.092-.057-.18-.108-.269-.149-.06.061-.121.123-.175.178.085.001.172.003.251.004Z" fill="#b39220"/>
    <path d="M58.529,209.939l.063.009c-.053-.02-.102-.04-.136-.075.044.026.045.044.073.066Z" fill="#b39220"/>
    <polygon points="277.406 202.504 277.405 202.654 277.666 202.53 277.406 202.504" fill="#b39220"/>
    <path d="M42.21,209.225c-.035-.05-.101-.099-.226-.134.013.038.109.085.226.134Z" fill="#b39220"/>
    <path d="M35.222,209.739l-1.007-.117c.439.079.755.107,1.007.117Z" fill="#b39220"/>
    <path d="M29.829,209.96c-.057.111-.069.191-.079.265l.011.004.068-.268Z" fill="#b39220"/>
    <path d="M115.243,203.44c.072-.006.143-.016.207-.034.483-.133.153-.076-.207.034Z" fill="#b39220"/>
    <path d="M89.858,206.087c.264-.124.524-.245.802-.328-.455-.02-.808-.012-.802.328Z" fill="#b39220"/>
    <path d="M143.673,201.783s0,.005-.003.01c.061-.002.115-.003.176-.005l-.173-.006Z" fill="#b39220"/>
    <path d="M91.843,205.703c-.459-.093-.837-.046-1.183.056.374.019.814.055,1.183-.056Z" fill="#b39220"/>
    <path d="M6.574,212.35l-.261.01c.009.039-.002.072-.018.099l.279-.109Z" fill="#b39220"/>
    <path d="M6.295,212.46l-.277.109c.132-.018.245-.038.277-.109Z" fill="#b39220"/>
    <path d="M5.435,212.799l.583-.23c-.209.027-.469.043-.583.23Z" fill="#b39220"/>
    <path d="M13.697,211.735l.055-.225c-.039.05-.059.122-.055.225Z" fill="#b39220"/>
    <path d="M15.845,211.423c-.519.01-1.344-.31-2.046-.092l-.046.179c.299-.359,1.647.333,2.092-.087Z" fill="#b39220"/>
    <path d="M25.126,213.089l-1.82.019c.34.196.787.461-.026.603,2.344.444-.524-.464,1.846-.622Z" fill="#b39220"/>
    <path d="M30.748,212.842c-.958.2.045.333.006.468.593-.269.737-.336-.006-.468Z" fill="#b39220"/>
    <path d="M71.212,209.503l-.061.549c.743-.128-.007-.211.061-.549Z" fill="#b39220"/>
    <polygon points="78.781 206.182 78.03 205.893 77.714 206.414 78.781 206.182" fill="#b39220"/>
    <polygon points="83.599 209.774 83.276 209.87 84.514 209.602 83.599 209.774" fill="#b39220"/>
    <path d="M151.712,206.825l-.242-.664c-.504.133-.593.889.242.664Z" fill="#b39220"/>
    <path d="M181.142,205.668c.324.333,1.154.544,1.662.212-.662-.043-1.325-.3-1.662-.212Z" fill="#b39220"/>
    <polygon points="269.425 207.634 268.826 207.84 269.947 207.687 269.425 207.634" fill="#b39220"/>
  </g>
</svg>