<?xml version="1.0" encoding="UTF-8"?>
<svg id="_レイヤー_1" data-name="レイヤー_1" xmlns="http://www.w3.org/2000/svg" version="1.1" viewBox="0 0 611.785 202.929">
  <!-- Generator: Adobe Illustrator 29.4.0, SVG Export Plug-In . SVG Version: 2.1.0 Build 152)  -->
  <path d="M24.352,73.066v.574c0,2.425-1.755,3.637-5.264,3.637-2.553,0-2.508-1.005-2.508-3.015l.383-26.845c0-3.158,1.636-7.78,1.222-9.981,3.828,1.436,4.109,2.447,7.171,4.074h16.461v-6.773H11.527c-1.851,0-6.858.316-9.601.699l-1.926-6.963c2.68.511,8.635,1.63,10.996,1.63h18.04l.148-10.248h-11.963c-1.883,0-4.243.191-7.082.574l-1.053-3.589c2.775.511,5.375.766,7.8.766h12.298v-4.402c0-3.062-.191-6.269-.574-9.618,8.422.734,12.633,1.723,12.633,2.967,0,.734-1.053,1.579-3.158,2.536v8.518h16.748v-4.402c0-3.062-.191-6.269-.574-9.618,8.422.734,12.633,1.723,12.633,2.967,0,.702-1.053,1.548-3.158,2.536v8.518h8.039c3.317-3.859,5.375-5.79,6.173-5.79.638,0,2.663,1.34,6.077,4.02,1.69,1.34,2.536,2.361,2.536,3.062,0,.639-.415.957-1.244.957h-21.581l-.148,10.248h15.378c3.924-4.434,5.457-5.037,6.222-5.037.701,0,1.336,1.382,5.037,4.444,1.882,1.627.862,4.156,1.457,4.27.914.175-.431.957-1.292.957h-39.86v6.773h15.992c2.615-2.935.631-3.111,1.333-3.111.67,0,4.789,2.677,7.852,5.037,1.499,1.244.593,2.147.593,2.785,0,.989-.097.046-2.074,1.067v5.417l.431,20.002c0,2.425-.249,3.804-4.045,3.804-2.553,0-1.275-1.084-1.275-3.254v-.191H24.352ZM40.717,82.78c0,1.117-1.436,1.675-4.307,1.675h-.957c-5.104,2.711-10.033,4.753-14.786,6.125-4.307,1.212-9.57,2.201-15.791,2.967-.415.096-.622-.191-.622-.861,0-.224.079-.367.239-.431,7.879-3.158,14.275-6.747,19.188-10.767,2.36-1.85,4.194-3.668,5.503-5.455,5.008,2.266,8.262,3.876,9.762,4.833,1.18.734,1.771,1.372,1.771,1.914ZM24.352,56.988h17.466v-10.767h-17.466v10.767ZM24.352,59.237v11.58h17.466v-11.58h-17.466ZM38.085,29.955h16.748v-10.1h-16.748v10.1ZM69.332,56.988v-10.767h-18.806v10.767h18.806ZM69.332,70.817v-11.58h-18.806v11.58h18.806ZM81.741,89.737c0,1.627-.463,2.902-1.388,3.828-.83.861-.739,1.057-1.983,1.057-1.181,0-1.234-.611-2-1.057-.734-.415-1.089-2.028-2.205-3.272-5.072-5.359-11.788-9.362-20.146-12.011-.16-.096-.239-.239-.239-.431,0-.446.175-.67.526-.67,11.197.734,17.448,3.537,22.138,5.514,4.146,1.723,5.296,4.042,5.296,7.041Z"/>
  <path d="M124.983,36.125c2.265.383,4.194.574,5.79.574h20.815c2.584-3.668,4.307-5.503,5.168-5.503.701,0,2.6,1.309,5.694,3.924,1.562,1.276,2.345,4.611,2.345,5.248s-.431.957-1.292.957h-15.265v13.892h18.614c3.189-3.859,5.184-5.79,5.981-5.79.67,0,2.663,1.34,5.981,4.02,1.69,1.404,2.536,2.409,2.536,3.015,0,.67-.415,1.005-1.244,1.005h-31.869v28.854h26.613c3.987-4.529,6.364-6.795,7.13-6.795.701,0,.772,1.641,4.537,4.799,1.945,1.595,1.007,2.649,1.007,3.288s-.415.957-1.244.957h-75.701c-1.627,0-3.621.191-5.981.574l-1.053-3.589c2.424.51,4.737.766,6.938.766h32.479v-28.854h-27.263c-1.659,0-3.653.191-5.981.574l-1.101-3.589c2.456.511,4.785.766,6.986.766h27.358v-13.892h-11.902c-1.627,0-2.182,1.284-4.542,1.667l-2.301-6.293c-6.636,4.817-14.69,9.013-24.165,12.585-.032.032-.08.048-.144.048-.447,0-.67-.271-.67-.813,0-.127.048-.223.144-.287,14.482-8.772,28.16-19.811,35.848-33.113,2.201-3.859,5.836-11.098,7.176-15.118,7.273,1.946,8.845,3.11,9.898,3.493.957.383,1.436.846,1.436,1.388,0,.861-.621,4.272-3.109,4.91,5.614,6.795,9.379,12.856,16.27,16.907,7.018,4.115,19.3,12.016,29.062,13.738.255.032.111,2.284.111,2.667s-.745,2.513-1,2.544c-1.946.415-6.058-2.415-7.111-1.075-.861,1.148-.41,1.408-1.111,3.864-.352,1.309-2.012,1.111-2.778,1.111-.606,0-3.484-2.974-5.111-3.9-5.009-2.68-8.473-6.236-12.875-10.001-7.721-6.699-14.196-14.674-19.428-23.926-6.029,10.081-13.255,18.216-21.677,24.404Z"/>
  <path d="M223.963,45.214c-.176,1.113.016,2.164-.043,3.531-.078,2.52-.117,4.248-.117,5.186,0,1.016.039,1.827.117,2.432.098.957,4.305,3.932,5.32,3.932.195,0,1.943-.703,5.244-2.109,1.328-.566,2.093-1.761,3.284-2.425.352-.215.527-.508.527-.879,0-.234-.078-.469-.234-.703-.254-.449-.655-.947-1.201-1.494-.371-.352-.557-.586-.557-.703,0-.449.458-.674,1.377-.674.527,0,1.211.225,2.051.674,1.445.762,2.705,1.758,3.779,2.988.918,1.153,1.377,2.149,1.377,2.988,0,1.036-.557,1.641-1.67,1.816-.41.04-1.67.293-3.779.762-4.824,1.172-6.911,2.346-9.411,3.342-4.824,1.934-8.184,4.799-10.078,6.596-1.758,1.66-2.637,3.594-2.637,5.801,0,4.004,3.838,6.006,11.514,6.006,5.195,0,7.672-.361,9.43-1.084,1.172-.469,2.119-.703,2.842-.703.938,0,1.953.176,3.047.527,1.718.567,2.578,1.446,2.578,2.637,0,.82-.195,1.426-.586,1.816-.41.43-1.133.762-2.168.996-2.676.645-5.719.967-11.129.967-4.668,0-8.408-.439-11.221-1.318-2.227-.684-4.024-1.806-5.391-3.369-1.406-1.582-2.109-3.438-2.109-5.566,0-3.203.22-6.006,2.662-8.408,1.777-1.777,2.869-3.77,6.736-5.782-1.25-1.015-4.21-3.395-4.444-5.095-.195-1.504-.293-5.332-.293-11.484,0-1.68-1.194-10.116-1.35-10.507-.157-.625-.743-1.182-1.758-1.67-.801-.41-1.396-.693-1.787-.85-.371-.117-.557-.253-.557-.41,0-.352.264-.674.791-.967,1.074-.645,2.148-.967,3.223-.967,1.504,0,2.961,1.586,4.954,3.227,1.035.84,1.534,1.142,1.534,2.06l.132,8.884Z"/>
  <path d="M321.361,43.494c2.68-2.297,5.023-4.562,7.033-6.795,1.596-1.754,2.936-3.685,4.02-5.79,5.773,3.605,8.662,5.886,8.662,6.843,0,.798-.879,1.196-2.633,1.196h-1.244c-3.158,2.105-7.721,3.94-13.686,5.503,7.752,3.318,16.557,5.12,26.414,5.407.223,0,.336.112.336.335,0,.319-.145.526-.432.622-1.436.67-2.473,1.579-3.109,2.728-.543,1.021-.975,2.568-1.293,4.642-.191,1.309-.605,1.962-1.244,1.962-1.467,0-3.27-.366-5.406-1.101-7.881-2.615-14.707-6.108-20.48-10.479-5.01-3.732-9.715-8.725-14.117-14.978-10.209,12.856-25.234,21.581-45.076,26.175-.511.096-.766-.159-.766-.766,0-.159.063-.271.191-.335,16.365-6.954,28.646-16.492,36.845-28.615h-15.599c-1.404,0-2.936.256-4.594.766l-1.101-3.78c1.945.511,3.748.766,5.407.766h16.556c2.488-2.552,4.068-3.828,4.738-3.828.732,0,2.6,1.148,5.598,3.445,1.562,1.213,2.346,2.153,2.346,2.823,0,.702-1.086,1.452-3.254,2.249,2.488,2.233,4.385,3.828,5.693,4.785,2.266-2.137,4.291-4.546,6.078-7.226,1.85-2.68,3.045-4.769,3.588-6.269,6.156,3.51,9.236,5.727,9.236,6.651,0,.798-.766,1.196-2.297,1.196-.512,0-1.053-.031-1.627-.096-2.775,2.266-7.195,4.61-13.256,7.034,2.744,1.914,5.566,3.558,8.471,4.929ZM318.777,15.931l.143,5.168c0,2.233-1.738,3.35-5.215,3.35-2.553,0-3.828-.909-3.828-2.728l.096-5.79h-16.557v5.312c0,2.138-1.627,3.206-4.881,3.206-2.68,0-4.02-.94-4.02-2.823l.096-5.694h-13.04c-1.627,0-3.717.191-6.269.574l-1.101-3.589c2.615.511,5.072.766,7.369.766h13.135v-4.211c0-2.52-.176-4.801-.526-6.843,6.316.639,10.017,1.101,11.101,1.388.926.256,1.389.734,1.389,1.436,0,.766-1.086,1.611-3.254,2.536v5.694h16.557c0-4.529-.16-8.214-.479-11.054,5.135.415,8.518.83,10.145,1.244,1.531.383,2.297.941,2.297,1.675,0,.766-1.086,1.611-3.254,2.536v5.599h9.775c3.477-3.924,5.6-5.886,6.365-5.886.67,0,2.871,1.372,6.604,4.115,1.881,1.436,2.822,2.457,2.822,3.062,0,.639-.43.957-1.291.957h-24.179ZM303.512,67.994c-1.563,4.243-3.588,7.8-6.077,10.671-6.986,8.23-19.062,13.127-36.224,14.69-.415,0-.622-.287-.622-.861,0-.191.079-.304.239-.335,14.036-3.797,23.926-10.032,29.667-18.71,1.404-2.105,2.537-4.322,3.398-6.651h-24.5c-1.659,0-3.717.191-6.173.574l-1.053-3.589c2.615.511,5.024.766,7.226.766h25.313c.988-3.541,1.531-7.065,1.627-10.575h-5.885c-1.596,0-3.621.191-6.078.574l-1.053-3.589c2.519.511,4.896.766,7.13.766h15.696c2.934-3.541,4.801-5.312,5.598-5.312.605,0,2.537,1.244,5.791,3.732,1.627,1.34,2.439,2.297,2.439,2.871,0,.639-.43.957-1.291.957h-12.729c-.225,4.147-.719,7.673-1.484,10.575h23.256c3.254-3.668,5.279-5.503,6.078-5.503.67,0,2.758,1.309,6.268,3.924,1.754,1.309,2.633,2.249,2.633,2.823,0,.67-.432,1.005-1.293,1.005h-36.127c3.891,4.85,9.188,8.534,15.887,11.054,6.857,2.616,15.582,4.132,26.174,4.546.256,0,.383.16.383.479,0,.352-.127.574-.383.67-2.775.894-4.498,3.35-5.168,7.369-.256,1.499-.781,2.249-1.578,2.249-1.373,0-3.047-.287-5.025-.861-5.52-1.5-10.479-3.605-14.881-6.316-7.816-4.785-13.543-10.782-17.18-17.992ZM282.916,40.492c0,1.288-.384,2.342-1.15,3.164-.657.685-1.452,1.027-2.383,1.027-.986,0-1.74-.247-2.26-.74-.493-.493-1.014-1.397-1.561-2.712-1.534-3.506-3.109-6.025-4.725-7.56-.082-.082-.123-.178-.123-.288,0-.273.15-.411.452-.411h.123c7.751,1.26,11.627,3.766,11.627,7.519Z"/>
  <path d="M352.035,152.741c1.709,1.838,2.564,3.675,2.564,5.513,0,1.706-.506,4.081-1.518,7.121-1.08,3.392-2.53,6.618-4.352,9.681-2.834,5.141-5.398,8.882-7.692,11.223-1.732,1.838-3.643,2.757-5.735,2.757-1.957,0-3.7-.875-5.229-2.625-2.541-2.735-3.812-6.814-3.812-12.241,0-3.588.99-6.99,2.969-10.206,2.204-3.785,4.807-7.641,8.832-10.135,4.835-2.909,11.036-4.973,17.333-4.973,6.859,0,12.449,3.076,17.015,6.576,5.398,4.222,8.096,9.911,8.096,17.065,0,5.557-2.114,10.173-6.342,13.849-3.081,2.647-6.5,4.639-10.255,5.973-4.43,1.554-9.153,2.407-14.169,2.56-1.012,0-1.518-.23-1.518-.689,0-.372.439-.656,1.316-.853,7.444-1.597,13.37-4.529,17.778-8.795,2.339-2.363,3.969-4.791,4.892-7.285.877-2.318,1.316-5.098,1.316-8.335,0-5.688-2.024-9.899-6.072-12.634-3.059-2.1-6.747-3.314-11.065-3.643-.472-.021-1.035-.033-1.687-.033-1.08,0-1.968.044-2.665.131ZM349.741,153.135c-4.678.656-8.659,2.45-11.942,5.382-2.586,2.232-4.543,4.988-5.87,8.27-.787,1.903-1.181,4.025-1.181,6.366,0,3.019.573,5.437,1.72,7.252.99,1.488,2.013,2.232,3.07,2.232,1.102,0,2.688-1.432,4.757-4.299,4.071-5.513,7.163-11.004,9.277-16.474.967-2.341,1.451-4.244,1.451-5.71,0-1.422-.427-2.428-1.282-3.019Z"/>
  <path d="M381.28,45.901c1.709,1.838,2.564,3.675,2.564,5.513,0,1.706-.506,4.081-1.518,7.121-1.08,3.392-2.53,6.618-4.352,9.681-2.834,5.141-5.398,8.882-7.692,11.223-1.732,1.838-3.643,2.757-5.735,2.757-1.957,0-3.7-.875-5.229-2.625-2.541-2.735-3.812-6.814-3.812-12.241,0-3.588.99-6.99,2.969-10.206,2.204-3.785,4.807-7.641,8.832-10.135,4.835-2.909,11.036-4.973,17.333-4.973,6.859,0,12.449,3.076,17.015,6.576,5.398,4.222,8.096,9.911,8.096,17.065,0,5.557-2.114,10.173-6.342,13.849-3.081,2.647-6.5,4.639-10.255,5.973-4.43,1.554-9.153,2.407-14.169,2.56-1.012,0-1.518-.23-1.518-.689,0-.372.439-.656,1.316-.853,7.444-1.597,13.37-4.529,17.778-8.795,2.339-2.363,3.969-4.791,4.892-7.285.877-2.318,1.316-5.098,1.316-8.335,0-5.688-2.024-9.899-6.072-12.634-3.059-2.1-6.747-3.314-11.065-3.643-.472-.021-1.035-.033-1.687-.033-1.08,0-1.968.044-2.665.131ZM378.986,46.295c-4.678.656-8.659,2.45-11.942,5.382-2.586,2.232-4.543,4.988-5.87,8.27-.787,1.903-1.181,4.025-1.181,6.366,0,3.019.573,5.437,1.72,7.252.99,1.488,2.013,2.232,3.07,2.232,1.102,0,2.688-1.432,4.757-4.299,4.071-5.513,7.163-11.004,9.277-16.474.967-2.341,1.451-4.244,1.451-5.71,0-1.422-.427-2.428-1.282-3.019Z"/>
  <path d="M425.092,52.102c-3.127,2.744-6.205,4.993-9.235,6.747-.064.032-.128.048-.191.048-.447,0-.67-.271-.67-.813,0-.096.031-.175.096-.239,5.455-5.997,10.097-12.903,13.925-20.72,1.754-3.541,3.126-7.098,4.115-10.671,5.136,2.105,8.198,3.445,9.188,4.02.797.479,1.196,1.005,1.196,1.579,0,.861-1.117,1.548-3.35,2.058-2.553,4.147-5.168,7.736-7.848,10.767,2.488.383,3.732,1.005,3.732,1.866,0,.702-.846,1.483-2.536,2.345v41.727c0,2.743-1.659,4.115-4.977,4.115-2.744,0-4.115-1.244-4.115-3.732.446-8.262.67-16.844.67-25.744v-13.351ZM444.185,9.897c0,.989-1.372,1.579-4.115,1.771-6.827,9.188-14.627,15.967-23.399,20.337-.032.032-.08.048-.144.048-.447,0-.67-.287-.67-.861,0-.096.031-.175.096-.239,4.912-4.816,9.251-10.894,13.016-18.231,1.723-3.317,2.935-6.316,3.637-8.996,7.72,2.648,11.58,4.706,11.58,6.173ZM451.65,19.994h13.733c2.328-3.126,3.924-4.689,4.785-4.689.605,0,2.232,1.117,4.881,3.35,1.371,1.148,2.058,2.026,2.058,2.632,0,.639-.415.957-1.244.957h-11.676v15.265h2.728c2.456-3.126,4.099-4.689,4.929-4.689.605,0,2.232,1.101,4.881,3.302,1.371,1.181,2.058,2.074,2.058,2.68,0,.639-.431.957-1.292.957h-13.303v15.121h2.728c2.01-2.871,3.461-4.307,4.354-4.307.605,0,2.169,1.037,4.689,3.11,1.244,1.021,1.866,1.835,1.866,2.44,0,.67-.431,1.005-1.292,1.005h-12.346v17.227c5.614-.893,9.953-1.802,13.016-2.728.542.064.813.431.813,1.101,0,.224-.064.415-.191.574-6.699,3.127-12.267,5.487-16.7,7.082-4.052,1.436-10.161,3.318-18.327,5.646-.352,2.169-.989,3.254-1.914,3.254-.606,0-1.181-.734-1.723-2.201-.543-1.403-1.548-4.594-3.015-9.57.733,0,1.706-.048,2.919-.144,1.467-.096,2.36-.144,2.68-.144v-21.485c0-2.328-.16-4.912-.479-7.752,7.305.734,10.958,1.659,10.958,2.775,0,.83-.846,1.644-2.536,2.44v23.304c1.562-.127,3.652-.383,6.269-.766v-35.984h-8.9c-1.436,0-3.238.191-5.407.574l-1.101-3.589c2.201.511,4.242.766,6.125.766h9.283v-15.265h-6.269c-2.361,2.457-4.977,4.642-7.848,6.556-.096.064-.191.096-.287.096-.447,0-.67-.191-.67-.574,0-.063.016-.127.048-.191,2.967-4.434,5.391-9.458,7.273-15.073,1.084-3.381,1.802-6.332,2.153-8.853,7.528,2.074,11.293,3.717,11.293,4.929,0,1.181-1.404,1.866-4.211,2.058-1.627,3.223-3.558,6.157-5.79,8.805ZM507.636,14.587c0,.798-.894,1.883-2.68,3.254v7.417l.191,47.66c0,2.425-.718,4.354-2.153,5.79-1.596,1.691-3.828,2.536-6.699,2.536-.989,0-1.563-.845-1.723-2.536-.224-1.754-.766-3.062-1.627-3.924-.766-.766-2.153-1.579-4.163-2.44-.256-.127-.383-.351-.383-.67,0-.351.127-.526.383-.526,1.436.064,3.461.096,6.077.096.988,0,1.483-.494,1.483-1.483V15.161h-8.518v75.94c0,2.488-1.659,3.732-4.977,3.732-2.425,0-3.637-.974-3.637-2.919l.383-65.078c0-7.752-.16-14.021-.479-18.806,3.572,1.596,6.667,3.223,9.283,4.881h6.747c2.615-3.126,4.29-4.689,5.024-4.689.701,0,2.472,1.181,5.312,3.541,1.436,1.244,2.153,2.186,2.153,2.823Z"/>
  <path d="M536.083,61.821c0,.766-1.005,1.388-3.015,1.866-3.318,9.348-7.593,16.972-12.824,22.873-.064.096-.16.144-.287.144-.543,0-.813-.224-.813-.67,0-.064.016-.112.048-.144,2.36-5.838,4.115-12.202,5.264-19.093.605-4.115.909-7.353.909-9.714,4.944,1.5,7.991,2.521,9.14,3.062,1.053.511,1.579,1.069,1.579,1.675ZM556.468,23.301c1.658.319,3.429.479,5.312.479h13.255v-11.867c0-2.998-.096-5.773-.287-8.326,7.879.766,11.819,1.787,11.819,3.062,0,.639-.878,1.452-2.632,2.44v14.69h12.154c3.189-4.242,5.216-6.364,6.077-6.364.67,0,2.823,1.5,6.46,4.498,1.818,1.468,2.728,2.521,2.728,3.158s-.415.957-1.244.957h-11.58c-1.787,15.058-6.556,28.217-14.308,39.478,6.763,7.146,15.822,12.506,27.18,16.078.255.064.383.224.383.479,0,.287-.128.463-.383.526-1.5.415-2.648,1.165-3.445,2.249-.702.957-1.388,2.456-2.058,4.498-.352,1.371-.861,2.058-1.531,2.058-.639,0-2.01-.559-4.115-1.675-8.391-4.594-15.36-10.606-20.911-18.04-8.23,9.092-18.918,15.743-32.061,19.954-.064.031-.112.048-.144.048-.511,0-.766-.256-.766-.766,0-.096.048-.176.144-.239,12.377-7.146,21.947-15.6,28.711-25.361-3.318-5.806-5.934-12.616-7.848-20.433-1.244-5.072-2.361-11.356-3.35-18.854h-2.249c-1.531,0-3.43.191-5.694.574l-.766-2.632c-.415.128-1.196.191-2.345.191-4.53,5.774-7.784,9.73-9.762,11.867-1.818,1.979-4.754,4.85-8.805,8.613,6.954-.127,12.218-.287,15.791-.479-.574-2.52-1.803-5.168-3.685-7.943-.032-.096-.048-.175-.048-.239,0-.287.207-.431.622-.431.096,0,.175.017.239.048,7.528,4.115,11.293,8.406,11.293,12.872,0,1.723-.447,3.11-1.34,4.163-.766.894-1.723,1.34-2.871,1.34-1.244,0-2.122-.479-2.632-1.436-.511-.957-.878-2.711-1.101-5.264l-.096-1.053c-1.851.67-3.972,1.388-6.364,2.153v13.398l.287,28.041c0,2.424-1.659,3.637-4.977,3.637-2.616,0-3.924-.941-3.924-2.823.446-7.146.67-14.308.67-21.485v-18.71c-1.181.287-4.354.941-9.522,1.962-.543,1.818-1.229,2.728-2.058,2.728-.67,0-1.261-.797-1.771-2.393-.479-1.436-1.117-4.194-1.914-8.278,1.69.128,3.413.191,5.168.191h5.216c3.955-5.773,7.608-12.298,10.958-19.571,1.723-3.668,2.902-6.651,3.541-8.948,7.113,3.478,10.671,5.663,10.671,6.556,0,.287-.032.495-.096.622ZM530.915,21.817c1.34-3.828,2.393-7.289,3.158-10.384.861-3.541,1.388-6.38,1.579-8.518,7.943,2.266,11.915,4.02,11.915,5.264,0,1.148-1.261,1.771-3.78,1.866-4.307,5.807-7.943,10.161-10.91,13.063,2.615,2.01,3.924,4.323,3.924,6.938,0,1.755-.495,3.175-1.483,4.259-.83.894-1.835,1.34-3.015,1.34-1.34,0-2.233-.351-2.68-1.053-.383-.638-.926-2.28-1.627-4.929-.989-3.955-2.792-7.321-5.407-10.097-.064-.096-.096-.207-.096-.335,0-.446.175-.67.526-.67.063,0,.111.017.144.048,3.062.926,5.646,1.994,7.752,3.206ZM557.76,71.774c0,1.851-.479,3.334-1.436,4.45-.83.957-1.883,1.436-3.158,1.436-1.372,0-2.249-.494-2.632-1.483-.352-.861-.639-2.854-.861-5.981-.415-4.849-1.563-8.82-3.445-11.915-.032-.063-.048-.127-.048-.191,0-.383.223-.574.67-.574.096,0,.191.032.287.096,4.083,2.903,6.922,5.503,8.518,7.8,1.403,2.01,2.105,4.132,2.105,6.364ZM579.054,59.141c4.912-9.06,8.135-20.098,9.666-33.113h-22.634c2.488,13.398,6.811,24.437,12.968,33.113Z"/>
  <path d="M216.699,189.626c-2.233,1.181-3.51,2.999-3.828,5.455-.16,1.595-.383,2.567-.67,2.919-.256.318-.813.526-1.675.622-4.785.574-12.697.861-23.734.861-9.22,0-16.397-.463-21.533-1.388-4.785-.861-8.613-2.266-11.484-4.211-4.02-2.743-7.051-7.369-9.092-13.877-2.775,4.785-6.54,9.714-11.293,14.786.096.701.144,1.308.144,1.818,0,1.786-.591,2.68-1.771,2.68-1.436,0-3.86-4.02-7.273-12.059,2.105-.542,4.45-1.355,7.034-2.44,2.839-1.275,5.104-2.552,6.795-3.828v-25.266h-6.795c-1.659,0-3.445.256-5.359.766l-1.101-3.924c2.201.606,4.354.909,6.46.909h6.173c2.647-2.998,4.322-4.498,5.024-4.498.67,0,2.456,1.148,5.359,3.445,1.499,1.213,2.249,2.153,2.249,2.823,0,.479-.974,1.516-2.919,3.11v22.251c1.562,2.648,3.015,4.53,4.354,5.646,1.18.957,2.823,1.787,4.929,2.488,4.912,1.5,12.298,2.249,22.155,2.249,10.017,0,22.602-.781,37.755-2.345.255-.063.383.08.383.431,0,.287-.096.479-.287.574ZM147.602,128.041c0,1.851-.543,3.318-1.627,4.402-.957.989-2.218,1.483-3.78,1.483-1.213,0-2.17-.462-2.871-1.388-.639-.893-1.276-2.456-1.914-4.689-1.404-4.881-3.493-8.692-6.269-11.437-.064-.096-.096-.191-.096-.287,0-.414.255-.622.766-.622h.144c10.432,2.584,15.647,6.764,15.647,12.537ZM154.253,147.182c3.03-6.412,5.582-13.956,7.656-22.634.861-3.637,1.451-7.13,1.771-10.479,6.508,1.818,10.288,2.951,11.341,3.397.925.383,1.388.878,1.388,1.483,0,.957-1.276,1.675-3.828,2.153-5.392,11.804-11.07,20.928-17.035,27.371,11.452,11.006,17.179,20.528,17.179,28.567,0,2.616-.511,4.642-1.531,6.077-.894,1.244-2.026,1.866-3.397,1.866-1.755,0-2.999-.766-3.732-2.297-.574-1.244-1.133-3.685-1.675-7.321-.861-6.093-2.521-12.026-4.977-17.801-2.042-4.753-4.339-8.709-6.891-11.867-.032-.063-.048-.127-.048-.191,0-.51.318-.766.957-.766.063,0,.127.032.191.096l2.632,2.345ZM172.58,146.799c3.35-6.571,6.188-14.18,8.518-22.825.925-3.7,1.579-7.034,1.962-10.001,6.412,2.17,10.112,3.478,11.102,3.924.925.415,1.388.894,1.388,1.436,0,1.181-1.276,1.898-3.828,2.153-5.838,11.867-11.788,20.688-17.849,26.462,12.281,10.975,18.423,20.688,18.423,29.142,0,2.105-.526,3.78-1.579,5.024-.926,1.085-2.074,1.627-3.445,1.627-2.201,0-3.701-1.771-4.498-5.312-1.723-7.752-3.669-14.1-5.838-19.045-1.883-4.338-4.515-8.9-7.896-13.686-.032-.031-.048-.079-.048-.144,0-.542.335-.813,1.005-.813.096,0,.175.017.239.048.255.224.67.574,1.244,1.053.479.383.845.702,1.101.957ZM191.29,146.895c3.254-5.838,6.236-13.031,8.948-21.581,1.18-4.274,1.993-7.863,2.44-10.767,6.252,2.042,9.921,3.318,11.006,3.828.957.415,1.436.909,1.436,1.483,0,1.117-1.276,1.835-3.828,2.153-5.551,10.592-11.788,19.205-18.71,25.84,6.795,5.615,11.963,11.054,15.504,16.317,3.126,4.626,4.689,8.741,4.689,12.346,0,2.138-.543,3.876-1.627,5.216-.957,1.148-2.122,1.723-3.493,1.723-1.5,0-2.632-.686-3.397-2.058-.702-1.275-1.596-3.987-2.68-8.135-2.808-10.527-7.481-19.746-14.021-27.658-.032-.063-.048-.127-.048-.191,0-.51.303-.766.909-.766.096,0,.175.017.239.048,1.467,1.148,2.345,1.883,2.632,2.201Z"/>
  <path d="M245.119,161.968c-5.328,3.765-11.07,6.764-17.227,8.996-.032.032-.08.048-.144.048-.511,0-.766-.303-.766-.909,0-.127.031-.223.096-.287,7.05-4.562,13.446-10.208,19.188-16.939,5.04-5.901,9.06-12.042,12.059-18.423h-22.107c-1.946,0-4.004.256-6.173.766l-1.101-3.78c2.615.511,5.04.766,7.273.766h8.422v-11.197c0-2.328-.191-5.168-.574-8.518,8.326.894,12.489,2.01,12.489,3.35,0,.83-1.037,1.739-3.11,2.728v13.638h4.785c2.265-2.552,3.732-3.828,4.402-3.828.733,0,2.408,1.34,5.024,4.02,1.371,1.468,2.058,2.521,2.058,3.158,0,.798-1.021,1.611-3.062,2.44-3.478,6.189-7.784,11.804-12.92,16.844,5.806,1.053,10.24,2.728,13.303,5.024,2.68,1.979,4.02,4.228,4.02,6.747,0,1.5-.495,2.728-1.483,3.685-.861.798-1.898,1.196-3.11,1.196-1.148,0-2.042-.318-2.68-.957-.606-.574-1.244-1.627-1.914-3.158-2.266-4.625-4.977-8.118-8.135-10.479v12.25l.383,29.716c0,2.68-1.723,4.02-5.168,4.02-2.871,0-4.307-1.213-4.307-3.637l.479-21.772v-15.504ZM317.519,192.832c0,2.711-2.058,4.642-6.173,5.79-3.956,1.053-9.57,1.579-16.844,1.579-7.752,0-12.761-.798-15.025-2.393-2.01-1.468-3.015-4.259-3.015-8.374l.096-48.904c0-11.994-.191-21.15-.574-27.467,5.519.479,9.203.974,11.054,1.483,1.658.447,2.488,1.069,2.488,1.866,0,.957-1.148,1.898-3.445,2.823v67.136c0,1.851.159,3.047.479,3.589.414.734,1.403,1.196,2.967,1.388,1.212.16,3.812.239,7.8.239,3.764,0,6.252-.398,7.465-1.196,1.371-.893,2.615-2.902,3.732-6.029.67-1.882,1.897-6.029,3.685-12.441.031-.159.191-.239.479-.239.605,0,.909.176.909.526-.511,8.008-.766,12.521-.766,13.542,0,1.309.127,2.153.383,2.536.223.319.781.687,1.675,1.101,1.754.861,2.632,2.01,2.632,3.445Z"/>
  <path d="M411.257,134.262c-.16,6.636-.335,11.564-.526,14.786h7.273c2.328-3.062,3.859-4.594,4.594-4.594.766,0,2.472,1.213,5.12,3.637,1.371,1.181,2.058,2.122,2.058,2.823,0,.511-.798,1.356-2.393,2.536-.352,9.252-1.085,18.024-2.201,26.318-.957,7.082-1.914,11.676-2.871,13.781-1.085,2.424-2.632,4.179-4.642,5.264-1.659.988-3.605,1.483-5.838,1.483-1.053,0-1.611-.526-1.675-1.579-.319-2.01-1.148-3.589-2.488-4.737-1.021-.829-2.775-1.754-5.264-2.775-.191-.096-.287-.287-.287-.574,0-.479.159-.686.479-.622,4.912.574,7.815.861,8.709.861,1.627,0,2.695-.303,3.206-.909.446-.542.829-1.706,1.148-3.493,1.69-9.602,2.728-21.325,3.11-35.171h-8.23c-.926,13.367-3.095,23.926-6.508,31.678-2.903,6.604-7.306,12.633-13.207,18.088-.064.031-.144.048-.239.048-.543,0-.813-.256-.813-.766,0-.064.016-.128.048-.191,4.338-6.061,7.608-14.738,9.81-26.031,1.945-9.889,2.919-20.99,2.919-33.305,0-2.424-.048-4.609-.144-6.556h-2.823c-1.627,0-3.717.191-6.269.574l-1.101-3.589c2.615.511,5.04.766,7.273.766h5.981v-11.867c0-1.244-.16-3.652-.479-7.226,8.007.766,12.011,1.803,12.011,3.11,0,.639-.941,1.452-2.823,2.44v13.542h3.732c2.775-3.477,4.562-5.216,5.359-5.216.67,0,2.376,1.244,5.12,3.732,1.371,1.276,2.058,2.186,2.058,2.728,0,.67-.431,1.005-1.292,1.005h-17.896ZM440.781,132.492c-3.478,4.977-7.561,9.22-12.25,12.729-.064.064-.16.096-.287.096-.511,0-.766-.191-.766-.574,0-.063.016-.127.048-.191,4.051-5.678,7.226-12.824,9.522-21.438,1.053-4.02,1.675-7.561,1.866-10.623,5.359,1.148,8.868,2.026,10.527,2.632,1.371.543,2.058,1.148,2.058,1.818,0,1.053-1.181,1.771-3.541,2.153-1.468,3.893-3.334,7.608-5.599,11.149h24.117c3.7-4.434,5.949-6.651,6.747-6.651.638,0,2.743,1.531,6.316,4.594,1.818,1.659,2.728,2.775,2.728,3.35,0,.639-.431.957-1.292.957h-40.195ZM451.883,151.871c-1.596,1.085-3.127,2.042-4.594,2.871v13.781c0,9.124.223,19.188.67,30.194,0,2.807-1.851,4.211-5.551,4.211-2.68,0-4.02-1.117-4.02-3.35l.479-19.763v-20.768c-3.382,1.468-6.604,2.696-9.666,3.685-.032.032-.08.048-.144.048-.383,0-.574-.255-.574-.766,0-.159.048-.271.144-.335,8.07-5.072,15.041-10.846,20.911-17.322,3.062-3.35,5.678-6.891,7.848-10.623,7.433,3.382,11.149,5.679,11.149,6.891,0,1.181-1.563,1.771-4.689,1.771-2.936,2.744-6.269,5.455-10.001,8.135,1.403,5.232,3.078,9.826,5.024,13.781,2.807-2.998,5.455-6.491,7.943-10.479,1.69-2.839,2.998-5.423,3.924-7.752,4.307,2.488,7.13,4.228,8.47,5.216,1.275.957,1.914,1.755,1.914,2.393,0,.894-.926,1.34-2.775,1.34-.479,0-1.037-.031-1.675-.096-5.009,4.371-10.623,8.183-16.844,11.437,1.562,2.808,3.062,5.104,4.498,6.891,4.881,6.189,11.707,11.182,20.48,14.978.223.096.335.256.335.479,0,.287-.144.479-.431.574-1.34.543-2.297,1.292-2.871,2.249-.543.894-1.085,2.473-1.627,4.737-.447,1.754-1.069,2.632-1.866,2.632-.67,0-2.01-.718-4.02-2.153-6.891-4.721-12.123-11.324-15.695-19.811-2.871-6.73-5.12-15.089-6.747-25.074Z"/>
  <ellipse cx="130.008" cy="73.456" rx="6.944" ry="9.389" transform="translate(-16.569 44.942) rotate(-18.458)" fill="#b3942e"/>
  <ellipse cx="161.251" cy="73.456" rx="9.389" ry="6.944" transform="translate(40.519 203.155) rotate(-71.542)" fill="#c59e2a"/>
  <polygon points="270.381 42.563 245.689 47.527 238.599 8.335 263.108 4.36 270.381 42.563" fill="none" stroke="#000" stroke-linecap="round" stroke-linejoin="round" stroke-width="2.835"/>
  <path d="M254.226,19.62l.488,2.843c.051.292.171.456.362.493.168.036.525.007,1.074-.087.817-.141,1.353-.258,1.604-.353.222-.083.391-.206.506-.364.153-.216.28-.818.384-1.807,0-.023.019-.038.055-.044.081-.014.126.006.135.06.066.627.127,1.1.182,1.418.014.077.038.127.075.154.031.022.105.049.222.08.236.057.376.208.418.456.05.287-.107.532-.47.733-.479.281-1.505.557-3.076.827-.962.165-1.619.171-1.974.02-.311-.136-.506-.44-.587-.912l-.491-2.933-.644-3.746c-.11.14-.212.259-.306.358-.021.017-.042.028-.064.032-.018.003-.032-.001-.044-.013l.029.168c.054.314-.125.507-.539.578-.296.051-.462-.024-.497-.227l-3.934.676c.014.243-.168.397-.545.462-.314.054-.49-.024-.526-.236l-.396-2.546c-.112-.656-.232-1.213-.356-1.673.472.109.922.24,1.35.392l.485-.083c-.094-.548-.196-1.009-.307-1.383.923-.062,1.398-.014,1.426.144.014.081-.084.201-.292.362l.123.714.7-.121c-.11-.643-.213-1.104-.307-1.383.923-.062,1.398-.014,1.426.144.012.071-.085.192-.291.362l.122.714.566-.097c.259-.401.438-.609.537-.626.095-.016.336.097.725.34.191.124.297.236.313.334.017.094-.088.24-.313.436l.071.411c.096.562.222,1.213.377,1.954.463-.94.752-1.988.867-3.146.065-.645.07-1.191.017-1.64,1.162.06,1.758.177,1.788.352.024.144-.113.259-.412.348-.045.253-.106.529-.184.829l.99-.17c.302-.478.502-.725.601-.741.095-.017.384.156.866.517.25.188.383.332.4.431.02.117-.005.205-.073.262-.065.048-.227.125-.481.229-.354.708-.761,1.342-1.219,1.902l1.381-.238c.25-.478.43-.726.538-.744.094-.017.355.109.786.378.224.146.344.267.36.361.023.139-.091.295-.343.468l.095.553.462,2.445c.062.359-.132.578-.581.655-.192.033-.33.015-.411-.055-.075-.061-.127-.175-.155-.341l-.036-.209-3.052.525ZM252.607,18.283c.016.09-.037.145-.158.166l-5.808.999c-.184.032-.408.098-.673.199l-.242-.479c.309.021.591.01.847-.034l4.252-.731c.295-.513.499-.779.611-.799.095-.016.361.098.801.341.232.141.355.254.37.339ZM247.199,14.662l-.626.107.209,1.22.627-.107-.21-1.22ZM249.463,23.789c.461-.111.824-.207,1.088-.285.041-.247.07-.479.089-.695.041-.326.051-.63.03-.914.864.133,1.308.265,1.33.396.018.104-.107.194-.376.273-.185.327-.353.585-.505.773.729-.222,1.365-.436,1.908-.64.043-.017.071.013.085.089.007.04-.002.07-.027.087-.741.502-1.501.936-2.28,1.301-.723.336-1.713.738-2.97,1.204-.019.295-.098.455-.236.479-.117.02-.241-.084-.372-.311-.125-.215-.3-.608-.522-1.18l.775-.133c.585-.119,1.023-.215,1.316-.289-.071-.039-.144-.172-.215-.4-.079-.329-.24-.685-.481-1.068-.08.101-.243.173-.49.216-.311.053-.485-.039-.526-.277l-.176-1.267c-.072-.418-.157-.829-.254-1.232.548.118.981.219,1.301.303l2.91-.5c.238-.364.404-.555.498-.571.104-.018.341.073.713.273.188.097.29.195.308.294.012.067-.066.194-.233.38l.043.25.195.896c.059.341-.137.551-.585.628-.279.048-.451-.041-.518-.265l-3.112.535.007.041c.009.054.003.113-.019.177.877.173,1.352.475,1.426.906.035.207-.007.382-.124.528ZM247.706,17.606l-.242-1.408-.627.107.242,1.408.627-.107ZM251.231,21.286l-.218-1.267-3.112.535.218,1.267,3.112-.535ZM248.85,14.378l-.7.121.209,1.22.701-.121-.21-1.22ZM248.655,17.443l.701-.121-.242-1.408-.701.121.242,1.408ZM249.8,14.215l.21,1.22.707-.122-.21-1.22-.707.122ZM250.307,17.159l.707-.122-.242-1.408-.707.122.242,1.408ZM252.988,15.817c.217.074.436.164.657.269l1.084-.187c.212-.786.383-1.578.514-2.378l-1.246.214c-.258.784-.595,1.478-1.009,2.081ZM254.171,19.304l.957-.165-.499-2.897-.956.165.498,2.897ZM257.223,18.779l-.498-2.897-.964.166.498,2.897.964-.166Z"/>
  <path d="M258.291,28.64c.315-.045.819-.127,1.512-.247.593-.102,1.138-.209,1.636-.322.082-.014.133.04.153.161.021.117-.01.187-.089.209-.367.1-.591.171-.671.213-.123.066-.207.167-.254.3-.098.262-.088.737.03,1.424l.07.411.941,4.992c.133.689.234,1.143.304,1.362.055.157.128.302.221.434.096.127.242.199.439.216.098.006.318-.004.66-.03.083-.005.133.046.151.154.02.112-.016.176-.105.192-.647.083-1.336.188-2.068.314-.697.12-1.343.245-1.94.375-.071.012-.118-.042-.139-.164-.018-.099.01-.159.08-.18.353-.098.567-.167.644-.208.131-.073.219-.18.264-.323.079-.208.063-.642-.051-1.302-.041-.238-.072-.425-.096-.559l-1.1-6.033-.122.021-1.165,5.285c-.121.562-.282,1.288-.485,2.178-.152.674-.269,1.193-.35,1.558-.022.111-.101.177-.235.2-.145.025-.245-.011-.304-.107-.372-.634-.999-1.629-1.88-2.985l-3.086-4.838-.168.029,1.012,6.048c.154.894.343,1.467.566,1.72.165.18.529.266,1.092.257.096-.008.152.039.169.137.021.121-.02.19-.123.208-.535.064-1.065.142-1.591.232-.535.092-1.066.197-1.597.316-.09.015-.145-.033-.164-.146-.018-.104.018-.169.105-.198.467-.164.752-.361.855-.592.138-.352.147-.959.026-1.821l-.726-5.029c-.039-.28-.072-.5-.101-.662-.097-.562-.227-.93-.391-1.105-.107-.116-.283-.176-.523-.181-.042-.002-.256.007-.641.027-.083,0-.135-.056-.153-.168-.021-.121.005-.188.076-.2.548-.066,1.08-.145,1.597-.233.71-.122,1.252-.22,1.628-.293.249.503.528,1,.84,1.493l2.726,4.275c.317.5.638,1.021.962,1.562.011-.048.127-.635.35-1.759l.922-4.723c.118-.603.214-1.234.285-1.894Z"/>
</svg>