<?xml version="1.0" encoding="UTF-8"?>
<svg id="_レイヤー_1" data-name="レイヤー 1" xmlns="http://www.w3.org/2000/svg" viewBox="0 0 181.11 120.89">
  <rect width="181.11" height="120.89" fill="#c0a561"/>
  <path d="M12.9,4.15h153c6.12,0,11.08,4.96,11.08,11.08v91.31c0,6.12-4.96,11.08-11.08,11.08H12.9c-5.89,0-10.68-4.79-10.68-10.68V14.83c0-5.89,4.79-10.68,10.68-10.68Z" fill="#fff"/>
  <rect x="60.7" y="25.33" width="12.33" height="7.22" rx=".54" ry=".54" transform="translate(1.26 60.65) rotate(-49.2)" fill="#9fbf38"/>
  <path d="M75.93,15.65h6.15c.3,0,.54.24.54.54v14.98c0,.3-.24.54-.54.54h-6.15c-.3,0-.54-.24-.54-.54v-14.98c0-.3.24-.54.54-.54Z" transform="translate(7.59 64.93) rotate(-46.7)" fill="#92c9d2"/>
  <rect x="86.93" y="27.68" width="12.33" height="7.22" rx=".54" ry=".54" transform="translate(8.58 81.33) rotate(-49.2)" fill="#d2560d"/>
  <path d="M111.1,35.85l-13.8-12.62c-.22-.2-.23-.54-.03-.76l4.16-4.52c.2-.22.54-.23.76-.03l13.8,12.62c.22.2.23.54.03.76l-4.16,4.52c-.2.22-.54.23-.76.03Z" fill="#dde65d"/>
  <text transform="translate(51.62 51.11)" font-family="KozGoPr6N-Regular-90ms-RKSJ-H, &apos;Kozuka Gothic Pr6N&apos;" font-size="10" letter-spacing=".26em"><tspan x="0" y="0">サンプルサン</tspan></text>
  <text transform="translate(39.77 107.26)" font-family="KozGoPr6N-Regular-90ms-RKSJ-H, &apos;Kozuka Gothic Pr6N&apos;" font-size="9"><tspan x="0" y="0">サンプルサンサンプルサ</tspan></text>
  <text transform="translate(52.02 58)" font-family="KozGoPr6N-Regular-90ms-RKSJ-H, &apos;Kozuka Gothic Pr6N&apos;" font-size="4"><tspan x="0" y="0">samplesamplesamplesamplesamplesam</tspan></text>
  <path d="M27.31,86.69v.16c0,.67-.49,1.01-1.46,1.01-.71,0-1.06-.28-1.06-.84l.11-7.46c0-.88-.06-1.62-.17-2.23,1.06.4,2.02.82,2.87,1.28h4.57v-2.57h-8.41c-.51,0-1.15.05-1.91.16l-.29-1c.74.14,1.44.21,2.1.21h5.01v-3.51h-3.32c-.52,0-1.18.05-1.97.16l-.29-1c.77.14,1.49.21,2.17.21h3.42v-1.22c0-.85-.05-1.74-.16-2.67,2.34.2,3.51.48,3.51.82,0,.2-.29.44-.88.7v2.37h4.65v-1.22c0-.85-.05-1.74-.16-2.67,2.34.2,3.51.48,3.51.82,0,.19-.29.43-.88.7v2.37h2.23c.92-1.07,1.49-1.61,1.71-1.61.18,0,.74.37,1.69,1.12.47.37.7.66.7.85,0,.18-.12.27-.35.27h-5.99v3.51h3.19c1.09-1.23,1.74-1.85,1.95-1.85.19,0,.81.43,1.83,1.28.52.45.78.76.78.93,0,.18-.12.27-.36.27h-11.07v2.57h5.01c.73-.82,1.19-1.22,1.38-1.22s.7.33,1.56.98c.42.35.62.61.62.78,0,.27-.27.55-.82.84v1.09l.12,5.56c0,.67-.53,1.01-1.58,1.01-.71,0-1.06-.3-1.06-.9v-.05h-12.49ZM31.85,89.38c0,.31-.4.47-1.2.47h-.27c-1.42.75-2.79,1.32-4.11,1.7-1.2.34-2.66.61-4.39.82-.12.03-.17-.05-.17-.24,0-.06.02-.1.07-.12,2.19-.88,3.97-1.87,5.33-2.99.66-.51,1.17-1.02,1.53-1.52,1.39.63,2.3,1.08,2.71,1.34.33.2.49.38.49.53ZM27.31,82.22h4.85v-2.99h-4.85v2.99ZM27.31,82.84v3.22h4.85v-3.22h-4.85ZM31.12,75.41h4.65v-3.51h-4.65v3.51ZM39.8,82.22v-2.99h-5.22v2.99h5.22ZM39.8,86.06v-3.22h-5.22v3.22h5.22ZM43.98,90.93c0,.45-.13.81-.39,1.06-.23.24-.52.36-.86.36s-.6-.06-.81-.19c-.2-.12-.46-.35-.77-.69-1.41-1.49-3.27-2.6-5.6-3.34-.04-.03-.07-.07-.07-.12,0-.12.05-.19.15-.19,3.11.2,5.32.58,6.62,1.13,1.15.48,1.73,1.13,1.73,1.97Z" fill="#bf9f46"/>
  <path d="M56.44,75.51c.66.11,1.21.17,1.68.17h6.02c.75-1.06,1.25-1.59,1.5-1.59.2,0,.75.38,1.65,1.14.45.37.68.65.68.83s-.12.28-.37.28h-4.42v4.71h5.39c.92-1.12,1.5-1.68,1.73-1.68.19,0,.77.39,1.73,1.16.49.41.73.7.73.87,0,.19-.12.29-.36.29h-9.22v8.35h6.52c1.15-1.31,1.84-1.97,2.06-1.97.2,0,.85.46,1.94,1.37.56.46.84.78.84.97s-.12.28-.36.28h-21.9c-.47,0-1.05.06-1.73.17l-.3-1.04c.7.15,1.37.22,2.01.22h8.2v-8.35h-6.69c-.48,0-1.06.06-1.73.17l-.32-1.04c.71.15,1.38.22,2.02.22h6.71v-4.71h-2.24c-.47,0-1.05.06-1.73.17l-.25-.82c-1.92,1.39-4.25,2.61-6.99,3.64,0,0-.02.01-.04.01-.13,0-.19-.08-.19-.24,0-.04.01-.06.04-.08,4.19-2.54,7.4-5.73,9.62-9.58.64-1.12,1.15-2.26,1.54-3.42,2.1.56,3.31.9,3.61,1.01.28.11.42.24.42.4,0,.25-.36.47-1.08.65,1.62,1.97,3.43,3.53,5.43,4.71,2.03,1.19,4.46,2.04,7.28,2.53.07,0,.11.07.11.18s-.04.17-.11.18c-.56.12-1,.37-1.3.76-.25.33-.48.85-.68,1.56-.1.38-.26.57-.48.57-.18,0-.5-.13-.97-.4-1.45-.78-2.81-1.71-4.08-2.8-2.23-1.94-4.11-4.25-5.62-6.92-1.74,2.92-3.83,5.27-6.27,7.06ZM58.24,86.8c0,.58-.16,1.03-.47,1.36-.27.29-.61.43-1.04.43-.39,0-.68-.11-.87-.33-.18-.22-.33-.58-.43-1.08-.33-1.71-.84-3-1.54-3.88-.02-.02-.03-.04-.03-.07,0-.11.06-.17.17-.17.02,0,.04,0,.06.01,2.77,1.1,4.15,2.34,4.15,3.72ZM70.68,84.5c0,.17-.08.29-.23.37s-.46.15-.93.23c-1.18,1.48-2.74,2.81-4.67,3.99-.02,0-.04.01-.06.01-.18,0-.28-.08-.28-.25,0-.02,0-.04.01-.06.69-.98,1.37-2.22,2.04-3.72.41-.92.68-1.72.83-2.38,1.57.7,2.51,1.14,2.82,1.32.3.18.46.34.46.5Z" fill="#bf9f46"/>
  <path d="M84.71,80.63v4.72c0,1.27.02,2.07.06,2.4.03.3.11.57.23.79.15.24.38.41.69.49.16.04.51.09,1.07.14.16.02.23.12.23.3s-.08.29-.23.29c-1.15-.05-2.3-.07-3.45-.07s-2.29.02-3.28.07c-.18,0-.27-.1-.27-.29s.07-.29.21-.3c.61-.07.98-.12,1.11-.16.25-.09.43-.24.54-.47.2-.35.29-1.41.29-3.19v-8.71c0-1.26-.01-2.03-.04-2.31-.03-.3-.11-.58-.22-.82-.12-.23-.35-.38-.69-.46-.16-.03-.53-.08-1.11-.14-.11-.02-.16-.12-.16-.3,0-.23.07-.34.21-.34,1.38.06,2.52.09,3.41.09.84,0,1.93-.03,3.29-.09.17,0,.26.11.26.32,0,.14-.02.23-.06.27-.04.03-.11.05-.22.06-.55.06-.89.12-1.04.18-.19.07-.34.21-.47.42-.24.48-.36,1.53-.36,3.13v3.71c.69-.6,1.29-1.18,1.8-1.72l2.68-2.81c1.02-1.06,1.54-1.8,1.54-2.21,0-.09-.01-.17-.04-.26-.06-.2-.42-.34-1.08-.41-.14-.02-.21-.12-.21-.33s.07-.29.21-.29c.59.03,1.52.05,2.79.05.74,0,1.71-.03,2.92-.09.12,0,.19.11.19.32s-.06.31-.19.33c-.69.09-1.39.36-2.1.82-1.16.76-2.15,1.55-2.98,2.38l-2.27,2.27c-.35.35-.67.66-.96.94l5.73,7.12c.95,1.2,1.69,1.96,2.21,2.29.31.21.83.36,1.56.43.11.02.16.12.16.3s-.06.29-.19.29c-.92-.05-1.7-.07-2.33-.07-1.23,0-2.09,0-2.57.02-.59-.88-1.23-1.75-1.9-2.61-.41-.54-1-1.3-1.76-2.29-1.52-1.98-2.59-3.38-3.23-4.2Z" fill="#bf9f46"/>
  <path d="M108.65,83.06c-1.08-.06-1.99-.09-2.74-.09-.62,0-1.61.03-2.98.09l-.91,2.52c-.27.74-.4,1.36-.4,1.85,0,.3.05.57.15.83.16.39.79.65,1.86.77.14,0,.21.1.21.3s-.09.32-.27.32c-.59-.03-1.58-.05-2.99-.05-1.16,0-2,.02-2.52.05-.18,0-.27-.11-.27-.32s.09-.3.27-.3c.48-.08.95-.33,1.41-.75.46-.45.95-1.39,1.46-2.8l2.88-7.78c.72-1.94,1.3-3.62,1.73-5.04l1.89-.87c.17,0,.28.07.32.22.12.36.78,2.3,1.99,5.82l2.71,7.83c.48,1.43.89,2.34,1.21,2.73.2.26.41.42.63.49.16.05.47.1.91.14.21,0,.32.1.32.3s-.11.32-.32.32c-1.42-.03-2.55-.05-3.4-.05s-1.96.02-3.39.05c-.12,0-.19-.11-.19-.32s.06-.3.19-.3c1-.05,1.55-.27,1.66-.63.05-.14.07-.29.07-.46,0-.41-.17-1.09-.5-2.06l-1.01-2.82ZM105.86,74.75l-1.08,3.09-1.54,4.25c.52.03,1.41.05,2.66.05,1.14,0,1.94-.02,2.4-.05l-1.44-4.21c-.26-.73-.59-1.78-1.01-3.14Z" fill="#bf9f46"/>
  <path d="M117.78,89.17c.63-.07,1.02-.12,1.15-.16.27-.08.46-.22.57-.43.14-.27.22-.7.25-1.31.02-.27.02-.9.02-1.91v-8.71c0-1.26-.01-2.03-.04-2.31-.02-.3-.09-.58-.21-.82-.12-.23-.36-.38-.71-.46-.16-.03-.55-.08-1.16-.14-.11,0-.16-.11-.16-.33s.06-.32.19-.32c.21,0,.84.03,1.9.06.67.02,1.2.04,1.58.04.45,0,1.07-.02,1.86-.05.81-.02,1.34-.04,1.58-.05.14,0,.21.11.21.34,0,.18-.07.28-.21.3-.62.06-1,.12-1.16.18-.27.08-.46.22-.57.42-.17.34-.26,1.39-.26,3.13v8.71c0,1.38,0,2.18.02,2.41.02.32.1.59.22.81.11.22.35.37.71.46.16.03.54.08,1.16.14.14.02.21.12.21.3s-.08.29-.25.29c-.27,0-.66-.02-1.18-.02-1.08-.03-1.86-.05-2.34-.05-.02,0-1.14.02-3.36.07-.12,0-.19-.1-.19-.29s.05-.29.16-.3Z" fill="#bf9f46"/>
  <path d="M135,72.21c3.55,0,6.2.86,7.97,2.57,1.52,1.48,2.29,3.49,2.29,6.05,0,3.02-1.03,5.33-3.09,6.91-1.81,1.39-4.26,2.09-7.35,2.09-.67,0-1.38-.02-2.13-.07-.19,0-.45-.02-.8-.02-.72-.03-1.24-.05-1.56-.05-1.09,0-2.15.02-3.18.07-.14,0-.21-.1-.21-.29s.07-.29.21-.3c.97-.08,1.55-.29,1.76-.63.16-.29.23-1.35.23-3.19v-8.71c0-1.27-.02-2.04-.05-2.32-.03-.31-.11-.59-.25-.83-.11-.21-.34-.36-.69-.43-.16-.03-.54-.08-1.16-.14-.12,0-.19-.1-.19-.3,0-.23.06-.34.19-.34,1.09.05,2.18.07,3.29.07.7,0,1.46-.02,2.31-.07,1.13-.03,1.93-.05,2.4-.05ZM131.98,76.63v8.71c0,1.05.03,1.75.08,2.1.05.33.15.61.3.83.36.49,1.16.74,2.4.74,2.52,0,4.42-.8,5.68-2.4,1.09-1.38,1.64-3.28,1.64-5.68,0-2.68-.7-4.7-2.1-6.07-1.23-1.2-2.91-1.79-5.06-1.79-1.48,0-2.36.21-2.64.64-.16.23-.26.59-.29,1.1-.02.24-.02.85-.02,1.83Z" fill="#bf9f46"/>
  <path d="M157.07,71.36c2.91,0,5.25.96,7.02,2.87,1.53,1.66,2.3,3.74,2.3,6.22,0,2.85-.99,5.16-2.96,6.91-1.71,1.52-3.83,2.29-6.35,2.29-2.89,0-5.22-.98-7-2.94-1.52-1.69-2.29-3.76-2.29-6.21,0-2.84.98-5.12,2.95-6.87,1.71-1.52,3.82-2.27,6.33-2.27ZM157.07,72.18c-1.89,0-3.39.86-4.49,2.58-.97,1.49-1.45,3.39-1.45,5.7,0,2.7.62,4.82,1.85,6.36,1.06,1.33,2.43,1.99,4.09,1.99,1.92,0,3.43-.86,4.54-2.57.96-1.49,1.44-3.39,1.44-5.71,0-2.7-.62-4.83-1.88-6.38-1.08-1.32-2.45-1.98-4.1-1.98Z" fill="#bf9f46"/>
</svg>