<?xml version="1.0" encoding="UTF-8"?>
<svg xmlns="http://www.w3.org/2000/svg" version="1.1" viewBox="0 0 247.143 140.885">
  <!-- Generator: Adobe Illustrator 29.4.0, SVG Export Plug-In . SVG Version: 2.1.0 Build 152)  -->
  <g id="_息子" data-name="息子">
    <g>
      <path d="M25.715,114.729s-4.185,17.703-4.228,17.547c-.34-1.222-4.53-1.111-4.53-1.111l3.509-17.592s3.951-5.428,5.248,1.156Z" fill="#f5d9bd"/>
      <path d="M43.979,111.896l7.404,19.713s-4.667,1.222-4.667,2.444-7.87-20.33-7.87-20.33c0,0-.9-6.911,5.133-1.828Z" fill="#f5d9bd"/>
      <path d="M38.234,92.535s6.593,15.852,7.593,17.63-12.778,5.556-12.707,4.222-.626-8.444-1.848-10.142-2,6.809-1.897,9.364-11.547.333-10.228-1.556,2.269-18.326,2.269-18.326c0,0,7.967-14.711,16.819-1.192Z" fill="#9a6b38"/>
      <path d="M21.415,93.276c-2.102,3.771-5.477-.111-8.137-3-1.752-1.902,0-16.792,0-16.792,0,0,16.911,4.051,8.137,19.792Z" fill="#9a6b38"/>
      <path d="M13.865,72.574s-8.593-7.076-10.593-7.854-2.667-1-3.222-2.704,3.778-2.63,4.778-2.519,1.222,2.519,1.222,2.519l9.667,5.32s.298,6.277-1.851,5.238Z" fill="#f5d9bd"/>
      <path d="M41.492,67.999l5.409-10.686s.37.593,1.704-.741,1.63-.593,0-2.494-3.259.124-3.556,1.161-8.972,9.459-8.972,9.459c0,0,1.192,4.951,5.415,3.302Z" fill="#f5d9bd"/>
      <path d="M15.716,62.016c3.556-.593,11.407-3.259,13.037-4.444s-.296-3.407-1.778-2.815-1.778.247-2.963-.099-6.798-1.679-8.428,1.432.132,5.926.132,5.926Z" fill="#edb95b"/>
      <path d="M27.825,58.114s1.224,5.68.631,6.717-1.481,1.575-1.481,2.639-3.505,2.101-4.049,1.213-2.46-1.889-2.46-1.889c0,0-.369-5.803,1.672-6.505" fill="#f5d9bd"/>
      <path d="M22.479,60.289c.496,2.764-1.064,3.278-1.064,5.06,0,1.634-1.403,2.593-2.589,1.556s-3.111-4.889-3.111-4.889l6.763-1.727Z" fill="#9a6b38"/>
      <path d="M27.007,67.086s4,.861,5.185,0,3.704-3.591,3.704-3.591c0,0,.296,2.136,1.778,2.581s3.824,2.491,4.861,1.01-5.094,7.862-5.094,7.862l.826,17.202s-4.889-2.074-7.259-1.778-9.56,2.519-9.56,2.519c0,0-.148-10.963-.959-12.296s-8-8.296-8-8.296c0,0,2.519,0,3.852-.889s-.724-4.889-.724-4.889l4.033,2.114,3.309-.336" fill="#f3e177"/>
      <path d="M19.446,79.751c2.62-.302,1.411-11.239,1.411-11.239l2.747-.176s1.12,14.163-2.691,14.163l-1.468-2.747Z" fill="#9a6b38"/>
      <path d="M37.589,79.095c-5.593,4.525-8.577-11.759-8.577-11.759l2.088.292s2.84,11.275,6.404,9.685l.085,1.781Z" fill="#9a6b38"/>
      <path d="M16.957,131.164s-6.39-.184-6.945,1.593.251,4.119,3.575,4.452,5.381,1.111,6.297,0,1.02-5.556,1.02-5.556l-3.946-.489Z" fill="#9a6b38"/>
      <path d="M51.382,131.609s4.929-1.074,5.04,1.593.364,4.111-5.744,5.111-3.963-4.259-3.963-4.259l4.667-2.444Z" fill="#9a6b38"/>
    </g>
  </g>
  <g id="_娘" data-name="娘">
    <g>
      <path d="M82.793,76.456s5.274,8.002,4.718,10.364-2.444,2.918-3.556,2.584-1.778-3.222-.556-4.333-1.878-2.574-1.878-2.574c0,0-1.672-11.042,1.271-6.041Z" fill="#f5d9bd"/>
      <path d="M74.986,69.66c3.783.767,6.748,2.656,7.637,5.756s-1.778,6.766-1.333,9.878,3.222,22.333,6.778,28.667,2.889,6.444,2.778,9-3.889-.778-7.111.556c-3.222,1.333-9.504,3.222-10.308,2.222s-5.581,1.556-7.248,1.222-7.567.824-6.561-5.088,1.228-15.357,4.117-20.357,5.237-9,5.452-13.778-3.016-14.287-3.056-14.255,2.441-5.124,8.856-3.823Z" fill="#f3e177"/>
      <path d="M78.167,60.815s.233,5.897-.767,6.522-2.118-.627-2.222.999c-.111,1.737-.697,3.848-3.071,3.292s-3.701-1.278-3.405-2.608-2.103-14.24,9.464-8.205Z" fill="#f5d9bd"/>
      <path d="M78.167,57.624s1.322,3.266,0,3.19-2.433-.48-3.989,0-2.556,3.702-2.556,3.702h-1.222s-1.111-1.298-1.222,1.573-1.556,7.205-4,7.871-5.444,1.824-5.556-.477,1.444-4.628,3.333-4.464,1.778-.863,2.222-1.683.111-3.841.111-3.841c0,0,2.866-8.985,12.878-5.871Z" fill="#9a6b38"/>
      <polygon points="65.845 60.815 66.623 56.405 71.81 52.773 75.845 55.739 79.623 56.961 64.593 63.813 65.845 60.815" fill="#edb95b"/>
      <path d="M68.101,80.175c-3.508,1.326-6.711,5.452-8.483,2.786s-2.772-9.401-4.883-9.589-5.222-.855-4.222-2.744,5.444-1.906,6.778-.854,3.111,9.308,4.667,8.419,4.174-4.709,4.174-4.709l1.971,6.691Z" fill="#f5d9bd"/>
      <path d="M66.179,126.961s-.111,5.298.444,5.316,3.333,1.871,3.778,0,.709-5.726.688-6.465-4.921-1.409-4.91,1.149Z" fill="#f5d9bd"/>
      <path d="M78.191,125.368c.988,5.26.654,6.114,1.432,6.909s3.222,1.553,3.444-.881.778-5.679,0-7.612-4.876,1.585-4.876,1.585Z" fill="#f5d9bd"/>
      <path d="M79.623,132.277s-4,3.573-3.889,4.795.375,2.667,3.021,1.778,4.558-2.865,4.713-3.933.452-2.102-.641-2.64-3.204,0-3.204,0Z" fill="#9a6b38"/>
      <path d="M66.623,132.277s-2.889,1.48-3.667,3.305,0,3.003,1.222,2.858,3.569-.367,4.451-1.589,1.771-4.573,1.771-4.573h-3.778Z" fill="#9a6b38"/>
      <path d="M78.191,91.516l11.432-4.222s6.222,5.752,6.556,7.543,1.444,3.457-.556,4.791-12.257,7-14.573,6.889-5.32-.444-5.318-5.333-.677-6.918.891-8.292l1.568-1.374Z" fill="#edb95b"/>
      <path d="M78.191,91.516s3.432,1.333,3.765,4.333,1.829,9.951,1.148,10.179-6.745,1.06-7.066-2.502-1.677-10.595,2.153-12.01Z" fill="#9a6b38"/>
      <path d="M87.976,87.902s-6.943-11.165-6.926,2.558" fill="none" stroke="#9a6b38" stroke-miterlimit="10"/>
    </g>
  </g>
  <g id="_母" data-name="母">
    <g>
      <path d="M101.366,129.128s-1.778,1.907-3.111,2.268-4.444,1.167-4.778,1.652-.222,4.041,2.444,4.041,3.778.778,5.444,0,6.111-2.615,6.111-3.808.613-5.05.613-5.05l-6.724.897Z" fill="#9a6b38"/>
      <path d="M142.399,131.395s-3.366,4.471-4.589,4.916-.339,4.556,1.997,4.556,2.225.222,4.003-.889,6.107-3.081,6.165-5.874-1.498-4.976-1.498-4.976l-6.078,2.268Z" fill="#9a6b38"/>
      <path d="M112.021,73.725s-1.985,11.971-3.931,21.112c-1.946,9.141-3.744,20.691-4.502,22.585-.667,1.667-2.222,11.706-2.222,11.706,2.333.075,7.333.628,7.333.628,0,0,6.444-11.111,7.667-15.889s5.442-26.479,7.442-23.406,7.447,17.295,8.669,20.184,3.017,8.333,3.017,8.333c0,0,7.428,13.886,8.094,14.135s4.889-3.985,4.889-3.985c0,0-6.374-19.072-7.291-22.61-1.378-5.318-3.518-14.408-4.341-17.024-1.351-4.294-6.59-26.615-6.59-26.615h-16.333l-1.9,10.846Z" fill="#edb95b"/>
      <path d="M141.185,55.714c-.015-1.547-.198-3.139-.438-4.16,0,0-10.17-8.339-7.144-.357,0,0,.532.414,1.12.89l1.085,1.208" fill="#f5d9bd"/>
      <path d="M127.553,16.062s.284,6.232,2.27,7.714,5.541,3.556,4.8,5.185-1.481,3.704-1.926,3.852-2.815,10.37-7.111,11.259-24.148,6.667-23.407,2.667,2.222-4.296.741-4-6.338.444-6.132-1.926,4.502-4.889,5.687-5.778,0-2.815-.296-5.185-.889-3.852,3.259-4.148,4.741,1.037,7.259-.889-1.548-13.354,14.856-8.751Z" fill="#9a6b38"/>
      <path d="M111.067,24.813s1.333-3.407,1.185-5.63.011-3.704.011-3.704c0,0,6.507-4.593,8.877-3.852s1.63,1.926,3.704,2.222,2.624-.875,4.741.889c1.778,1.481-6.667.444-18.519,10.074Z" fill="#f6de5c"/>
      <path d="M126.475,24.813c-.351,3.389-1.037,2.074-1.333,4.593s-.148,6.37-2.074,6.222-2.474.296-2.622-2.815-2.44-2.815-3.329-4.444.218-1.466.915-3.556c.741-2.222,1.273-4.741,3.599-4.889s5.289.593,4.845,4.889Z" fill="#f5d9bd"/>
      <path d="M120.445,34.294s-9.229,2.519-11.007,6.815-6.963,11-5.778,12.185,4.444,3.599,5.481,1.889,3.704-5.926,4-4.889,1.185,5.62-.889,9.995-6.519,10.779-5.481,11.429,11.852,4.955,12.296,1.766,1.125-16.523,1.378-24.078,0-13.926,0-15.111Z" fill="#f3e177"/>
      <path d="M124.52,34.294s8.622.889,12.326,4.296,4.741,5.037,4.741,8.889,1.333,5.037-1.778,3.704-6.856-2.838-6.613-3.049.687,8.604,2.169,15.678,5.037,9.229,2.667,9.559-11.17,4.487-11.511.112-1.881-11.782-2-17.264,0-21.926,0-21.926Z" fill="#f3e177"/>
      <path d="M119.84,62.872c1.746.014,5.267,0,5.267,0l-.587-28.578h-4.075l-.605,28.578Z" fill="#fff"/>
      <path d="M103.486,54.078s-6.641,23.45-9.604,24.115-4.593,2.825-3.111,2.918,1.481-.28,4.444.173,4.908-1.226,5.501-3.892,7.374-21.623,7.374-21.623" fill="#f5d9bd"/>
      <path d="M134.723,52.086c1.022.827,2.213,1.843,1.085,1.208" fill="#f5d9bd"/>
      <polygon points="155.512 62.016 155.808 81.357 154.327 83.84 136.845 89.494 123.808 70.739 155.512 62.016" fill="#9a6b38"/>
      <path d="M130.965,68.056c.022.163.045.328.067.493" fill="#f3e177"/>
      <path d="M134.544,52.361c-2.009,1.637-3.229,6.441-2.743,16.629" fill="none" stroke="#f3e177" stroke-miterlimit="10"/>
      <path d="M149.481,63.927c-2.282-3.443-10.518-15.168-14.938-11.566" fill="none" stroke="#f3e177" stroke-miterlimit="10"/>
      <path d="M149.976,64.278" fill="#f3e177"/>
      <polyline points="149.976 63.539 144.354 65.086 145.882 71.718 138.549 73.776 135.575 67.544 131.032 68.549 140.179 88.416 143.646 87.294 140.179 78.193 147.097 76.329 149.739 85.324 153.336 84.16 149.897 63.561" fill="#f3e177"/>
      <path d="M141.185,55.714s-3.829.591-5.377-2.42c-.045-.087-.17-.095-.253-.14l5.631,2.56c.021,2.269-.32,4.441-1.377,4.576-1.778.227-10.815-5.391-11.259-6.211s-1.185.524-2.667,0-.889-8.547,2.37-5.943,0,3.789,2.222,3.789c2.115,0,3.425.335,5.08,1.23" fill="#f5d9bd"/>
      <path d="M122.756,19.138s3.208,5.842,4.314,5.675-1.703-6.283-4.314-5.675Z" fill="#9a6b38"/>
      <path d="M117.403,25.515s6.077-4.129,5.667-6.028-6.779,3.421-5.667,6.028Z" fill="#9a6b38"/>
    </g>
  </g>
  <g id="_父" data-name="父">
    <g>
      <path d="M190.166,130.462s-4.111,3.885-5.556,4.544-4.556,2.881-2,3.547,4.778,1.222,6.556,0,8.667-3.444,8.333-4.556.881-5.888-3.333-5.889-4,2.353-4,2.353Z" fill="#9a6b38"/>
      <path d="M167.972,130.547s-5.918,3.562-6.918,3.673-3.778,3.889,0,3.778c3.778-.111,6.444-.564,6.444-.564,0,0,6.444-1.218,6-3.161s-2.088-3.26-2.088-3.26l-3.439-.467Z" fill="#9a6b38"/>
      <path d="M168.795,98.832l-.741,30.295s-.556,2.093,1.222,1.981,2.222.889,2.444-1.444,3.111-26.444,4.444-30.222-7.279-4.328-7.37-.61Z" fill="#f5d9bd"/>
      <path d="M187.387,99.946l2.779,30.516s1.222,1.242,2.222,0,1.778-1.909,1.778-3.131v-27.778s-7.195-4.178-6.779.392Z" fill="#f5d9bd"/>
      <path d="M168.601,68.056s.444,11.369-.88,14.814-2.783,14.801-1.78,15.131,10.558,3.33,12.113,1.219,1.83-21.222,3.111-21.222,3.334,22.161,5.111,21.969,10.556.784,10.444-.664-1.08-27.368-.873-30.559-27.581-4.384-27.247-.689Z" fill="#9a6b38"/>
      <circle cx="229.813" cy="131.929" r="3.077" fill="#9a6b38"/>
      <circle cx="244.066" cy="123.42" r="3.077" fill="#9a6b38"/>
      <polygon points="208.055 66.294 204.166 68.744 204.166 72.702 206.241 73.702 206.721 77.702 209.055 79.479 209.703 83.702 212.166 85.813 212.166 90.146 216.4 91.744 216.4 87.924 213.949 84.464 213.384 80.243 211.562 77.702 210.388 73.146 208.944 72.479 209.499 68.744 208.055 66.294" fill="#9a6b38"/>
      <path d="M215.294,62.921l3.872,1.357v2.312l2.556,2.154v3.957l3.111,2v4.778l2.556,1.778v4.556h-3.556l-.333-4.667-2.889-1.667-.444-4.556-2.333-1.667-.333-4.513-3.679-1.52s-5.954-2.196,1.473-4.304Z" fill="#9a6b38"/>
      <path d="M201.724,40.689l11.96,21.68s1.259-.741,1.481,0,.37,1.778-.741,1.778-.593,1.556-.444,2.222-.519,1.778-1.852,2.222-3.704,0-4.074-2.296.37-2-.667-3.481-10.228-18.074-10.228-18.074l4.564-4.05Z" fill="#f5d9bd"/>
      <path d="M162.031,43.039s-.939.514-1.31-.449-6.667-9.624-5.704-11.034.615-3.929-.1-4.077-2.344-.754-3.9.29-2.183,3.131-1.536,3.902,2.055,1.067,2.425,2.623,5.128,11.463,5.704,12.1c.741.82,2.222,1.803,3.333,1.74s4.519-1.1,4.963-3.1-3.531-1.835-3.531-1.835" fill="#f5d9bd"/>
      <path d="M170.512,23.061s-.232,26.664-.751,28.656-4.889,9.77-4.889,9.77c0,0-.444,2.667.593,3.704s2.664,3.432,5.108,3.358,12.593-1.251,14,.116,1.633,3.637,4.522,3.119,9.33-4.016,9.108-5.563-4.891-20.382-4.891-20.382l-4.036-23.268-18.764.491Z" fill="#f3e177"/>
      <path d="M171.328,7.825l-3.201,3.486s2.424,5.456,4.961,4.209,1.429-7.341,1.205-7.924-2.965.228-2.965.228Z" fill="#9a6b38"/>
      <path d="M173.792,7.644s-1.926,9.071.593,10.535,1.778,3.421,1.926,3.776.889,1.837,2.815,1.688,3.111.03,3.407-1.688.148-3.645.889-4.534,1.648-6.648.898-8.731-10.528-1.046-10.528-1.046Z" fill="#f5d9bd"/>
      <path d="M182.544,11.391s.526,6.105,1.471,5.994,3.352-.688,3.352-2.965.37-5.09-.296-5.701-3.5-2.333-4.167,0-.359,2.673-.359,2.673Z" fill="#9a6b38"/>
      <circle cx="178.488" cy="12.983" r="1.436" fill="none" stroke="#9a6b38" stroke-miterlimit="10"/>
      <circle cx="174.118" cy="12.983" r="1.436" fill="none" stroke="#9a6b38" stroke-miterlimit="10"/>
      <line x1="175.554" y1="12.983" x2="177.052" y2="12.983" fill="none" stroke="#9a6b38" stroke-miterlimit="10"/>
      <line x1="179.924" y1="12.983" x2="182.718" y2="12.983" fill="none" stroke="#9a6b38" stroke-miterlimit="10"/>
      <path d="M173.459,7.944s1.91,3.663,1.638,2.619c-.286-1.099,1.206-3.031,1.206-3.031,0,0-2.715-.515-2.844.412Z" fill="#9a6b38"/>
      <path d="M176.303,22.3s-5.186-.042-5.853,1.355-2.593,5.101-3.926,7.249-3.259,6.296-4.148,7.63-1.926,4,0,4.667,4.272,3.983,5.753,3.02,8.923-22.565,8.923-22.565l-.749-1.355Z" fill="#f3e177"/>
      <path d="M185.369,8.304c-.088-.19-.33-.251-.493-.119-.527.428-1.534,1.381-1.75,2.571-.263,1.444-4.829.95-5.866.819-.129-.016-.231-.108-.266-.233l-.801-2.849c-.02-.071-.06-.131-.12-.173-.315-.223-1.404-.926-2.281-.675-.885.253-4.272.182-5.247.156-.158-.004-.286-.121-.31-.277-.127-.832-.391-3.311.964-3.434,1.272-.116,3.807-.953,4.859-1.315.213-.073.289-.336.144-.508-.483-.574-1.108-1.702,1.071-2.029,2.963-.444,6.815-.444,10.222,1.63s5.481,2.222,5.481,4.741c0,2.048-2.358,4.794-3.239,5.748-.156.169-.431.121-.528-.088l-1.843-3.964Z" fill="#fff"/>
      <path d="M174.533,2.607s8.022.758,15.789,6.462" fill="none" stroke="#9a6b38" stroke-miterlimit="10"/>
      <path d="M182.453,22.3l-1.41,1.355s13.556,23.397,13.926,23.961,2.593-2.638,3.111-3.824,5.333-4.222,5.333-4.222c0,0-11.037-15.852-13.091-16.815s-7.869-.455-7.869-.455" fill="#f3e177"/>
      <path d="M174.726,22.3c.246.049,2.686,6.381,2.686,6.381,0,0-.444.815-1.333,1.63s-6.191-.035-6.191-.035l-.569-4.381s-.124-4.7,5.408-3.595Z" fill="#9a6b38"/>
      <path d="M183.825,22.131s-2.296,6.237-2.259,7.459,1.667,1.424,2.852,1.083,8.955-4.773,8.955-4.773c0,0-2.029-5.783-9.547-3.769Z" fill="#9a6b38"/>
      <path d="M192.061,26.615s4.049,7.275,5.16,7.458,4.037,3.369,4.037,3.369l1-.185s-4.683-9.158-8.934-11.357" fill="#9a6b38"/>
      <path d="M176.582,28.253h5.959s-.116,1.568-.248,3.322c-.124,1.646-1.925,1.956-2.919,1.925s-2.64-.497-2.763-2.08-.029-3.167-.029-3.167Z" fill="#9a6b38"/>
      <path d="M182.186,32.088l3.915,2.965s2.525,3.136,2.525,3.664.404,4.098-1.335,4.285-2.453.373-2.608-.124-2.47-4.062-2.701-4.906c-.435-1.583-1.49-4.717-1.428-5.184s1.632-.7,1.632-.7Z" fill="#9a6b38"/>
      <path d="M176.701,31.887s-2.978,3.042-3.196,3.849-.994,2.546-.994,2.546c0,0,.619,2.701,2.095,2.701s1.977-.9,1.975-1.056,1.799-5.03,1.83-5.433.155-1.706.155-1.706l-1.552-.901" fill="#9a6b38"/>
      <path d="M210.283,95.702l18.55-12,3.667,2.111,12.667,29.444s1.444,4.053.444,4.72-12.111,9.667-12.111,9.667c0,0-8.222,1.947-9.778-.164s-12.778-28.333-12.778-28.333l-.661-5.444Z" fill="#f3e177"/>
      <path d="M232.975,129.609s-7.778,2.111-9.333,0-12.778-28.333-12.778-28.333l-.661-5.444,6.196-4.087,4.766,2.401,12.333,31.111-.524,4.352Z" fill="#edb95b"/>
    </g>
  </g>
</svg>